<svg width="171" height="1836" viewBox="0 0 171 1836" fill="none" xmlns="http://www.w3.org/2000/svg">
<path d="M75.2566 3C75.2566 3 198.753 115.002 156.752 150.002C114.75 185.002 26.75 65.002 4.25143 130.002C-9.09689 168.566 88.252 155.502 110.252 228.002C139.045 322.888 104.93 535.755 135.75 630.002C168.615 730.502 8.25 749.502 36.2657 679.002C50.8182 642.381 140.77 672.502 83.7658 767.002C26.7613 861.502 87.748 1558 87.748 1623.5C87.748 1689 3.74805 1696.5 20.748 1733.5C37.748 1770.5 179.918 1770.45 166.748 1717C158 1681.5 62 1695 66 1832.5" stroke="#89564C" stroke-width="6" stroke-linecap="round" stroke-dasharray="20 20"/>
</svg>
