<svg width="390" height="359" viewBox="0 0 390 359" fill="none" xmlns="http://www.w3.org/2000/svg">
<path d="M55.1422 2.02648C52.3858 1.85609 50.1358 2.41293 46.8392 2.28285C43.3786 2.14997 42.9721 1.83246 39.0683 1.84367C35.1771 1.85485 31.3492 1.5789 29.6124 1.67747C27.8576 1.77572 27.7546 1.38689 25.2612 1.42838C22.8439 1.47067 21.3391 1.39145 19.2082 1.2225C17.0517 1.05561 10.5537 0.800406 8.11094 0.872165C5.74736 0.951274 2.99737 0.585539 1.38003 0.368356C0.869368 0.300431 0.468822 0.213392 0.175758 0.126726C0.0489285 0.0899344 -0.00375262 0.0534676 0.000883903 0.0292718C0.000887055 0.0292561 0.000890207 0.0292403 0.000893359 0.0292246C0.00617798 -0.00128601 0.105955 -0.0113473 0.267054 0.0150882C1.05981 0.149479 2.2639 0.178953 3.71408 0.141938C6.41806 0.0575689 6.64694 0.291602 10.2918 0.291277C13.8997 0.281432 16.0685 0.11479 20.3251 0.338818C24.5696 0.559284 25.5817 -0.000194814 31.5666 0.427917C37.5709 0.853217 38.2041 0.257135 44.1908 0.265066C50.1738 0.272239 57.7379 0.707682 61.3597 0.727193C63.3297 0.738165 65.512 0.739282 68.104 0.762514C70.2651 0.781568 72.5811 0.81526 74.9558 0.881674C80.0762 1.02489 86.3946 0.89922 92.0397 1.1079C97.6898 1.31689 105.673 1.58811 109.361 1.75021C113.05 1.9124 113.947 1.94964 117.501 1.91554C119.541 1.89589 122.353 1.96691 124.727 2.14874C125.923 2.24026 125.65 2.34641 124.445 2.3854C122.686 2.44244 121.242 2.37546 120.333 2.5018C118.52 2.75434 117.746 2.85033 115.463 2.6662C113.175 2.48199 112.098 2.83043 110.762 2.77389C109.432 2.71729 109.453 2.50527 102.673 2.5917C95.8961 2.6779 92.1733 2.67575 89.6086 2.68485C87.0406 2.69393 81.6843 2.44543 77.4994 2.46069C75.161 2.46928 71.4738 2.42102 68.0833 2.38735C65.2954 2.35941 62.9207 2.34355 61.3577 2.37123C57.8506 2.43415 58.0073 2.19809 55.1422 2.02648Z" fill="#815E57"/>
<path d="M181.321 78.2565C200.346 79.2146 216.315 79.5252 236.294 80.4087C242.541 80.6992 249.222 81.0218 256.465 81.5561C258.394 81.7027 260.17 81.8505 261.915 82.0398C262.781 82.1353 263.622 82.2376 264.457 82.3772C264.882 82.4495 265.3 82.5283 265.739 82.6474C266.166 82.8137 266.683 82.7688 267.319 83.6247C268.038 84.6616 268.196 86.5042 267.36 87.582C266.603 88.6676 265.646 89.2216 264.74 89.7115C262.92 90.6415 261.127 91.1617 259.425 91.6208C256.013 92.5074 252.833 93.0476 249.642 93.5701C243.276 94.6344 236.758 95.2794 228.077 97.1621C223.551 98.2128 218.424 99.5734 212.475 101.587C205.19 104.056 198.09 107.048 191.483 110.533C180.741 116.055 171.501 124.519 169.435 134.564C168.599 138.226 171.345 141.527 173.541 144.04C178.243 148.717 183.516 151.446 187.08 153.746C188.176 154.413 189.191 155.027 190.148 155.606C200.743 161.937 203.273 163.681 220.862 173.721C222.113 174.438 223.331 175.138 224.516 175.825C228.707 178.462 233.031 180.128 235.811 183.896C237.878 187.138 238.751 191.144 237.426 194.684C235.991 198.193 232.838 200.174 230.033 202.191C225.981 204.998 221.811 207.899 217.339 211.204C213.858 213.784 208.794 217.619 203.154 222.538C200.716 224.635 198.432 227.144 196.644 230.266C194.07 235.221 197.277 241.447 200.159 246.411C201.442 248.56 202.957 250.682 203.482 253.26C204.159 259.068 200.111 263.729 196.861 267.613C193.484 271.558 192.034 276.603 191.716 281.074C191.625 284.181 194.565 286.026 196.613 287.473C198.811 288.925 200.888 290.096 202.591 291.249C202.619 291.269 202.648 291.288 202.677 291.307C203.744 292.03 204.703 292.972 205.357 294.139C205.953 295.179 206.152 296.454 205.966 297.635C202.031 310.353 193.583 321.326 189.592 332.164C187.572 337.58 188.416 343.087 189.459 347.287C189.706 348.227 189.986 349.13 190.297 349.956L190.29 349.941C190.81 350.89 191.438 351.707 191.998 352.496C193.145 354.078 194.016 355.545 194.755 356.806C195.347 357.822 195.594 358.308 195.575 358.323C195.575 358.323 195.575 358.323 195.575 358.323C195.545 358.335 195.104 357.62 194.319 356.326C193.607 355.158 192.808 353.895 191.849 352.603C191.27 351.806 190.631 350.99 190.102 350.045L190.096 350.033C188.388 345.17 186.898 338.685 189.189 332.007C189.818 330.346 190.521 328.664 191.28 326.964C197.489 313.152 202.244 307.83 205.311 297.538C205.473 296.519 205.34 295.426 204.794 294.449C204.242 293.446 203.386 292.542 202.328 291.815C200.539 290.58 198.471 289.408 196.271 287.941C194.256 286.46 191.117 284.696 191.144 281.038C191.217 279.836 191.386 278.599 191.653 277.335C192.48 273.512 194.01 269.974 196.403 267.209C199.922 263.067 203.501 258.356 202.804 253.383C202.319 251.032 200.831 248.925 199.536 246.797C196.812 241.913 193.053 236.093 195.952 229.815C197.569 226.958 199.887 224.196 202.58 221.884C208.911 216.311 216.206 210.696 224.885 204.595C226.471 203.479 228.002 202.414 229.471 201.389C232.469 199.274 235.373 197.206 236.485 194.315C237.733 190.89 236.688 187.199 234.921 184.463C232.273 180.97 227.762 179.166 223.955 176.784C214.477 171.318 204.251 165.772 189.421 156.797C184.324 153.5 178.264 150.446 172.618 144.874C172.48 144.72 172.349 144.57 172.213 144.414C169.772 141.555 167.349 138.044 168.27 134.28C172.117 119.851 182.985 113.987 190.898 109.425C202.473 103.364 212.721 99.3749 227.728 95.6664C235.854 93.6985 245.496 92.8592 257.057 90.303C259.156 89.796 261.325 89.2035 263.23 88.3296C264.187 87.8843 265.112 87.3312 265.63 86.6821C266.141 86.0253 266.133 85.459 265.649 84.6323C257.777 83.2087 246.204 82.9675 236.195 82.3419C197.942 80.4075 159.018 78.88 133.987 77.2008C130.921 76.9938 128.071 76.7976 125.454 76.612C117.404 75.5437 108.644 77.0405 99.3581 72.3696C98.3889 71.147 97.8168 69.6213 97.9183 67.9789C98.0316 66.1566 99.0666 64.5419 100.263 63.3626C106.905 56.7909 116.084 53.3529 125.226 49.9556C142.941 43.5513 162.461 38.6298 182.558 34.3798C188.388 33.1492 194.435 31.937 200.64 30.7506C242.338 22.8743 290.77 15.3971 334.802 9.40137C336.635 9.15456 338.558 8.89753 340.418 8.65131C355.366 6.7962 371.718 4.21241 388.545 3.62293C371.242 6.47903 344.542 4.30755 325.586 4.56421C311.082 4.41799 298.262 4.27213 288.717 4.1571C255.41 3.75013 247.28 3.6454 215.223 3.41212C196.792 3.27642 171.409 2.98133 149.963 2.5984C139.171 2.40539 141.613 2.32257 152.478 2.38518C168.365 2.4761 181.405 2.65899 189.592 2.60467C205.95 2.49521 212.904 2.45956 233.547 2.81399C254.177 3.16663 263.944 2.89267 275.952 3.03956C286.22 3.15997 287.595 3.3502 325.593 3.58025C332.272 3.61823 339.859 3.65381 349.016 3.67936C356.903 3.70068 364.332 3.71332 371.34 3.70921C374.834 3.70689 378.26 3.70057 381.514 3.6846C383.193 3.67626 384.797 3.66589 386.396 3.64845C387.164 3.63975 387.99 3.62931 388.761 3.61218C388.921 3.60856 389.174 3.60217 389.328 3.5967C389.448 3.59258 389.518 3.58981 389.613 3.58474C389.664 3.58219 389.709 3.57792 389.7 3.57899C389.691 3.58075 389.678 3.58093 389.624 3.59552C389.595 3.60477 389.559 3.61195 389.473 3.65941C389.429 3.68512 389.37 3.72 389.292 3.80788C389.222 3.88904 389.096 4.06404 389.124 4.3464C389.157 4.61209 389.304 4.74996 389.377 4.8112C389.457 4.87553 389.507 4.89578 389.544 4.9124C389.615 4.94189 389.642 4.94562 389.664 4.95105C389.704 4.95929 389.71 4.95885 389.713 4.9594C389.712 4.95938 389.698 4.95826 389.679 4.95721C389.324 4.94174 388.928 4.94174 388.543 4.94135C369.16 5.85835 353.573 8.55737 340.625 10.1821C329.993 11.6403 321.143 12.9124 313.445 14.035C290.513 17.3758 242.625 24.3615 205.527 31.3816C204.058 31.6596 202.494 31.9579 200.929 32.26C180.809 36.2001 151.83 42.0827 125.772 51.4861C116.695 54.8334 107.537 58.3782 101.407 64.5085C100.354 65.5527 99.6142 66.7861 99.5332 68.0979C99.4523 69.2343 99.9005 70.4635 100.617 71.3515C108.736 74.9647 118.962 74.1665 125.4 74.9599C128.604 75.1788 131.47 75.3659 134.098 75.5374C156.564 76.8797 158.935 77.0988 181.321 78.2565Z" fill="#815E57"/>
</svg>
