<svg width="20" height="20" viewBox="0 0 20 20" fill="none" xmlns="http://www.w3.org/2000/svg">
<mask id="mask0_395_287" style="mask-type:alpha" maskUnits="userSpaceOnUse" x="0" y="0" width="20" height="20">
<rect width="20" height="20" fill="#D9D9D9"/>
</mask>
<g mask="url(#mask0_395_287)">
<path d="M3.74935 10.104C3.16602 10.104 2.67296 9.90262 2.27018 9.49984C1.8674 9.09706 1.66602 8.604 1.66602 8.02067C1.66602 7.43734 1.8674 6.94428 2.27018 6.5415C2.67296 6.13873 3.16602 5.93734 3.74935 5.93734C4.33268 5.93734 4.82574 6.13873 5.22852 6.5415C5.63129 6.94428 5.83268 7.43734 5.83268 8.02067C5.83268 8.604 5.63129 9.09706 5.22852 9.49984C4.82574 9.90262 4.33268 10.104 3.74935 10.104ZM7.49935 6.77067C6.91602 6.77067 6.42296 6.56928 6.02018 6.1665C5.6174 5.76373 5.41602 5.27067 5.41602 4.68734C5.41602 4.104 5.6174 3.61095 6.02018 3.20817C6.42296 2.80539 6.91602 2.604 7.49935 2.604C8.08268 2.604 8.57574 2.80539 8.97852 3.20817C9.38129 3.61095 9.58268 4.104 9.58268 4.68734C9.58268 5.27067 9.38129 5.76373 8.97852 6.1665C8.57574 6.56928 8.08268 6.77067 7.49935 6.77067ZM12.4993 6.77067C11.916 6.77067 11.423 6.56928 11.0202 6.1665C10.6174 5.76373 10.416 5.27067 10.416 4.68734C10.416 4.104 10.6174 3.61095 11.0202 3.20817C11.423 2.80539 11.916 2.604 12.4993 2.604C13.0827 2.604 13.5757 2.80539 13.9785 3.20817C14.3813 3.61095 14.5827 4.104 14.5827 4.68734C14.5827 5.27067 14.3813 5.76373 13.9785 6.1665C13.5757 6.56928 13.0827 6.77067 12.4993 6.77067ZM16.2493 10.104C15.666 10.104 15.173 9.90262 14.7702 9.49984C14.3674 9.09706 14.166 8.604 14.166 8.02067C14.166 7.43734 14.3674 6.94428 14.7702 6.5415C15.173 6.13873 15.666 5.93734 16.2493 5.93734C16.8327 5.93734 17.3257 6.13873 17.7285 6.5415C18.1313 6.94428 18.3327 7.43734 18.3327 8.02067C18.3327 8.604 18.1313 9.09706 17.7285 9.49984C17.3257 9.90262 16.8327 10.104 16.2493 10.104ZM5.54102 18.4373C4.91602 18.4373 4.39171 18.1978 3.9681 17.7186C3.54449 17.2394 3.33268 16.6734 3.33268 16.0207C3.33268 15.2984 3.57921 14.6665 4.07227 14.1248C4.56532 13.5832 5.0549 13.0484 5.54102 12.5207C5.94379 12.0901 6.29102 11.6214 6.58268 11.1144C6.87435 10.6075 7.22157 10.1318 7.62435 9.68734C7.9299 9.32623 8.28407 9.02762 8.68685 8.7915C9.08963 8.55539 9.52713 8.43734 9.99935 8.43734C10.4716 8.43734 10.9091 8.54845 11.3118 8.77067C11.7146 8.99289 12.0688 9.28456 12.3743 9.64567C12.7632 10.0901 13.107 10.5693 13.4056 11.0832C13.7042 11.5971 14.0549 12.0762 14.4577 12.5207C14.9438 13.0484 15.4334 13.5832 15.9264 14.1248C16.4195 14.6665 16.666 15.2984 16.666 16.0207C16.666 16.6734 16.4542 17.2394 16.0306 17.7186C15.607 18.1978 15.0827 18.4373 14.4577 18.4373C13.7077 18.4373 12.9646 18.3748 12.2285 18.2498C11.4924 18.1248 10.7493 18.0623 9.99935 18.0623C9.24935 18.0623 8.50629 18.1248 7.77018 18.2498C7.03407 18.3748 6.29102 18.4373 5.54102 18.4373Z" fill="#FFF1E3"/>
</g>
</svg>
