<svg width="20" height="20" viewBox="0 0 20 20" fill="none" xmlns="http://www.w3.org/2000/svg">
<mask id="mask0_367_1453" style="mask-type:alpha" maskUnits="userSpaceOnUse" x="0" y="0" width="20" height="20">
<rect width="20" height="20" fill="#D9D9D9"/>
</mask>
<g mask="url(#mask0_367_1453)">
<path d="M5 18.3333C4.30556 18.3333 3.71528 18.0902 3.22917 17.6041C2.74306 17.118 2.5 16.5277 2.5 15.8333V13.3333H5V1.66663H17.5V15.8333C17.5 16.5277 17.2569 17.118 16.7708 17.6041C16.2847 18.0902 15.6944 18.3333 15 18.3333H5ZM15 16.6666C15.2361 16.6666 15.434 16.5868 15.5938 16.427C15.7535 16.2673 15.8333 16.0694 15.8333 15.8333V3.33329H6.66667V13.3333H14.1667V15.8333C14.1667 16.0694 14.2465 16.2673 14.4062 16.427C14.566 16.5868 14.7639 16.6666 15 16.6666ZM7.5 7.49996V5.83329H15V7.49996H7.5ZM7.5 9.99996V8.33329H15V9.99996H7.5Z" fill="#FFF1E3"/>
</g>
</svg>
