<svg width="20" height="20" viewBox="0 0 20 20" fill="none" xmlns="http://www.w3.org/2000/svg">
<mask id="mask0_367_1443" style="mask-type:alpha" maskUnits="userSpaceOnUse" x="0" y="0" width="20" height="20">
<rect width="20" height="20" fill="#D9D9D9"/>
</mask>
<g mask="url(#mask0_367_1443)">
<path d="M1.66699 18.3333V3.33329C1.66699 2.87496 1.83019 2.4826 2.15658 2.15621C2.48296 1.82982 2.87533 1.66663 3.33366 1.66663H16.667C17.1253 1.66663 17.5177 1.82982 17.8441 2.15621C18.1705 2.4826 18.3337 2.87496 18.3337 3.33329V13.3333C18.3337 13.7916 18.1705 14.184 17.8441 14.5104C17.5177 14.8368 17.1253 15 16.667 15H5.00033L1.66699 18.3333ZM7.56283 11.875L10.0003 10.3958L12.4378 11.875L11.792 9.10413L13.9587 7.22913L11.1045 6.99996L10.0003 4.37496L8.89616 6.99996L6.04199 7.22913L8.20866 9.10413L7.56283 11.875Z" fill="#FFF1E3"/>
</g>
</svg>
