<svg width="20" height="20" viewBox="0 0 20 20" fill="none" xmlns="http://www.w3.org/2000/svg">
<mask id="mask0_367_1433" style="mask-type:alpha" maskUnits="userSpaceOnUse" x="0" y="0" width="20" height="20">
<rect width="20" height="20" fill="#D9D9D9"/>
</mask>
<g mask="url(#mask0_367_1433)">
<path d="M7.64551 9.02087C6.99273 8.3681 6.66634 7.58337 6.66634 6.66671C6.66634 5.75004 6.99273 4.96532 7.64551 4.31254C8.29829 3.65976 9.08301 3.33337 9.99967 3.33337C10.9163 3.33337 11.7011 3.65976 12.3538 4.31254C13.0066 4.96532 13.333 5.75004 13.333 6.66671C13.333 7.58337 13.0066 8.3681 12.3538 9.02087C11.7011 9.67365 10.9163 10 9.99967 10C9.08301 10 8.29829 9.67365 7.64551 9.02087ZM3.33301 16.6667V14.3334C3.33301 13.8612 3.45454 13.4271 3.69759 13.0313C3.94065 12.6355 4.26356 12.3334 4.66634 12.125C5.52745 11.6945 6.40245 11.3716 7.29134 11.1563C8.18023 10.941 9.08301 10.8334 9.99967 10.8334C10.9163 10.8334 11.8191 10.941 12.708 11.1563C13.5969 11.3716 14.4719 11.6945 15.333 12.125C15.7358 12.3334 16.0587 12.6355 16.3018 13.0313C16.5448 13.4271 16.6663 13.8612 16.6663 14.3334V16.6667H3.33301Z" fill="#FFF1E3"/>
</g>
</svg>
