<svg width="25" height="25" viewBox="0 0 25 25" fill="none" xmlns="http://www.w3.org/2000/svg">
<mask id="mask0_395_827" style="mask-type:alpha" maskUnits="userSpaceOnUse" x="0" y="0" width="25" height="25">
<rect width="25" height="25" fill="#D9D9D9"/>
</mask>
<g mask="url(#mask0_395_827)">
<path d="M20.2509 21.3538C18.2879 21.3538 16.3158 20.8974 14.3345 19.9846C12.3534 19.0717 10.5332 17.7841 8.87383 16.1216C7.21463 14.4589 5.9286 12.6386 5.01576 10.6606C4.10291 8.68284 3.64648 6.71244 3.64648 4.74941C3.64648 4.43396 3.75065 4.17112 3.95898 3.96087C4.16732 3.75063 4.42773 3.64551 4.74023 3.64551H8.13763C8.40065 3.64551 8.63268 3.73136 8.83372 3.90306C9.03477 4.07459 9.16263 4.28657 9.21732 4.539L9.81445 7.60384C9.85577 7.88822 9.84709 8.13258 9.78841 8.33692C9.72956 8.54126 9.624 8.71287 9.47175 8.85176L7.06602 11.1937C7.45317 11.9027 7.89553 12.5735 8.3931 13.2059C8.89049 13.8382 9.42904 14.4421 10.0087 15.0176C10.5803 15.5893 11.1879 16.1202 11.8316 16.6104C12.4754 17.1005 13.1705 17.5565 13.9171 17.9786L16.2546 15.6208C16.4176 15.4512 16.615 15.3322 16.8467 15.264C17.0783 15.1959 17.3191 15.1793 17.5689 15.214L20.4613 15.8031C20.7243 15.8725 20.939 16.0067 21.1053 16.2057C21.2717 16.4046 21.3548 16.6303 21.3548 16.8827V20.2601C21.3548 20.5726 21.2497 20.833 21.0395 21.0413C20.8292 21.2497 20.5664 21.3538 20.2509 21.3538ZM6.32669 9.7153L8.18581 7.93639C8.21914 7.90966 8.24084 7.87294 8.25091 7.82624C8.26098 7.77954 8.25933 7.73613 8.24596 7.69603L7.7931 5.36816C7.77973 5.31487 7.75638 5.27485 7.72305 5.24811C7.68971 5.22138 7.64631 5.20801 7.59284 5.20801H5.36523C5.32513 5.20801 5.29171 5.22138 5.26497 5.24811C5.23841 5.27485 5.22513 5.30827 5.22513 5.34837C5.27843 6.06018 5.39492 6.78327 5.57461 7.51764C5.75412 8.25219 6.00482 8.98475 6.32669 9.7153ZM15.3892 18.7176C16.0796 19.0395 16.7998 19.2856 17.5496 19.4559C18.2996 19.6261 19.0004 19.7272 19.652 19.7593C19.6921 19.7593 19.7255 19.7459 19.7522 19.7192C19.779 19.6925 19.7923 19.6591 19.7923 19.6189V17.4275C19.7923 17.3741 19.779 17.3307 19.7522 17.2973C19.7255 17.264 19.6855 17.2406 19.6322 17.2273L17.4447 16.7825C17.4046 16.7691 17.3695 16.7675 17.3395 16.7775C17.3094 16.7876 17.2776 16.8093 17.2441 16.8426L15.3892 18.7176Z" fill="#FFF1E3"/>
</g>
</svg>
