<svg width="25" height="25" viewBox="0 0 25 25" fill="none" xmlns="http://www.w3.org/2000/svg">
<mask id="mask0_395_822" style="mask-type:alpha" maskUnits="userSpaceOnUse" x="0" y="0" width="25" height="25">
<rect width="25" height="25" fill="#D9D9D9"/>
</mask>
<g mask="url(#mask0_395_822)">
<path d="M4.48659 20.3125C3.96037 20.3125 3.51497 20.1302 3.15039 19.7656C2.78581 19.401 2.60352 18.9556 2.60352 18.4294V6.57057C2.60352 6.04436 2.78581 5.59896 3.15039 5.23438C3.51497 4.86979 3.96037 4.6875 4.48659 4.6875H20.5121C21.0383 4.6875 21.4837 4.86979 21.8483 5.23438C22.2129 5.59896 22.3952 6.04436 22.3952 6.57057V18.4294C22.3952 18.9556 22.2129 19.401 21.8483 19.7656C21.4837 20.1302 21.0383 20.3125 20.5121 20.3125H4.48659ZM12.4993 13.081L4.16602 7.75234V18.4294C4.16602 18.523 4.19605 18.5998 4.25612 18.6599C4.31619 18.72 4.39301 18.75 4.48659 18.75H20.5121C20.6057 18.75 20.6825 18.72 20.7426 18.6599C20.8026 18.5998 20.8327 18.523 20.8327 18.4294V7.75234L12.4993 13.081ZM12.4993 11.4583L20.6725 6.25H4.32617L12.4993 11.4583ZM4.16602 7.75234V6.25V18.4294C4.16602 18.523 4.19605 18.5998 4.25612 18.6599C4.31619 18.72 4.39301 18.75 4.48659 18.75H4.16602V7.75234Z" fill="#FFF1E3"/>
</g>
</svg>
