<svg width="38" height="109" viewBox="0 0 38 109" fill="none" xmlns="http://www.w3.org/2000/svg">
<path d="M4.067 15.6523C4.051 15.4498 4.19157 15.1713 4.27458 15.0219C4.27607 15.0191 4.27756 15.0163 4.27906 15.0134C4.29875 14.9774 4.31532 14.9401 4.33355 14.8982C4.37408 14.8041 4.43663 14.6586 4.60966 14.4177C4.64163 14.3351 4.67876 14.2466 4.71195 14.1677C5.0894 13.2808 5.58135 12.466 6.14314 11.6899C6.148 11.679 6.15295 11.6678 6.15795 11.6566C6.25445 11.4393 6.38015 11.1619 6.51191 11.0282C6.68191 10.8542 6.81466 10.7455 6.92492 10.6604C7.39548 10.061 7.87475 9.46639 8.30788 8.84223C8.39531 8.7165 8.48137 8.5886 8.56598 8.45789C8.61085 8.38857 8.65626 8.31693 8.69923 8.24766C8.81307 8.06416 8.92509 7.87586 9.03522 7.68417C9.07381 7.56029 9.10455 7.43785 9.13379 7.32402C9.17452 7.1646 9.2141 7.01936 9.26359 6.91629C9.38337 6.66701 9.61068 6.42519 9.77363 6.25477C9.80057 6.22644 9.82606 6.19965 9.84934 6.17463C9.93522 6.00956 10.0241 5.83902 10.1096 5.67543C10.1269 5.67152 10.1447 5.66779 10.1628 5.66404C10.373 5.62051 10.4799 5.47616 10.6332 5.24814L10.626 5.25997C10.6377 5.24199 10.6496 5.22362 10.6617 5.20489C10.7344 5.09281 10.8196 4.96202 10.9281 4.81861C11.0003 4.72244 11.0843 4.7039 11.1526 4.68805C11.1727 4.68341 11.192 4.67806 11.2089 4.67184C11.2667 4.65016 11.2593 4.5882 11.2505 4.51673C11.239 4.42377 11.2287 4.31045 11.35 4.24348C11.737 4.0226 11.7039 3.81386 11.6882 3.65924C11.6825 3.61485 11.6783 3.57374 11.6847 3.53767C11.7042 3.42371 11.8336 3.31286 11.9515 3.24258C12.0464 3.18479 12.1031 3.00333 12.1254 2.8581C12.1338 2.80305 12.1716 2.74242 12.2148 2.67144C12.2592 2.59903 12.3107 2.51232 12.342 2.41365C12.4207 2.16507 12.458 2.03995 12.4917 1.93145C12.501 1.90101 12.5102 1.87161 12.5193 1.84199C12.5284 1.81201 12.5392 1.77948 12.5515 1.74444C12.5777 1.66951 12.6102 1.58439 12.6462 1.49542C12.709 1.3394 12.7846 1.17167 12.842 1.04125C13.06 0.732202 13.3234 0.445104 13.5982 0.209825C13.7396 0.0882791 13.9203 0.0167694 14.0827 0.00268183C14.2462 -0.0113934 14.3784 0.0290805 14.4664 0.114965C14.5542 0.201566 14.5951 0.330138 14.6021 0.48107C14.6083 0.631512 14.5816 0.791179 14.5239 0.922025C14.4044 1.18742 14.3332 1.44978 14.287 1.72235C14.2546 1.90848 14.2315 2.10387 14.1956 2.32302C14.1676 2.49567 14.1267 2.69056 14.0729 2.87918C13.9876 3.17957 13.8839 3.46061 13.7704 3.73012C13.7591 3.75704 13.7474 3.78436 13.7354 3.81214C13.6996 4.06914 13.6609 4.31716 13.6137 4.48476C13.5761 4.62088 13.5067 4.69703 13.4453 4.76306C13.4037 4.80749 13.3672 4.84501 13.3477 4.8958C13.337 4.92341 13.3251 4.9603 13.3106 5.00491C13.2494 5.18989 13.1469 5.50252 12.9599 5.73233C12.8788 5.83118 12.758 5.93831 12.6427 6.03513C12.5319 6.13051 12.4294 6.21169 12.3608 6.29135L12.3529 6.30438C12.3178 6.34354 12.2934 6.38002 12.2848 6.41328C12.2413 6.58418 12.1174 6.7331 12.0068 6.86242C11.9021 6.98503 11.8061 7.09652 11.8114 7.19351C11.8173 7.31017 11.7555 7.36828 11.663 7.4535C11.599 7.51242 11.5201 7.58492 11.4375 7.70129C11.3426 7.835 11.2464 7.91049 11.1645 7.97424C11.0495 8.06331 10.9613 8.13166 10.9458 8.30459C10.9288 8.49655 10.8833 8.67747 10.7887 8.78337C10.7448 8.83283 10.709 8.89794 10.6719 8.96535C10.6227 9.05459 10.5711 9.14778 10.495 9.21436C10.4321 9.26957 10.3444 9.2904 10.2646 9.31212C10.2399 9.31863 10.2163 9.32491 10.1947 9.33176C10.1758 9.36344 10.157 9.39512 10.1384 9.4268C10.1245 9.45047 10.1107 9.47413 10.097 9.49783C10.1003 9.51204 10.1043 9.52727 10.1083 9.5431C10.1287 9.62251 10.1535 9.71988 10.1388 9.81179C10.1163 9.95589 10.0203 10.0421 9.92052 10.1297C9.84268 10.1982 9.7619 10.269 9.70887 10.3733C9.67333 10.4434 9.64491 10.5366 9.61774 10.6268C9.57717 10.7612 9.53709 10.8921 9.46726 10.9564C9.44107 10.9806 9.39161 10.9844 9.34236 10.9884C9.34208 10.9884 9.34181 10.9884 9.34153 10.9884C9.33816 10.9887 9.33485 10.989 9.33149 10.9893C9.23272 11.198 9.13965 11.4007 9.04433 11.6071C9.04191 11.6288 9.03925 11.6506 9.03656 11.6721C9.02341 11.7773 9.01055 11.8784 9.03168 11.9622C9.05448 12.0533 8.99761 12.2085 8.93279 12.3761C8.89102 12.4849 8.84789 12.5957 8.82507 12.6929C8.81215 12.7489 8.74751 12.7739 8.68215 12.7984C8.62101 12.8214 8.55869 12.845 8.53332 12.8968C8.52061 12.9227 8.51595 12.9563 8.51095 12.9919C8.50655 13.0233 8.50188 13.0563 8.49126 13.0873C8.48123 13.1162 8.42592 13.1578 8.35266 13.2159C8.30774 13.2512 8.25704 13.2911 8.20758 13.3348C8.1295 13.482 8.04989 13.6273 7.96602 13.774C7.97173 13.8185 7.98796 13.864 8.01749 13.9102C8.03867 13.9434 8.06745 13.9783 8.09672 14.0139C8.13654 14.0623 8.17747 14.1122 8.20233 14.1613C8.22175 14.1997 8.21835 14.2286 8.19336 14.2339C8.18176 14.2363 8.16546 14.234 8.15074 14.2319C8.13389 14.2295 8.1189 14.2274 8.11457 14.2335C8.11147 14.2379 8.11688 14.2478 8.12333 14.2599C8.13365 14.2792 8.14682 14.3041 8.13398 14.3215C8.08621 14.3865 8.02182 14.4529 7.95927 14.517C7.89015 14.5874 7.82132 14.6584 7.77797 14.723C7.72961 14.7948 7.61973 14.8701 7.51225 14.9438C7.43522 14.9985 7.35892 15.053 7.30349 15.1046C7.24902 15.1554 7.21845 15.222 7.18747 15.2873C7.14888 15.3682 7.11149 15.444 7.04016 15.4829C7.02573 15.4908 6.98328 15.4853 6.93056 15.4786C6.89319 15.4739 6.85057 15.4686 6.80903 15.4668C6.7532 15.5343 6.6906 15.6094 6.63092 15.6773C6.63288 15.6822 6.63485 15.6873 6.63689 15.6924C6.63695 15.6925 6.63701 15.6926 6.63708 15.6927C6.68359 15.8091 6.74252 15.9602 6.57065 16.0261C6.52757 16.0424 6.47816 16.0386 6.43396 16.0353C6.39055 16.032 6.35203 16.0292 6.32943 16.0458C6.30361 16.0649 6.30008 16.1017 6.29388 16.1443C6.28503 16.2046 6.27421 16.2704 6.20579 16.2993C6.20112 16.3013 6.19607 16.3034 6.1909 16.3056C6.14156 16.3274 6.07108 16.3558 5.97044 16.3716C5.82781 16.5142 5.68504 16.6526 5.54415 16.7872C5.30477 17.0187 5.06506 17.2492 4.83355 17.479C4.71555 17.5986 4.57156 17.6697 4.42027 17.7139C4.27063 17.7537 4.13939 17.7438 4.03707 17.6794C3.93105 17.6211 3.86127 17.5048 3.82709 17.3505C3.79617 17.1924 3.79209 17.0288 3.84301 16.8671C3.92134 16.6124 3.99184 16.364 4.06663 16.1084C4.06864 16.0942 4.0708 16.0798 4.07315 16.0655C4.09163 15.9579 4.08384 15.8455 4.07346 15.7319C4.07121 15.7056 4.06895 15.679 4.067 15.6523Z" fill="#833D2E"/>
<path d="M16.3491 44.0783C16.4451 43.8833 16.734 43.6852 16.8971 43.5826C16.9001 43.5807 16.903 43.5787 16.906 43.5768C16.9443 43.5523 16.9788 43.5262 17.0196 43.4953C17.1174 43.4223 17.2466 43.3213 17.5533 43.1719C17.6324 43.1086 17.71 43.0478 17.7908 42.9874C18.653 42.3378 19.5908 41.8204 20.5678 41.3862C20.5789 41.3785 20.5901 41.3707 20.6015 41.3629C20.6591 41.3231 20.721 41.2807 20.7849 41.2385C20.9619 41.1212 21.1526 41.0072 21.3039 40.9636C21.5624 40.8894 21.7481 40.8565 21.9014 40.8328C22.6909 40.5225 23.4852 40.2264 24.2553 39.8844C24.4125 39.8147 24.5694 39.7427 24.7245 39.6687C24.8072 39.6292 24.8897 39.589 24.9716 39.5482C25.1889 39.44 25.4046 39.3284 25.6188 39.2139C25.731 39.122 25.8341 39.0281 25.9303 38.9413C26.0651 38.8195 26.1861 38.7119 26.296 38.644C26.5614 38.4801 26.906 38.3838 27.1625 38.3122C27.2044 38.3005 27.2439 38.2895 27.2803 38.279C27.4604 38.175 27.6399 38.0711 27.821 37.9675C27.839 37.9727 27.8574 37.9784 27.876 37.9842C28.1087 38.0572 28.3072 37.9649 28.6192 37.825C28.7566 37.7633 28.9129 37.6939 29.106 37.6225C29.2287 37.5774 29.3181 37.604 29.39 37.6255C29.4111 37.6319 29.4309 37.6377 29.4497 37.6412C29.5145 37.6531 29.546 37.5957 29.587 37.5273C29.6397 37.4384 29.7003 37.3357 29.8543 37.3404C30.3392 37.3548 30.4544 37.1542 30.5421 37.0125C30.5441 37.0093 30.5461 37.006 30.5481 37.0028C30.5726 36.9642 30.5954 36.9298 30.6231 36.9043C30.719 36.8153 30.9092 36.7904 31.0619 36.7953C31.1848 36.7983 31.3635 36.6738 31.4912 36.5617C31.5408 36.5185 31.6157 36.4896 31.7104 36.4527C31.8053 36.4161 31.9177 36.3725 32.0247 36.3078C32.3005 36.1425 32.4508 36.0625 32.5717 35.9978C32.6063 35.9793 32.6381 35.9627 32.6697 35.946C32.7729 35.8916 32.9007 35.8339 33.0337 35.7756C33.192 35.7063 33.352 35.6388 33.4727 35.5797C33.8164 35.4975 34.1613 35.4203 34.5054 35.341C34.682 35.3008 34.8732 35.31 35.0327 35.3571C35.1926 35.405 35.3073 35.486 35.3591 35.5978C35.4108 35.7096 35.3976 35.8479 35.3295 35.9978C35.2611 36.1471 35.1435 36.2949 34.9983 36.3998C34.7046 36.6108 34.4158 36.8253 34.1247 37.0382C33.77 37.2972 33.414 37.5527 33.0472 37.7849C32.7902 37.9475 32.5296 38.1044 32.2665 38.2545C32.2389 38.2702 32.2129 38.285 32.1858 38.3003C31.9933 38.4886 31.8042 38.6735 31.6594 38.7875C31.5936 38.8396 31.5301 38.8712 31.4701 38.8927C31.4252 38.9086 31.3823 38.9185 31.342 38.9278C31.279 38.9422 31.2204 38.9558 31.1741 38.9872C31.1489 39.0042 31.1152 39.0293 31.0741 39.0598C30.9057 39.184 30.6226 39.3966 30.3175 39.4954C30.1805 39.5401 30.0139 39.5661 29.8499 39.5909C29.619 39.6248 29.3996 39.6533 29.3182 39.7264C29.1753 39.8551 28.9723 39.9244 28.7935 39.9831C28.6214 40.0401 28.4721 40.0879 28.4165 40.1771C28.3497 40.2838 28.2601 40.3034 28.1238 40.3328C28.029 40.3533 27.9143 40.3775 27.7702 40.4385C27.604 40.5089 27.4719 40.5272 27.3584 40.543C27.1997 40.5647 27.0791 40.5807 26.9611 40.7261C26.8299 40.8876 26.6776 41.0262 26.5269 41.0735C26.4581 41.0951 26.3871 41.1347 26.3131 41.1758C26.2152 41.2303 26.1121 41.2874 26.0026 41.3088C25.9124 41.3265 25.8184 41.3023 25.7352 41.2809C25.7092 41.2742 25.6843 41.2679 25.6609 41.2631C25.6249 41.2817 25.5891 41.3004 25.5533 41.3192C25.5266 41.3332 25.5 41.3474 25.4734 41.3616C25.4678 41.3759 25.4622 41.3915 25.4563 41.4076C25.4267 41.4885 25.3898 41.5879 25.3204 41.6628C25.2107 41.7812 25.0752 41.8086 24.9327 41.837C24.822 41.8589 24.7056 41.8823 24.5941 41.9495C24.5183 41.9952 24.4385 42.0633 24.3603 42.1301C24.2445 42.2292 24.1283 42.3271 24.0262 42.3504C23.9878 42.3591 23.9406 42.3381 23.8934 42.3175C23.8932 42.3174 23.8929 42.3172 23.8927 42.3171C23.8895 42.3157 23.8863 42.3143 23.8831 42.3129C23.6726 42.4488 23.4642 42.5859 23.2555 42.7236C23.2406 42.7418 23.2254 42.7599 23.2104 42.7778C23.1369 42.8651 23.0658 42.949 23.0344 43.035C23.0007 43.128 22.855 43.2403 22.7003 43.3575C22.6008 43.4334 22.4933 43.5135 22.4156 43.5896C22.3704 43.6339 22.2977 43.6245 22.2248 43.6144C22.1568 43.6051 22.0875 43.5957 22.035 43.6289C22.0348 43.6291 22.0345 43.6293 22.0342 43.6295C22.0072 43.6468 21.9831 43.6748 21.9575 43.7046C21.9349 43.7308 21.9112 43.7584 21.8833 43.7812C21.8574 43.8023 21.7814 43.8138 21.6826 43.8299C21.6219 43.8397 21.5536 43.8507 21.4838 43.8659C21.3258 43.9619 21.1682 44.0554 21.0107 44.146C20.9901 44.1891 20.9783 44.2381 20.9785 44.2941C20.9786 44.3343 20.9846 44.3796 20.9907 44.4258C20.9991 44.4886 21.0076 44.5533 21.0019 44.6097C20.9975 44.6537 20.9778 44.6782 20.9514 44.6714C20.9392 44.6682 20.9258 44.6583 20.9137 44.6493C20.8998 44.6391 20.8875 44.63 20.8802 44.6334C20.8749 44.6358 20.8742 44.6473 20.8733 44.6613C20.8719 44.6835 20.8699 44.7122 20.8486 44.7216C20.7698 44.7566 20.6732 44.7863 20.5793 44.8149C20.476 44.8461 20.3718 44.8786 20.298 44.9154C20.2146 44.957 20.0718 44.9736 19.9291 44.9919C19.8293 45.0047 19.7313 45.0173 19.6507 45.039C19.5724 45.0598 19.506 45.1068 19.4401 45.1526C19.362 45.2071 19.2861 45.2586 19.1987 45.2614C19.181 45.2619 19.1451 45.2373 19.1003 45.2069C19.0686 45.1854 19.0323 45.161 18.9945 45.1406C18.9015 45.1789 18.8097 45.2148 18.7153 45.2507C18.7144 45.2561 18.7134 45.2617 18.7124 45.2673C18.7124 45.2674 18.7124 45.2675 18.7124 45.2677C18.6915 45.3951 18.6579 45.563 18.4676 45.5429C18.4191 45.5382 18.3756 45.5123 18.3366 45.4892C18.2983 45.4666 18.2642 45.4466 18.234 45.4517C18.1997 45.4576 18.1735 45.4913 18.1453 45.5272C18.1057 45.5778 18.061 45.6327 17.9815 45.6287C17.976 45.6285 17.9702 45.6281 17.9642 45.6279C17.9071 45.6255 17.8229 45.622 17.7223 45.5908C17.516 45.6564 17.3086 45.7206 17.1004 45.7853C16.754 45.8928 16.4068 46.0015 16.0622 46.1166C15.8945 46.1721 15.7082 46.1833 15.5491 46.1544C15.3895 46.1249 15.2703 46.0586 15.2087 45.9546C15.1471 45.8505 15.1453 45.7127 15.1947 45.5558C15.2444 45.3998 15.342 45.2382 15.4699 45.1141C15.6791 44.9125 15.8876 44.7075 16.0965 44.5031C16.1064 44.4906 16.1164 44.4781 16.1264 44.4659C16.2015 44.3745 16.2565 44.2663 16.3116 44.1548C16.324 44.1294 16.3364 44.1038 16.3491 44.0783Z" fill="#833D2E"/>
<path d="M19.9885 72.2155C20.1799 72.1577 20.4784 72.2381 20.6402 72.2887C20.6431 72.2896 20.6461 72.2904 20.6491 72.2913C20.6876 72.303 20.7252 72.3108 20.7693 72.32C20.8742 72.3423 21.017 72.3695 21.2912 72.4911C21.3786 72.5056 21.4656 72.5213 21.5519 72.5385C22.4853 72.7227 23.371 73.0305 24.2313 73.4083C24.243 73.4108 24.2549 73.4132 24.267 73.4157C24.4993 73.4636 24.7868 73.5232 24.9458 73.623C25.1478 73.7498 25.2789 73.8543 25.3854 73.9431C26.0602 74.267 26.7338 74.5965 27.4266 74.8685C27.5684 74.9242 27.7107 74.9774 27.8542 75.0278C27.8971 75.0429 27.94 75.0577 27.983 75.0722C28.0167 75.0836 28.0504 75.0948 28.0841 75.1059C28.2878 75.1726 28.4932 75.2351 28.7001 75.2941C28.8291 75.3016 28.954 75.3014 29.0699 75.3017C29.2324 75.302 29.3773 75.3034 29.4898 75.3264C29.7611 75.3821 30.0394 75.5399 30.2468 75.6571C30.2807 75.6763 30.3126 75.6944 30.3423 75.7108C30.5229 75.7538 30.7037 75.7965 30.8844 75.8402C30.8924 75.8561 30.9004 75.8724 30.9084 75.8891C31.0085 76.0975 31.1926 76.1608 31.4812 76.266C31.607 76.3117 31.7526 76.3654 31.92 76.4416C32.0278 76.4907 32.0659 76.5696 32.097 76.6333C32.1062 76.6521 32.1148 76.6696 32.1244 76.6848C32.1573 76.7366 32.2162 76.7163 32.2857 76.6934C32.376 76.6633 32.4837 76.6296 32.5764 76.7359C32.8722 77.0719 33.0739 77.0034 33.225 76.9607C33.2694 76.9478 33.3094 76.9365 33.3465 76.9368C33.4667 76.9377 33.601 77.0481 33.6936 77.1557C33.7672 77.241 33.9619 77.2731 34.1167 77.2802C34.1751 77.2827 34.2442 77.3143 34.3255 77.352C34.4096 77.3912 34.5066 77.4365 34.618 77.4647C34.8994 77.5366 35.0461 77.5844 35.1638 77.6223C35.1974 77.6332 35.2285 77.6437 35.2598 77.654C35.3586 77.6867 35.4773 77.7355 35.5975 77.7871C35.7408 77.8487 35.8859 77.9141 35.9983 77.9571C36.2622 78.1407 36.5214 78.33 36.7799 78.5191C36.9122 78.6165 37.0185 78.759 37.0775 78.9045C37.1364 79.0509 37.1449 79.1878 37.0951 79.3004C37.0454 79.4132 36.9396 79.4974 36.7953 79.5518C36.6516 79.6055 36.4806 79.6239 36.3245 79.5946C36.0095 79.5343 35.6934 79.4819 35.3781 79.4293C34.9942 79.3651 34.6124 79.3009 34.2388 79.216C33.9776 79.1566 33.7181 79.0923 33.4607 79.0226C33.4342 79.0154 33.4077 79.0082 33.3812 79.0009C33.1422 79.007 32.9042 79.0132 32.7429 78.9992C32.6098 78.9877 32.5279 78.9349 32.4578 78.8886C32.4097 78.8568 32.3671 78.8283 32.3172 78.8199C32.2904 78.8154 32.2531 78.811 32.2081 78.8058C32.0247 78.7842 31.7125 78.7511 31.4594 78.6209C31.3472 78.563 31.2246 78.4708 31.1079 78.3807C30.941 78.252 30.7861 78.1277 30.6879 78.1275C30.5154 78.1275 30.3438 78.0442 30.1927 77.9686C30.0484 77.8967 29.9225 77.8325 29.8302 77.8614C29.7198 77.896 29.6494 77.8505 29.5449 77.7818C29.4724 77.7341 29.3835 77.6755 29.2533 77.6247C29.1029 77.566 29.0072 77.4914 28.9257 77.4275C28.811 77.3376 28.7252 77.2692 28.5557 77.2968C28.3677 77.3276 28.1809 77.3269 28.0549 77.2604C27.9974 77.2301 27.9266 77.2113 27.8531 77.1916C27.7557 77.1655 27.6529 77.1376 27.5701 77.0795C27.5018 77.0315 27.4586 76.9505 27.4205 76.8787C27.4153 76.869 27.4102 76.8595 27.4052 76.8502C27.3987 76.8381 27.3922 76.8266 27.3857 76.8157C27.351 76.8049 27.3162 76.7942 27.2814 76.7837C27.2554 76.7758 27.2294 76.768 27.2034 76.7603C27.1904 76.7669 27.1766 76.7744 27.1622 76.782C27.09 76.8204 27.0013 76.8674 26.9082 76.8744C26.7607 76.8853 26.6584 76.813 26.5507 76.7362C26.4667 76.6764 26.3798 76.6141 26.2655 76.5861C26.1875 76.5669 26.0933 76.5614 26.0001 76.5556C25.8614 76.547 25.7249 76.5373 25.646 76.4835C25.6164 76.4634 25.6012 76.4159 25.5862 76.3688C25.5862 76.3685 25.5862 76.3682 25.5861 76.3679C25.5851 76.3647 25.5841 76.3616 25.583 76.3584C25.3629 76.3106 25.1422 76.2639 24.9215 76.2169C24.9001 76.2194 24.8786 76.2217 24.8573 76.2239C24.7532 76.2347 24.6522 76.2444 24.575 76.2833C24.4914 76.3256 24.3254 76.3032 24.1513 76.2774C24.0374 76.2606 23.9196 76.2423 23.8191 76.2406C23.7602 76.2396 23.7241 76.1826 23.6868 76.1242C23.652 76.0697 23.6163 76.0141 23.5606 76.0005C23.5327 75.9937 23.4991 75.9963 23.4632 75.999C23.4316 76.0014 23.3982 76.0039 23.3656 76C23.3352 75.9964 23.2809 75.9505 23.2113 75.8922C23.1683 75.8561 23.1193 75.8153 23.0666 75.7764C22.9067 75.7314 22.7475 75.684 22.5896 75.6338C22.5475 75.6488 22.5066 75.6743 22.4675 75.7128C22.4396 75.7405 22.4115 75.7759 22.3828 75.812C22.3437 75.861 22.3033 75.9114 22.2602 75.9459C22.2266 75.9729 22.1973 75.9755 22.1867 75.9521C22.1817 75.9411 22.1808 75.9248 22.1799 75.91C22.1789 75.8931 22.1779 75.8781 22.1713 75.8752C22.1664 75.8731 22.158 75.8805 22.1477 75.8894C22.1312 75.9036 22.1099 75.9217 22.0906 75.913C22.0186 75.8803 21.9409 75.8314 21.865 75.7834C21.7806 75.73 21.698 75.6778 21.6276 75.6493C21.5487 75.6174 21.4529 75.5256 21.3568 75.435C21.2897 75.3717 21.2223 75.3088 21.1608 75.2653C21.1005 75.2226 21.0277 75.2059 20.9575 75.1889C20.8731 75.1687 20.7925 75.1481 20.74 75.0863C20.7294 75.0737 20.7261 75.0311 20.7218 74.9781C20.7187 74.9405 20.7151 74.8977 20.7081 74.8566C20.628 74.8147 20.5485 74.7712 20.4695 74.7264C20.4651 74.7294 20.4605 74.7323 20.456 74.7354C20.4559 74.7355 20.4558 74.7355 20.4557 74.7356C20.352 74.8051 20.213 74.8924 20.1183 74.7393C20.0942 74.7006 20.0881 74.6515 20.0824 74.6076C20.0769 74.5644 20.0718 74.5261 20.0508 74.5073C20.027 74.4859 19.9884 74.4892 19.9465 74.4922C19.8877 74.4965 19.8226 74.4998 19.7808 74.4387C19.778 74.4346 19.7749 74.4301 19.7717 74.4255C19.7412 74.3818 19.696 74.3174 19.6622 74.2228C19.499 74.1138 19.3367 74.0026 19.1746 73.8909C18.9044 73.7048 18.6347 73.5178 18.3631 73.3366C18.2311 73.2479 18.1215 73.1167 18.0557 72.9796C17.9901 72.8417 17.9732 72.7099 18.015 72.5965C18.0568 72.4831 18.1557 72.3921 18.2961 72.3269C18.4363 72.2624 18.6062 72.2297 18.7655 72.244C19.025 72.2679 19.2858 72.2884 19.5465 72.3086C19.5609 72.3077 19.5753 72.3069 19.5896 72.3063C19.6958 72.3017 19.8039 72.2713 19.9131 72.2383C19.9382 72.2307 19.9633 72.223 19.9885 72.2155Z" fill="#833D2E"/>
<path d="M2.39356 94.1493C2.58811 94.1837 2.81225 94.3882 2.93024 94.505C2.93246 94.5071 2.93468 94.5093 2.9369 94.5114C2.96523 94.539 2.99456 94.5628 3.02896 94.5906C3.11061 94.6574 3.22267 94.745 3.40635 94.9755C3.47622 95.0276 3.54506 95.0806 3.6126 95.1346C4.34359 95.7163 4.97546 96.3904 5.54771 97.1179C5.55677 97.1253 5.56599 97.133 5.5753 97.1406C5.75434 97.2883 5.97892 97.4757 6.06889 97.6356C6.18534 97.8412 6.24938 97.9936 6.29921 98.1206C6.73171 98.7183 7.1571 99.3231 7.62313 99.8909C7.71909 100.008 7.81505 100.121 7.91397 100.234C7.96709 100.294 8.02052 100.354 8.07431 100.413C8.21552 100.567 8.36382 100.724 8.5105 100.873C8.61707 100.941 8.72579 101.003 8.82445 101.059C8.96271 101.137 9.08717 101.21 9.17186 101.284C9.37446 101.461 9.53411 101.733 9.65266 101.935C9.67208 101.968 9.69031 101.999 9.70738 102.027C9.8383 102.149 9.97347 102.276 10.1042 102.398C10.103 102.415 10.1015 102.433 10.0999 102.451C10.0823 102.68 10.2044 102.82 10.4007 103.05C10.4846 103.148 10.5827 103.264 10.6878 103.408C10.7547 103.5 10.7486 103.586 10.7443 103.657C10.743 103.677 10.7419 103.696 10.7427 103.714C10.7454 103.775 10.8059 103.784 10.8762 103.796C10.9666 103.81 11.0774 103.833 11.1045 103.968C11.1939 104.396 11.4009 104.427 11.5519 104.458C11.5962 104.467 11.6359 104.475 11.6672 104.491C11.6818 104.499 11.6955 104.508 11.7084 104.52C11.789 104.592 11.8367 104.721 11.8616 104.836C11.8868 104.946 12.0372 105.056 12.1692 105.13C12.2182 105.157 12.2625 105.214 12.3166 105.283C12.3712 105.353 12.4345 105.434 12.5187 105.505C12.7302 105.686 12.8378 105.788 12.922 105.867C12.9471 105.891 12.97 105.913 12.9926 105.934C13.0624 106.001 13.146 106.092 13.2296 106.185C13.3263 106.292 13.4294 106.408 13.5078 106.485C13.664 106.746 13.8159 107.006 13.9724 107.248C14.0517 107.372 14.0919 107.523 14.1026 107.671C14.113 107.819 14.0922 107.955 14.0177 108.053C13.9434 108.151 13.8246 108.213 13.6667 108.226C13.5093 108.239 13.3276 108.196 13.185 108.111C12.8963 107.938 12.6223 107.765 12.3505 107.586C12.0201 107.368 11.6991 107.145 11.4009 106.905C11.1907 106.735 10.9871 106.561 10.7904 106.381C10.77 106.363 10.7496 106.344 10.729 106.325C10.5144 106.221 10.3011 106.116 10.1637 106.026C10.1506 106.018 10.1383 106.009 10.1268 106C10.0417 105.935 10.0004 105.861 9.96464 105.794C9.93616 105.742 9.91342 105.698 9.87391 105.668C9.85271 105.651 9.82224 105.63 9.78519 105.604C9.63234 105.495 9.37708 105.319 9.2207 105.083C9.14858 104.976 9.0918 104.841 9.0334 104.704C8.95162 104.511 8.88138 104.331 8.79521 104.281C8.64899 104.2 8.53979 104.042 8.44932 103.905C8.36254 103.774 8.28433 103.655 8.19173 103.636C8.08063 103.613 8.04334 103.54 7.98782 103.43C7.9486 103.352 7.9033 103.26 7.81764 103.153C7.71855 103.03 7.67325 102.918 7.63663 102.825C7.58457 102.693 7.5439 102.591 7.38615 102.534C7.21156 102.472 7.05067 102.38 6.97724 102.263C6.94376 102.21 6.89301 102.16 6.84 102.108C6.77 102.039 6.69507 101.965 6.65428 101.877C6.62013 101.803 6.62364 101.713 6.6267 101.633C6.62765 101.608 6.62849 101.584 6.62819 101.562C6.60377 101.536 6.57921 101.51 6.55448 101.484C6.53597 101.465 6.51756 101.446 6.49929 101.427C6.48499 101.427 6.46954 101.427 6.4535 101.427C6.37304 101.426 6.27417 101.426 6.19103 101.388C6.05942 101.328 6.00675 101.217 5.95292 101.101C5.91067 101.01 5.86654 100.915 5.7817 100.837C5.72366 100.784 5.64651 100.736 5.56916 100.688C5.45465 100.616 5.34087 100.544 5.29956 100.461C5.28407 100.43 5.29419 100.381 5.30428 100.334C5.30437 100.333 5.30446 100.333 5.30456 100.333C5.30525 100.33 5.30588 100.326 5.30655 100.323C5.14072 100.18 4.97226 100.037 4.80526 99.8954C4.78559 99.8878 4.76589 99.8799 4.74644 99.8721C4.65148 99.8337 4.55882 99.7951 4.47395 99.7944C4.38169 99.7933 4.24976 99.6985 4.11132 99.5964C4.02025 99.5291 3.92826 99.4607 3.84203 99.4135C3.79172 99.386 3.7877 99.3197 3.78327 99.2516C3.77917 99.1881 3.77465 99.1231 3.73275 99.0857C3.71177 99.067 3.68162 99.0544 3.64932 99.0406C3.62091 99.0284 3.5909 99.0156 3.56449 98.9975C3.53997 98.9806 3.51488 98.916 3.4822 98.8334C3.46201 98.7823 3.43887 98.7243 3.41149 98.6662C3.29431 98.5546 3.17915 98.4419 3.06535 98.3263C3.02166 98.3206 2.97403 98.3244 2.92188 98.3407C2.88442 98.3523 2.84339 98.3709 2.80145 98.3897C2.74438 98.4153 2.68559 98.4415 2.63196 98.4525C2.59005 98.4611 2.56346 98.4503 2.5653 98.425C2.56617 98.4132 2.57307 98.3984 2.57928 98.3851C2.5864 98.3697 2.5927 98.3561 2.58828 98.3506C2.58508 98.3466 2.57427 98.3493 2.56113 98.3525C2.54016 98.3576 2.51309 98.3641 2.50044 98.3477C2.45336 98.2868 2.40894 98.209 2.3654 98.1326C2.31701 98.0477 2.27032 97.9654 2.22243 97.9089C2.16891 97.8456 2.12876 97.7221 2.08736 97.5991C2.05867 97.5134 2.02974 97.4283 1.99658 97.3625C1.9641 97.2981 1.90854 97.2508 1.85521 97.2045C1.79108 97.149 1.73031 97.0947 1.71367 97.0171C1.7103 97.0014 1.7274 96.9623 1.74843 96.9137C1.76334 96.8793 1.78018 96.8399 1.79335 96.8006C1.7431 96.7281 1.69403 96.6543 1.64591 96.5795C1.64068 96.5801 1.63533 96.5807 1.6299 96.5814C1.62979 96.5814 1.62968 96.5814 1.62957 96.5815C1.50649 96.5964 1.34462 96.6116 1.33348 96.4346C1.33046 96.3897 1.34799 96.3437 1.36354 96.3025C1.37881 96.262 1.39225 96.2259 1.38268 96.2C1.3718 96.1705 1.33653 96.1562 1.29857 96.1402C1.24518 96.1178 1.18662 96.0915 1.17865 96.0193C1.17809 96.0143 1.17753 96.009 1.17687 96.0035C1.17055 95.9515 1.16107 95.8746 1.17558 95.7761C1.08366 95.6074 0.993245 95.4368 0.903491 95.2664C0.753599 94.9819 0.604495 94.6971 0.45064 94.4162C0.376244 94.2793 0.341171 94.1148 0.347046 93.9644C0.353553 93.8134 0.399885 93.6895 0.489044 93.6079C0.5782 93.5263 0.706953 93.4899 0.860164 93.4947C1.01275 93.5 1.17659 93.5467 1.30945 93.63C1.52573 93.7667 1.74427 93.9005 1.96338 94.0347C1.9764 94.0403 1.98939 94.0461 2.00219 94.0519C2.09736 94.0951 2.20613 94.1165 2.31702 94.1359C2.34248 94.1404 2.36808 94.1448 2.39356 94.1493Z" fill="#833D2E"/>
</svg>
