<svg width="53" height="120" viewBox="0 0 53 120" fill="none" xmlns="http://www.w3.org/2000/svg">
<path d="M46.1055 20.1051C45.8756 20.0136 45.5911 19.7078 45.4399 19.5353C45.4371 19.5321 45.4342 19.529 45.4314 19.5259C45.3953 19.4851 45.3584 19.4488 45.3152 19.4062C45.2126 19.3043 45.0717 19.1686 44.8311 18.8415C44.7438 18.7604 44.6576 18.6784 44.5727 18.5954C43.6541 17.7004 42.8407 16.7196 42.0895 15.688C42.078 15.6766 42.0664 15.6649 42.0547 15.6532C41.8277 15.4259 41.5472 15.1433 41.4222 14.9239C41.2633 14.645 41.1707 14.4431 41.0971 14.2752C40.5237 13.4369 39.9582 12.5922 39.3505 11.7818C39.2263 11.6161 39.1002 11.4518 38.9721 11.2892C38.9039 11.2026 38.835 11.1165 38.7655 11.0309C38.5815 10.8041 38.3942 10.5798 38.2044 10.3577C38.072 10.2462 37.9404 10.1449 37.8186 10.0506C37.6476 9.9182 37.4961 9.7996 37.389 9.687C37.1308 9.41573 36.915 9.04518 36.7547 8.77012C36.7285 8.72516 36.7037 8.68269 36.6806 8.64365C36.5124 8.45847 36.3439 8.27344 36.1762 8.08793C36.1755 8.06699 36.1751 8.04562 36.1747 8.02385C36.1705 7.75218 36.0087 7.54597 35.7575 7.21849C35.6481 7.07593 35.5217 6.91033 35.383 6.7071C35.2937 6.57609 35.2915 6.47325 35.2891 6.38965C35.2884 6.36505 35.2877 6.34203 35.2848 6.32046C35.275 6.24656 35.2036 6.21848 35.1201 6.18469C35.0114 6.14101 34.8828 6.08719 34.8359 5.91581C34.6839 5.37172 34.4391 5.27698 34.2612 5.19941C34.2087 5.17692 34.1614 5.15627 34.1227 5.12727C33.9971 5.03319 33.9071 4.82655 33.8586 4.65444C33.8202 4.51795 33.6296 4.33773 33.4699 4.21336C33.4094 4.16641 33.3508 4.08397 33.282 3.98678C33.2108 3.88615 33.1284 3.76975 33.0231 3.65918C32.7576 3.37937 32.623 3.22538 32.5145 3.10181C32.4836 3.06651 32.455 3.03349 32.4264 3.00059C32.3359 2.89663 32.2303 2.76213 32.1246 2.62502C31.998 2.46096 31.8711 2.29316 31.7687 2.17027C31.5633 1.80284 31.3607 1.43303 31.1555 1.06543C31.0505 0.876332 30.9901 0.661906 30.98 0.475842C30.9706 0.289267 31.0115 0.146788 31.107 0.0689326C31.2025 -0.00891636 31.3489 -0.0191722 31.5273 0.0295624C31.7051 0.0788588 31.8998 0.183699 32.0606 0.327317C32.3839 0.617214 32.7104 0.90463 33.0339 1.19441C33.4278 1.54753 33.8174 1.90418 34.1864 2.2776C34.4445 2.53886 34.697 2.80468 34.9437 3.07523C34.9691 3.10308 34.9944 3.13102 35.0197 3.15898C35.2799 3.34309 35.5383 3.52787 35.705 3.67063C35.8427 3.78845 35.9064 3.90421 35.9601 4.00407C35.9972 4.07276 36.0296 4.13381 36.079 4.18198C36.1056 4.20784 36.1434 4.24196 36.189 4.28309C36.3748 4.4513 36.6923 4.73541 36.8996 5.06177C36.9915 5.20661 37.0778 5.39162 37.1584 5.56968C37.2739 5.82412 37.3778 6.06445 37.4811 6.14429C37.6628 6.28431 37.8033 6.50023 37.9258 6.69236C38.0428 6.87548 38.144 7.03656 38.2547 7.08483C38.387 7.14246 38.439 7.2413 38.5153 7.38894C38.5683 7.49133 38.6331 7.61713 38.7448 7.76889C38.8737 7.94408 38.938 8.08999 38.9924 8.21423C39.0689 8.38909 39.1259 8.52117 39.3162 8.63199C39.5277 8.75506 39.7225 8.90515 39.8222 9.06709C39.8676 9.14084 39.9326 9.21467 40 9.29152C40.0894 9.39327 40.1831 9.50045 40.2421 9.62003C40.2907 9.71858 40.2972 9.82745 40.303 9.92384C40.3047 9.9539 40.3065 9.98271 40.3094 10.0097C40.3407 10.0472 40.372 10.0846 40.4035 10.122C40.4269 10.1499 40.4505 10.1777 40.4742 10.2055C40.4909 10.2097 40.5088 10.2137 40.5275 10.218C40.6213 10.2397 40.7363 10.2665 40.8372 10.3336C40.9967 10.4399 41.07 10.5876 41.147 10.7436C41.2069 10.865 41.2692 10.9915 41.3762 11.1074C41.4492 11.1865 41.5456 11.2656 41.641 11.3443C41.7827 11.461 41.9218 11.5769 41.98 11.6888C42.0018 11.7307 41.9959 11.7869 41.9899 11.8426C41.9899 11.8428 41.9898 11.8431 41.9897 11.8434C41.9893 11.8472 41.989 11.8509 41.9886 11.8547C42.1984 12.0717 42.4097 12.2876 42.621 12.5034C42.6447 12.5177 42.6685 12.5323 42.692 12.5468C42.8067 12.6178 42.9177 12.6872 43.0169 12.7107C43.1243 12.736 43.2892 12.8857 43.4614 13.0447C43.5742 13.1488 43.6902 13.2569 43.7957 13.3363C43.8574 13.3827 43.87 13.4642 43.8831 13.5479C43.8953 13.6261 43.9081 13.7061 43.9609 13.7619C43.9874 13.7898 44.0242 13.8133 44.0634 13.8385C44.0979 13.8606 44.1343 13.884 44.1671 13.9129C44.1976 13.9397 44.2345 14.0247 44.2822 14.1334C44.3117 14.2006 44.3453 14.2769 44.3838 14.3543C44.5331 14.52 44.6807 14.6872 44.8261 14.8562C44.8774 14.8744 44.9321 14.8818 44.9906 14.8753C45.0326 14.8706 45.0781 14.8587 45.1246 14.8466C45.1878 14.8303 45.2529 14.8135 45.3139 14.814C45.3616 14.8143 45.3938 14.8343 45.3947 14.8646C45.3951 14.8788 45.3889 14.895 45.3832 14.9096C45.3768 14.9264 45.3711 14.9413 45.3769 14.9492C45.3811 14.9549 45.3934 14.9543 45.4082 14.9538C45.432 14.953 45.4626 14.9521 45.4792 14.9753C45.5411 15.0614 45.6019 15.1672 45.6613 15.2708C45.7273 15.3861 45.7919 15.4988 45.8541 15.5797C45.9239 15.6704 45.9851 15.8307 46.0476 15.9904C46.0911 16.1019 46.1351 16.2131 46.1815 16.3015C46.2269 16.3882 46.297 16.4598 46.3643 16.5296C46.4453 16.6134 46.5221 16.6947 46.5509 16.7936C46.5567 16.8136 46.5416 16.8567 46.523 16.9104C46.5098 16.9485 46.495 16.992 46.4845 17.0364C46.5515 17.1375 46.6173 17.2397 46.6819 17.3428C46.6879 17.3434 46.6941 17.344 46.7003 17.3446C46.7004 17.3446 46.7005 17.3446 46.7007 17.3446C46.8415 17.3577 47.0277 17.3809 47.0619 17.599C47.0708 17.6543 47.056 17.7058 47.0429 17.7519C47.03 17.7972 47.0187 17.8376 47.0329 17.8716C47.0491 17.9102 47.0917 17.9365 47.1376 17.9657C47.2022 18.0065 47.2731 18.0532 47.2912 18.1433C47.2924 18.1494 47.2937 18.1561 47.2952 18.1629C47.3088 18.2278 47.329 18.3238 47.324 18.4398C47.451 18.6684 47.576 18.8985 47.7008 19.1289C47.9088 19.5129 48.1162 19.8975 48.3282 20.2781C48.431 20.4636 48.4915 20.6726 48.5027 20.8539C48.5133 21.0357 48.4743 21.1745 48.3807 21.2509C48.287 21.3273 48.1419 21.3385 47.9636 21.2935C47.7859 21.248 47.5901 21.1494 47.4259 21.014C47.1587 20.7927 46.8887 20.5736 46.6185 20.3547C46.6027 20.3446 46.587 20.3343 46.5714 20.324C46.4558 20.247 46.327 20.1932 46.1959 20.1411C46.1658 20.1292 46.1356 20.1172 46.1055 20.1051Z" fill="#833D2E"/>
<path d="M27.7655 43.7579C27.4885 43.7778 27.0291 43.6257 26.7792 43.5359C26.7745 43.5343 26.7699 43.5327 26.7653 43.5311C26.7059 43.5101 26.6485 43.4934 26.5812 43.4739C26.4206 43.4268 26.2021 43.3658 25.7731 43.175C25.6397 43.14 25.5069 43.1038 25.3749 43.0661C23.949 42.6615 22.5723 42.1321 21.223 41.5306C21.205 41.5253 21.1867 41.5199 21.1683 41.5145C20.8135 41.4106 20.3695 41.2794 20.1182 41.1369C19.794 40.9538 19.5847 40.8127 19.4113 40.6928C18.349 40.1894 17.2928 39.6801 16.2131 39.2249C15.9902 39.131 15.7735 39.0421 15.5482 38.953C15.4291 38.9059 15.3104 38.8598 15.192 38.8149C14.875 38.6944 14.5623 38.5803 14.2402 38.4669C14.0444 38.4278 13.8591 38.3992 13.6825 38.3705C13.4363 38.331 13.2219 38.2967 13.0478 38.245C12.6356 38.123 12.2016 37.8925 11.8749 37.7211C11.8221 37.6933 11.7725 37.6671 11.7267 37.6433C11.4493 37.5569 11.1797 37.4743 10.9003 37.3881C10.8865 37.3697 10.8727 37.3508 10.8587 37.3315C10.6868 37.0914 10.4032 36.9852 9.95735 36.8167C9.88817 36.7906 9.81562 36.7632 9.73972 36.7339C9.59815 36.6796 9.44656 36.6194 9.28237 36.5492C9.11199 36.4768 9.04514 36.3875 8.98989 36.3151C8.97369 36.2938 8.95853 36.2739 8.94235 36.2564C8.88643 36.1963 8.79879 36.2066 8.69921 36.2192C8.56963 36.2356 8.41684 36.254 8.26039 36.127C7.76572 35.727 7.47435 35.7721 7.26053 35.7976C7.1964 35.8052 7.13891 35.8119 7.08419 35.8071C6.90963 35.7922 6.68741 35.6599 6.52806 35.5371C6.40138 35.4394 6.10612 35.386 5.87619 35.3654C5.78762 35.3573 5.68318 35.3196 5.55143 35.273C5.41892 35.2257 5.26281 35.1708 5.09359 35.1349C4.66174 35.0425 4.42985 34.9861 4.24808 34.9421C4.19489 34.9291 4.14584 34.917 4.09715 34.905C3.94402 34.8676 3.75308 34.8121 3.56106 34.7548C3.33003 34.686 3.09782 34.6144 2.91596 34.5658C2.46894 34.3662 2.01861 34.1581 1.57209 33.9415C1.34284 33.8299 1.14029 33.6696 1.00793 33.5085C0.876199 33.3467 0.823522 33.1985 0.864458 33.0824C0.905603 32.9662 1.03833 32.8864 1.23556 32.84C1.4332 32.7948 1.67984 32.787 1.92092 32.8269C2.40647 32.9083 2.89722 32.9737 3.39019 33.0398C3.99067 33.1204 4.59965 33.2048 5.20009 33.3211C5.62142 33.4027 6.04177 33.4943 6.45875 33.5965C6.50326 33.6075 6.54386 33.6175 6.5868 33.6283C6.95966 33.6501 7.32286 33.6739 7.58134 33.7134C7.78673 33.7434 7.9328 33.8144 8.04702 33.8731C8.12777 33.9142 8.20003 33.9513 8.28053 33.9688C8.32445 33.9784 8.38049 33.9882 8.45117 34.0012C8.74424 34.0559 9.22834 34.1445 9.64413 34.3329C9.82449 34.415 10.0323 34.5386 10.2229 34.6571C10.2886 34.6976 10.3538 34.738 10.4172 34.7765C10.6119 34.8967 10.7907 34.9977 10.905 35.0138C11.1647 35.0495 11.4416 35.1769 11.6795 35.2901C11.9125 35.3999 12.1054 35.4943 12.244 35.4855C12.4094 35.475 12.5191 35.5383 12.6856 35.6352C12.8011 35.7024 12.9447 35.7859 13.1451 35.8693C13.3789 35.9665 13.5334 36.0686 13.662 36.1549C13.8443 36.2768 13.9842 36.3706 14.2337 36.3806C14.5139 36.3929 14.7937 36.4376 14.9903 36.538C15.0795 36.5836 15.1907 36.6214 15.3012 36.6589C15.4491 36.7092 15.6057 36.7629 15.7376 36.8446C15.8468 36.9121 15.918 37.0072 15.9833 37.0922C16.0035 37.1187 16.023 37.1441 16.0425 37.1673C16.0957 37.1869 16.149 37.2064 16.2026 37.2259C16.2426 37.2404 16.2827 37.2549 16.3229 37.2693C16.3416 37.2654 16.3617 37.2608 16.3821 37.256C16.4848 37.2319 16.6114 37.2027 16.7498 37.2171C16.9692 37.2402 17.1313 37.3411 17.3004 37.4472C17.4322 37.53 17.5724 37.6174 17.7454 37.6734C17.8635 37.7115 18.0047 37.7392 18.1452 37.7671C18.3552 37.8092 18.5576 37.8499 18.6827 37.9255C18.7294 37.9537 18.7582 38.0078 18.7867 38.0614C18.7868 38.0617 18.7869 38.062 18.787 38.0623C18.7889 38.0659 18.7909 38.0695 18.7928 38.0732C19.1287 38.1752 19.4636 38.2753 19.7989 38.3757C19.8304 38.3778 19.8621 38.3803 19.8936 38.3828C20.0473 38.395 20.197 38.4078 20.3073 38.384C20.4277 38.3586 20.6752 38.419 20.9393 38.4863C21.1127 38.5305 21.2891 38.5759 21.4393 38.6004C21.5271 38.6148 21.5889 38.6838 21.6528 38.7545C21.7122 38.8205 21.7741 38.8882 21.8583 38.915C21.9007 38.9284 21.9503 38.9331 22.0033 38.9383C22.05 38.9428 22.0993 38.9476 22.1486 38.9591C22.1943 38.9697 22.2816 39.0308 22.3942 39.1089C22.464 39.1573 22.5421 39.2115 22.6261 39.2648C22.8699 39.3483 23.1165 39.4354 23.3577 39.5236C23.4182 39.5169 23.4755 39.4988 23.528 39.4663C23.5656 39.443 23.6023 39.4114 23.6399 39.3792C23.691 39.3355 23.7438 39.2906 23.803 39.2634C23.8493 39.2421 23.8926 39.2458 23.9119 39.2732C23.9209 39.286 23.9248 39.3037 23.9283 39.3197C23.9323 39.338 23.9359 39.3543 23.9463 39.3589C23.9538 39.3622 23.9653 39.3561 23.9794 39.3489C24.0018 39.3374 24.031 39.3228 24.061 39.3364C24.1726 39.3871 24.2951 39.4564 24.4154 39.5245C24.5489 39.6002 24.6808 39.6747 24.7892 39.7204C24.9111 39.7719 25.0672 39.891 25.2245 40.0093C25.3344 40.092 25.444 40.174 25.5421 40.234C25.6383 40.2929 25.7493 40.3268 25.8567 40.3604C25.9857 40.4007 26.1094 40.4406 26.1967 40.5182C26.2143 40.5339 26.2257 40.5803 26.2402 40.6379C26.2505 40.6788 26.2625 40.7254 26.2791 40.7709C26.4049 40.8333 26.5303 40.8974 26.6553 40.9628C26.6615 40.9606 26.6678 40.9585 26.6742 40.9562C26.6743 40.9562 26.6744 40.9561 26.6745 40.956C26.8184 40.9044 27.012 40.8413 27.1769 41.026C27.2189 41.0727 27.2357 41.1267 27.2509 41.1749C27.2659 41.2224 27.2794 41.2645 27.3137 41.2893C27.3526 41.3174 27.4098 41.3224 27.4717 41.3283C27.5586 41.3365 27.6552 41.3473 27.727 41.4218C27.7319 41.4269 27.7372 41.4324 27.7427 41.438C27.795 41.4914 27.8726 41.5703 27.9379 41.6791C28.1988 41.8317 28.4578 41.9861 28.7178 42.1414C29.15 42.3998 29.5826 42.6593 30.017 42.9129C30.2282 43.0367 30.4125 43.2012 30.5326 43.3626C30.6525 43.5247 30.6986 43.6697 30.6541 43.7821C30.6097 43.8945 30.4764 43.9703 30.2769 44.0095C30.0778 44.048 29.8293 44.0458 29.589 43.9957C29.1974 43.9132 28.8045 43.8341 28.4116 43.7552C28.3902 43.753 28.3688 43.7507 28.3476 43.7482C28.1896 43.7299 28.0327 43.7387 27.8746 43.7501C27.8383 43.7527 27.8019 43.7554 27.7655 43.7579Z" fill="#833D2E"/>
<path d="M27.1797 79.6229C27.0505 79.7889 26.7391 79.9139 26.5692 79.975C26.5661 79.9762 26.563 79.9773 26.5599 79.9785C26.5195 79.9934 26.4824 80.0107 26.439 80.031C26.3377 80.0782 26.1916 80.148 25.8783 80.2238C25.7937 80.2671 25.7091 80.309 25.6244 80.3492C24.6989 80.7886 23.7345 81.0977 22.7464 81.3297C22.7347 81.335 22.7228 81.3404 22.7107 81.3458C22.4813 81.4504 22.187 81.5818 21.9868 81.5999C21.7333 81.6225 21.5522 81.6199 21.4026 81.6147C20.6097 81.7698 19.8161 81.9143 19.0334 82.1123C18.8758 82.152 18.7112 82.1963 18.5552 82.2407C18.4707 82.2648 18.3917 82.288 18.3047 82.3145C18.0766 82.3841 17.8675 82.452 17.6407 82.5288C17.5198 82.5997 17.4091 82.6735 17.3079 82.7411C17.1604 82.8377 17.0287 82.9226 16.9165 82.9696C16.6407 83.0845 16.3048 83.118 16.0461 83.1458C16.0047 83.1501 15.9658 83.1541 15.9302 83.158C15.7516 83.227 15.5536 83.3023 15.3757 83.3706C15.3596 83.3623 15.3421 83.3539 15.3249 83.345C15.1084 83.2356 14.9141 83.2904 14.5953 83.3761C14.4649 83.4109 14.2922 83.4573 14.1078 83.4925C13.9802 83.5178 13.9011 83.4762 13.8363 83.4429C13.8173 83.433 13.7996 83.4239 13.7825 83.4172C13.7255 83.394 13.6831 83.4465 13.6354 83.5068C13.5713 83.586 13.5079 83.6744 13.3569 83.6462C12.901 83.5515 12.7601 83.732 12.6632 83.8557C12.634 83.8927 12.603 83.9273 12.5716 83.9495C12.471 84.0211 12.2944 84.0135 12.1449 83.9871C12.0954 83.9745 12.0147 83.9943 11.9513 84.0216L12.0106 83.9991C11.9441 84.0343 11.8767 84.087 11.8217 84.1392C11.7816 84.1773 11.7144 84.2025 11.6332 84.2348C11.5492 84.268 11.4503 84.309 11.3518 84.3749C11.1021 84.542 10.9507 84.631 10.8289 84.6998C10.794 84.7195 10.7609 84.7376 10.7276 84.7558C10.6224 84.8132 10.4838 84.8762 10.337 84.9345C10.3346 84.9355 10.3322 84.9364 10.3299 84.9374C10.1557 85.0066 9.98047 85.0645 9.85005 85.1123C9.48134 85.1649 9.12617 85.1859 8.78046 85.2015C8.60264 85.2091 8.42161 85.1632 8.27838 85.086C8.13496 85.008 8.04047 84.906 8.01053 84.7866C7.98062 84.667 8.01693 84.5344 8.10636 84.4011C8.19602 84.2686 8.33109 84.1473 8.48219 84.0723C8.7869 83.9222 9.08011 83.7634 9.34746 83.5958C9.45657 83.5275 9.56143 83.4577 9.66075 83.3871C9.85888 83.2468 10.0574 83.0931 10.2795 82.9364C10.5128 82.7719 10.7708 82.5981 11.064 82.4385C11.0942 82.4221 11.1247 82.4059 11.1556 82.3898C11.1965 82.3542 11.2383 82.3188 11.2808 82.2841L11.363 82.253C11.541 82.1224 11.6944 82.0091 11.8266 81.9336C11.9486 81.861 12.061 81.8505 12.1497 81.8451C12.2121 81.8409 12.2738 81.8356 12.3196 81.813C12.3456 81.8004 12.3809 81.7812 12.4249 81.7577C12.6052 81.6617 12.9016 81.4997 13.2092 81.452C13.3422 81.4319 13.5132 81.4313 13.6678 81.4359C13.8993 81.4389 14.1041 81.4503 14.1954 81.3911C14.3537 81.2874 14.549 81.256 14.7337 81.2267C14.9007 81.2013 15.0531 81.1788 15.1204 81.1002C15.199 81.0067 15.2847 81.0036 15.4193 80.9978C15.5117 80.9941 15.6304 80.9881 15.7719 80.9543C15.9379 80.9145 16.0712 80.9178 16.1811 80.922C16.3329 80.9288 16.4489 80.9342 16.5849 80.8113C16.7371 80.6742 16.895 80.567 17.0487 80.5458C17.1177 80.5365 17.1943 80.5091 17.2681 80.4825C17.3678 80.4466 17.474 80.4088 17.5822 80.4067C17.6711 80.4051 17.76 80.4444 17.835 80.4804C17.8584 80.4916 17.8808 80.5023 17.9021 80.5112C17.9385 80.4995 17.975 80.4876 18.0115 80.4756C18.0388 80.4666 18.0662 80.4574 18.0936 80.4482C18.101 80.4351 18.1087 80.4208 18.1168 80.4061C18.1572 80.3319 18.2073 80.2409 18.286 80.1793C18.4111 80.0817 18.5384 80.0807 18.6796 80.0779C18.7885 80.0761 18.9045 80.0734 19.0217 80.0273C19.0998 79.9963 19.1843 79.9444 19.269 79.8929C19.3946 79.8166 19.5218 79.7411 19.6239 79.7365C19.6613 79.735 19.7028 79.7642 19.7441 79.7931C19.7443 79.7933 19.7445 79.7935 19.7447 79.7937C19.7475 79.7956 19.7503 79.7975 19.7531 79.7995C19.9695 79.7061 20.1983 79.607 20.4143 79.5118C20.4311 79.4968 20.4482 79.4819 20.4652 79.4673C20.5482 79.3956 20.6299 79.3262 20.6733 79.2479C20.7193 79.1634 20.8824 79.0784 21.0444 78.9939C21.1522 78.938 21.265 78.8806 21.3536 78.8202C21.4054 78.7848 21.4723 78.808 21.5412 78.8314C21.6062 78.8532 21.6701 78.8759 21.7259 78.8528C21.7539 78.8412 21.781 78.8185 21.81 78.7944C21.8356 78.7732 21.8627 78.7508 21.8932 78.7338C21.9215 78.7181 21.9964 78.7212 22.093 78.7247C22.1527 78.7268 22.2206 78.729 22.291 78.7272C22.4597 78.6636 22.6205 78.6048 22.7891 78.5467C22.816 78.5087 22.8356 78.4632 22.8454 78.4084C22.8524 78.3691 22.8547 78.3236 22.8571 78.2772C22.8604 78.2141 22.864 78.1491 22.8799 78.095C22.8924 78.0527 22.9162 78.0324 22.9402 78.0444C22.9514 78.0499 22.9624 78.0623 22.9724 78.0734C22.9839 78.0862 22.9942 78.0975 23.0018 78.0957C23.0073 78.0943 23.0101 78.0832 23.0135 78.0697C23.0192 78.0482 23.0258 78.0207 23.0476 78.0158C23.1287 77.9975 23.225 77.9884 23.3198 77.9795C23.4253 77.9696 23.529 77.9597 23.6078 77.9384C23.6955 77.9147 23.8392 77.9266 23.9755 77.9395C24.0718 77.9482 24.1685 77.9561 24.2485 77.9523C24.3268 77.9485 24.4001 77.9164 24.4715 77.8858C24.5571 77.8491 24.6407 77.8147 24.7251 77.8306C24.7418 77.834 24.7712 77.8657 24.8079 77.9049C24.8339 77.9328 24.8637 77.9644 24.8952 77.9925C24.9894 77.9759 25.0845 77.9608 25.1805 77.9468C25.1824 77.9417 25.1845 77.9365 25.1865 77.9312C25.1865 77.9311 25.1865 77.931 25.1866 77.9309C25.232 77.8113 25.2967 77.6555 25.4758 77.7166C25.5212 77.7319 25.5577 77.7667 25.5904 77.7977C25.6227 77.8282 25.6512 77.8552 25.6807 77.857C25.7142 77.8591 25.7449 77.8324 25.7786 77.804C25.8259 77.764 25.8793 77.7208 25.9535 77.7428C25.9585 77.7443 25.964 77.7459 25.9696 77.7476C26.0231 77.7629 26.1025 77.7853 26.1913 77.8387C26.4006 77.8221 26.6137 77.8069 26.8202 77.794C27.1666 77.7721 27.5247 77.7472 27.8674 77.7207C28.0362 77.7077 28.2139 77.7418 28.3582 77.8079C28.5027 77.8748 28.6015 77.9675 28.6373 78.083C28.6732 78.1984 28.6447 78.3324 28.5643 78.4723C28.4837 78.6114 28.3577 78.744 28.2123 78.8328C27.9773 78.9761 27.7363 79.125 27.499 79.2728C27.4872 79.2826 27.4753 79.2922 27.4634 79.3017C27.375 79.372 27.3017 79.4636 27.2295 79.5579C27.2129 79.5795 27.1963 79.6013 27.1797 79.6229Z" fill="#833D2E"/>
<path d="M47.3083 102.188C47.2885 102.409 47.0869 102.715 46.9749 102.876C46.9728 102.879 46.9707 102.882 46.9687 102.885C46.942 102.923 46.9164 102.966 46.8917 103.01C46.8294 103.116 46.7452 103.266 46.5152 103.538C46.4679 103.628 46.4145 103.724 46.3646 103.813C46.3149 103.901 46.2629 103.991 46.2084 104.083C45.6919 104.961 45.0927 105.777 44.4383 106.563C44.4311 106.575 44.4238 106.588 44.4164 106.601C44.2786 106.843 44.1012 107.151 43.9394 107.302C43.7295 107.499 43.5762 107.614 43.4436 107.712C42.848 108.383 42.2463 109.047 41.6888 109.743C41.5756 109.885 41.4621 110.03 41.3521 110.176C41.294 110.253 41.2363 110.33 41.1789 110.409C41.026 110.618 40.879 110.826 40.7326 111.04C40.6697 111.181 40.6175 111.318 40.5682 111.445C40.4991 111.623 40.435 111.784 40.3649 111.901C40.1962 112.182 39.9213 112.447 39.7193 112.642C39.6861 112.674 39.6548 112.704 39.626 112.732C39.5063 112.92 39.3901 113.104 39.2707 113.29C39.2518 113.295 39.2324 113.299 39.2126 113.303C38.9647 113.358 38.8273 113.54 38.603 113.829C38.5051 113.955 38.3935 114.098 38.2494 114.261C38.1566 114.366 38.0631 114.387 37.9875 114.405C37.9653 114.41 37.9446 114.415 37.9258 114.421C37.8614 114.443 37.8574 114.513 37.8518 114.595C37.8448 114.701 37.8344 114.827 37.6919 114.902C37.2412 115.139 37.2288 115.378 37.2112 115.553C37.2064 115.605 37.2019 115.652 37.1872 115.692C37.1395 115.823 36.9782 115.942 36.8355 116.018C36.7222 116.078 36.6157 116.283 36.5504 116.451C36.5258 116.514 36.4682 116.582 36.4001 116.662C36.3295 116.746 36.2484 116.841 36.1794 116.957C36.0044 117.248 35.9037 117.4 35.8241 117.52C35.8013 117.554 35.7798 117.586 35.7584 117.618C35.6909 117.719 35.6 117.839 35.5066 117.961C35.395 118.105 35.2805 118.251 35.1992 118.366C34.9254 118.62 34.6498 118.871 34.3759 119.125C34.2352 119.254 34.0577 119.348 33.8909 119.392C33.7235 119.435 33.5811 119.424 33.4813 119.352C33.3814 119.28 33.3279 119.149 33.3186 118.978C33.31 118.808 33.3469 118.612 33.4293 118.441C33.5966 118.094 33.7598 117.746 33.927 117.4C34.1301 116.979 34.3382 116.56 34.5678 116.157C34.7285 115.875 34.8947 115.598 35.0674 115.325C35.0851 115.297 35.103 115.269 35.1208 115.241C35.2096 114.972 35.3017 114.702 35.3812 114.526C35.4469 114.38 35.5335 114.301 35.6086 114.234C35.6603 114.187 35.7063 114.147 35.7353 114.093C35.7509 114.064 35.7706 114.024 35.7944 113.975C35.8909 113.777 36.0565 113.435 36.2907 113.189C36.3954 113.079 36.5388 112.966 36.6768 112.861C36.8735 112.711 37.0626 112.571 37.1042 112.463C37.1775 112.273 37.3315 112.107 37.4707 111.96C37.6029 111.82 37.7191 111.7 37.7295 111.591C37.7428 111.46 37.8177 111.395 37.9295 111.299C38.0072 111.232 38.1017 111.151 38.2069 111.022C38.3288 110.872 38.4426 110.787 38.5395 110.716C38.6753 110.616 38.7797 110.539 38.8239 110.346C38.873 110.131 38.9503 109.929 39.0693 109.808C39.1232 109.753 39.1712 109.681 39.2209 109.606C39.2867 109.507 39.3561 109.403 39.4483 109.327C39.524 109.265 39.6215 109.239 39.7077 109.216C39.7346 109.209 39.7603 109.203 39.784 109.195C39.8088 109.16 39.8335 109.125 39.858 109.09C39.8762 109.064 39.8945 109.038 39.913 109.011C39.9119 108.995 39.9103 108.978 39.9087 108.96C39.9008 108.871 39.8911 108.761 39.9222 108.658C39.9716 108.494 40.0831 108.402 40.2038 108.303C40.2971 108.226 40.394 108.146 40.4673 108.029C40.5166 107.95 40.5619 107.846 40.6051 107.746C40.6701 107.595 40.7327 107.45 40.8181 107.377C40.8502 107.349 40.9034 107.344 40.9562 107.339C40.9565 107.339 40.9568 107.339 40.957 107.339C40.9606 107.339 40.9642 107.339 40.9677 107.338C41.1038 107.108 41.2378 106.878 41.3724 106.647C41.3783 106.623 41.3845 106.599 41.3907 106.575C41.4204 106.46 41.452 106.345 41.4442 106.251C41.4363 106.148 41.5223 105.974 41.6174 105.788C41.68 105.665 41.7444 105.541 41.7849 105.432C41.8082 105.369 41.8801 105.342 41.9531 105.314C42.0212 105.289 42.0907 105.263 42.126 105.205C42.1437 105.176 42.1542 105.139 42.1654 105.099C42.1753 105.064 42.1855 105.027 42.2021 104.992C42.218 104.959 42.2857 104.909 42.3712 104.847C42.4241 104.808 42.4838 104.764 42.5427 104.716C42.6499 104.551 42.7614 104.385 42.8717 104.225C42.8737 104.175 42.8648 104.123 42.8419 104.071C42.8254 104.034 42.8013 103.994 42.7767 103.954C42.7433 103.899 42.709 103.843 42.6915 103.787C42.6779 103.744 42.6867 103.711 42.714 103.705C42.7268 103.703 42.7434 103.705 42.7584 103.708C42.7756 103.711 42.7908 103.714 42.7963 103.707C42.8002 103.702 42.7961 103.691 42.7912 103.678C42.7835 103.657 42.7734 103.629 42.7897 103.61C42.8517 103.537 42.9315 103.462 43.0087 103.391C43.0935 103.312 43.1797 103.231 43.236 103.16C43.2997 103.08 43.4255 103 43.5566 102.912C43.647 102.852 43.7344 102.795 43.8023 102.737C43.8701 102.679 43.9161 102.602 43.9603 102.529C43.9782 102.5 43.9959 102.471 44.0145 102.444C44.0531 102.388 44.0953 102.341 44.1499 102.313C44.1666 102.304 44.2104 102.31 44.2648 102.318C44.3034 102.324 44.3474 102.33 44.3908 102.333C44.4633 102.256 44.5421 102.174 44.6167 102.1C44.6155 102.094 44.6144 102.089 44.6131 102.083C44.6131 102.083 44.613 102.083 44.613 102.082C44.5828 101.955 44.5577 101.773 44.745 101.71C44.7942 101.691 44.846 101.696 44.8923 101.7C44.9378 101.704 44.9781 101.707 45.0054 101.689C45.0364 101.668 45.0484 101.625 45.0617 101.579C45.0824 101.512 45.107 101.437 45.1843 101.407C45.1896 101.405 45.1953 101.403 45.2012 101.4C45.2555 101.379 45.3411 101.342 45.4491 101.328C45.6245 101.175 45.8046 101.022 45.9858 100.871C46.2856 100.623 46.5936 100.368 46.9131 100.121C47.0742 99.9963 47.2661 99.9138 47.4715 99.8865C47.6878 99.8481 47.8474 99.9647 47.8447 100.085C47.8555 100.144 47.8348 100.208 47.8486 100.266C47.8637 100.323 47.8946 100.37 47.8984 100.436C47.9075 100.566 47.8673 100.736 47.7847 100.892C47.6517 101.145 47.5212 101.418 47.396 101.689C47.3911 101.705 47.386 101.72 47.3807 101.736C47.3391 101.854 47.3277 101.975 47.3158 102.102C47.3135 102.13 47.3111 102.159 47.3083 102.188Z" fill="#833D2E"/>
</svg>
