<svg width="813" height="1827" viewBox="0 0 813 1827" fill="none" xmlns="http://www.w3.org/2000/svg">
<path d="M450.063 119.765C527.307 32.6722 614.047 -30.0621 709.062 24.2652C788.458 69.6619 808.208 162.308 808.562 253.765C809.116 396.582 705.235 461.966 591.062 547.765C546.3 581.403 498.746 654.563 425.563 674.765C314.444 705.439 190.562 514.265 45.5638 649.765C-40.653 730.334 21.7341 855.712 95.5639 947.765C180.031 1053.08 312.357 1007.59 425.563 1050.77C553.339 1099.49 683.765 1005.09 770.562 1110.77C869.771 1231.55 730.772 1351.47 709.062 1506.27C691.782 1629.47 749.202 1730.69 668.563 1822.27" stroke="#89564C" stroke-width="8" stroke-linecap="round" stroke-dasharray="36 36"/>
</svg>
