<svg xmlns="http://www.w3.org/2000/svg" version="1.1" xmlns:xlink="http://www.w3.org/1999/xlink" width="1000" height="1000"><style>
    #light-icon {
      display: inline;
    }
    #dark-icon {
      display: none;
    }

    @media (prefers-color-scheme: dark) {
      #light-icon {
        display: none;
      }
      #dark-icon {
        display: inline;
      }
    }
  </style><g id="light-icon"><svg xmlns="http://www.w3.org/2000/svg" version="1.1" xmlns:xlink="http://www.w3.org/1999/xlink" width="1000" height="1000"><g clip-path="url(#SvgjsClipPath1503)"><rect width="1000" height="1000" fill="#3c211d"></rect><g transform="matrix(8.602150537634408,0,0,8.602150537634408,100,108.60215053763443)"><svg xmlns="http://www.w3.org/2000/svg" version="1.1" xmlns:xlink="http://www.w3.org/1999/xlink" width="93" height="91"><svg width="93" height="91" viewBox="0 0 93 91" fill="none" xmlns="http://www.w3.org/2000/svg">
<path d="M17.9889 27.0701C18.0131 33.8509 16.9004 43.3688 10.4899 50.5934C6.52275 55.0318 0.765479 58.3606 1.00738 58.7551C1.27347 59.199 7.75645 53.5277 15.9327 53.9962C18.9807 54.1688 21.4965 55.1551 23.2866 56.0921" stroke="#E8D1C5" stroke-width="2" stroke-linecap="round" stroke-linejoin="round"></path>
<path d="M26.068 63.0699C25.4149 56.6096 26.068 51.4561 26.697 48.0534C27.713 42.7766 29.8417 31.7793 37.6068 28.204C38.526 27.7848 41.6465 26.33 43.1221 27.6368C46.1943 30.3245 41.1627 43.2698 40.3644 45.2917C40.3644 45.2917 39.5662 47.3629 39.6871 47.4123C39.8323 47.4862 40.9934 44.2068 43.1947 41.3465C45.904 37.8451 50.2824 34.8122 51.5403 35.7985C53.0401 36.9821 50.4518 44.1574 49.4116 47.0424C48.5649 49.3849 47.5006 51.8013 48.4198 54.3904C48.8068 55.4506 49.3874 56.215 49.847 56.7082" stroke="#E8D1C5" stroke-width="2" stroke-linecap="round" stroke-linejoin="round"></path>
<path d="M71.9331 37.3277C74.3521 34.3934 75.102 31.114 73.9167 29.4619C72.3927 27.366 68.0143 28.303 65.6436 29.4619C56.5723 33.9003 53.9356 52.5661 59.0639 56.0428C62.378 58.2867 68.0868 56.1908 72.1266 51.136C74.4731 48.2017 74.9569 44.8976 78.4161 42.9003C81.2221 41.2729 83.1815 42.0126 84.512 42.5304" stroke="#E8D1C5" stroke-width="2" stroke-linecap="round" stroke-linejoin="round"></path>
<path d="M91.1408 45.4895C88.2138 48.1772 85.3109 50.2977 84.053 49.4594C82.5291 48.4484 83.5934 42.3333 83.1096 43.295C82.6742 44.158 82.6258 47.0676 80.5938 48.6457C79.4569 49.5087 78.0055 50.0265 76.8202 49.6566C76.6025 49.5826 75.7316 49.2867 75.2962 48.4237C74.8608 47.5607 75.0059 46.4758 75.6348 45.5635" stroke="#E8D1C5" stroke-width="2" stroke-linecap="round" stroke-linejoin="round"></path>
</svg></svg></g></g><defs><clipPath id="SvgjsClipPath1503"><rect width="1000" height="1000" x="0" y="0" rx="350" ry="350"></rect></clipPath></defs></svg></g><g id="dark-icon"><svg xmlns="http://www.w3.org/2000/svg" version="1.1" xmlns:xlink="http://www.w3.org/1999/xlink" width="1000" height="1000"><g><g transform="matrix(10.75268817204301,0,0,10.75268817204301,5.684341886080802e-14,10.752688172043065)"><svg xmlns="http://www.w3.org/2000/svg" version="1.1" xmlns:xlink="http://www.w3.org/1999/xlink" width="93" height="91"><svg width="93" height="91" viewBox="0 0 93 91" fill="none" xmlns="http://www.w3.org/2000/svg">
<path d="M17.9889 27.0701C18.0131 33.8509 16.9004 43.3688 10.4899 50.5934C6.52275 55.0318 0.765479 58.3606 1.00738 58.7551C1.27347 59.199 7.75645 53.5277 15.9327 53.9962C18.9807 54.1688 21.4965 55.1551 23.2866 56.0921" stroke="#E8D1C5" stroke-width="2" stroke-linecap="round" stroke-linejoin="round"></path>
<path d="M26.068 63.0699C25.4149 56.6096 26.068 51.4561 26.697 48.0534C27.713 42.7766 29.8417 31.7793 37.6068 28.204C38.526 27.7848 41.6465 26.33 43.1221 27.6368C46.1943 30.3245 41.1627 43.2698 40.3644 45.2917C40.3644 45.2917 39.5662 47.3629 39.6871 47.4123C39.8323 47.4862 40.9934 44.2068 43.1947 41.3465C45.904 37.8451 50.2824 34.8122 51.5403 35.7985C53.0401 36.9821 50.4518 44.1574 49.4116 47.0424C48.5649 49.3849 47.5006 51.8013 48.4198 54.3904C48.8068 55.4506 49.3874 56.215 49.847 56.7082" stroke="#E8D1C5" stroke-width="2" stroke-linecap="round" stroke-linejoin="round"></path>
<path d="M71.9331 37.3277C74.3521 34.3934 75.102 31.114 73.9167 29.4619C72.3927 27.366 68.0143 28.303 65.6436 29.4619C56.5723 33.9003 53.9356 52.5661 59.0639 56.0428C62.378 58.2867 68.0868 56.1908 72.1266 51.136C74.4731 48.2017 74.9569 44.8976 78.4161 42.9003C81.2221 41.2729 83.1815 42.0126 84.512 42.5304" stroke="#E8D1C5" stroke-width="2" stroke-linecap="round" stroke-linejoin="round"></path>
<path d="M91.1408 45.4895C88.2138 48.1772 85.3109 50.2977 84.053 49.4594C82.5291 48.4484 83.5934 42.3333 83.1096 43.295C82.6742 44.158 82.6258 47.0676 80.5938 48.6457C79.4569 49.5087 78.0055 50.0265 76.8202 49.6566C76.6025 49.5826 75.7316 49.2867 75.2962 48.4237C74.8608 47.5607 75.0059 46.4758 75.6348 45.5635" stroke="#E8D1C5" stroke-width="2" stroke-linecap="round" stroke-linejoin="round"></path>
</svg></svg></g></g></svg></g></svg>