<svg width="136" height="92" viewBox="0 0 136 92" fill="none" xmlns="http://www.w3.org/2000/svg">
<path d="M74.3572 26.2122C80.0046 22.8738 86.1558 20.3892 92.3326 18.2234C100.002 15.5189 108.021 13.3861 115.944 11.5538C118.875 11.0041 122.743 9.77644 125.805 9.8424C129.556 9.81675 132.923 11.9312 134.703 15.2404C135.243 16.2958 135.773 17.4318 135.688 18.6851C134.306 26.4578 122.129 38.3384 116.253 43.7877C113.79 46.0158 111.356 48.1779 108.617 50.1128C107.128 51.1279 105.389 52.1064 103.44 51.9305C101.539 51.7472 100.083 50.7138 98.5756 49.794C95.8512 48.0203 93.1231 46.3969 90.1634 45.085C87.211 43.773 84.1814 42.615 81.1297 41.5413C78.784 40.6361 76.2213 40.1084 74.1293 38.4887C73.3939 37.8987 72.8829 37.0705 72.4564 36.2459C70.7835 33.0211 71.0519 28.3524 74.3462 26.2049L74.3572 26.2122ZM75.2874 27.8137C73.5888 28.9387 73.0704 31.416 73.4528 33.3582C73.655 34.377 74.0815 35.3628 74.633 36.2533C75.2507 37.1877 76.1478 37.6678 77.225 38.1442C81.7474 39.8922 86.4609 41.424 90.9208 43.4286C93.943 44.7698 96.8513 46.4482 99.6051 48.1706C102.83 50.2008 104.308 50.7211 107.392 48.3941C114.213 43.194 130.842 26.7509 133.162 18.9856L133.273 18.4909L133.287 18.4286C133.295 18.4066 133.298 18.3846 133.295 18.3919C133.295 18.359 133.287 18.2967 133.287 18.2417C132.898 16.2298 131.497 14.2949 129.813 13.1589C128.658 12.3746 127.224 12.0009 125.739 11.9276C124.18 11.8469 122.676 12.1145 121.117 12.415C118.72 12.8474 113.93 13.7929 111.547 14.3022C98.8588 17.014 86.3286 20.8839 75.2874 27.8173V27.8137Z" fill="#815E57"/>
<path d="M106.705 50.1566C109.484 52.4617 109.128 57.4675 108.756 60.6667C108.374 64.0711 107.701 67.4316 107.058 70.7847C106.392 74.1232 105.881 77.4067 105.58 80.8001C105.238 84.1752 104.925 87.5613 104.627 90.9364C104.535 92.0798 102.951 92.4059 102.418 91.3945C101.561 89.8004 100.484 88.1989 99.3402 86.7844C97.9688 85.15 96.5276 83.6988 94.6488 83.0502C92.0383 82.2806 89.1999 82.8633 86.6887 83.8087C86.2585 83.9736 85.81 84.1679 85.4386 84.3548C84.6445 84.7762 83.6407 84.0543 83.7841 83.1748C84.0231 81.0823 83.751 77.8611 81.1773 77.5093C76.3682 76.5308 75.6255 70.8214 75.5042 66.7976C75.4968 64.5365 75.3571 62.4331 74.7689 60.2453C74.0593 57.3942 72.9452 54.5761 71.6216 51.9669C71.39 51.5089 71.5738 50.9555 72.0334 50.7246C72.493 50.4938 73.0555 50.6807 73.2835 51.1424C74.6549 53.9495 75.7211 56.8079 76.4859 59.8275C77.0594 61.9713 77.28 64.4816 77.2911 66.728C77.5154 69.8209 77.6845 74.3724 81.1259 75.4608C81.4347 75.5524 81.6847 75.578 82.2068 75.7026C85.0563 76.4319 86.1004 79.5908 86.1188 82.1853C86.1262 82.6104 86.1262 82.9915 86.0784 83.4643L84.3798 82.3062C84.8798 82.0387 85.3173 81.8372 85.7916 81.632C88.7844 80.375 92.2074 79.6421 95.4099 80.6022C97.8769 81.3974 99.752 83.281 101.304 85.2159C102.565 86.8137 103.587 88.4665 104.51 90.2878L102.271 90.6872C102.965 85.6007 103.568 80.5399 104.521 75.4901C105.521 70.4952 106.907 65.5846 107.477 60.5238C107.716 58.1601 107.855 55.5326 106.903 53.3192C106.638 52.7255 106.26 52.0732 105.756 51.7507C104.719 51.1131 105.638 49.5556 106.705 50.1603V50.1566Z" fill="#815E57"/>
<path d="M77.2384 70.2319C81.3857 70.2172 85.4706 68.1211 88.57 65.5045C90.9194 63.5403 92.4453 60.8725 93.8645 58.2156C95.519 55.0677 96.4124 51.3701 95.7984 47.8374C95.7653 47.6762 95.7249 47.5003 95.6881 47.3904C95.5374 46.903 95.8094 46.3826 96.2985 46.2323C96.7875 46.0821 97.3095 46.3533 97.4603 46.8407C97.5265 47.0935 97.5596 47.3061 97.5926 47.5223C97.7912 48.8415 97.7949 50.1828 97.6956 51.502C97.4934 54.1186 96.8169 56.6618 95.9234 59.1171C94.7653 62.3346 92.8571 65.4019 89.923 67.2745C86.1618 69.8068 81.724 70.7229 77.4737 72.0679C76.0398 72.438 75.7383 70.2465 77.2348 70.2319H77.2384Z" fill="#815E57"/>
<path d="M95.5781 46.7745C100.314 43.4251 104.141 38.9835 108.013 34.7179C112.943 29.1734 118.447 23.3173 120.995 16.2446C121.58 14.5186 122.025 12.6973 122.054 10.876H123.911C123.863 11.9241 123.69 12.9098 123.477 13.9249C122.867 16.853 121.613 19.6307 120.263 22.2509C118.899 24.8748 117.477 27.4877 115.664 29.8477C112.627 33.6845 108.917 36.9643 105.281 40.1782C102.376 42.7728 99.4019 45.239 96.8098 48.1671L95.5818 46.7782L95.5781 46.7745Z" fill="#815E57"/>
<path d="M67.8494 42.6995C64.8859 42.6886 62.6174 39.8961 62.6946 37.067C62.6946 36.8398 62.6542 35.4216 62.6505 35.1578C62.5917 33.3914 62.4814 30.8409 62.3895 29.0489C62.3784 28.7887 62.3049 27.3741 62.2975 27.1396C62.0034 24.0027 64.68 21.1333 67.8494 21.1553C71.0591 21.093 73.7505 23.9587 73.4784 27.1396C73.46 27.3668 73.4159 28.785 73.3975 29.0489C73.2872 31.5738 73.2321 34.1573 73.2431 36.6859C73.5262 39.8888 71.1327 42.7289 67.8494 42.6995ZM67.8494 40.8489C69.7024 40.8379 71.3753 39.2805 71.4121 37.4188C71.4378 36.9534 71.4231 35.6488 71.4268 35.1578C71.4121 33.1203 71.3643 31.0827 71.2724 29.0489C71.243 28.5651 71.2099 27.2605 71.1694 26.7951C71.0518 25.1057 69.5333 23.7132 67.8457 23.7132C66.1397 23.6619 64.5697 25.0801 64.4521 26.7915C64.408 27.2495 64.3638 28.5615 64.3344 29.0489C64.2535 30.8519 64.1175 33.3841 64.0734 35.1578C64.0697 35.6562 64.0219 36.9461 64.0293 37.4262C63.9778 39.438 65.9522 40.9405 67.8494 40.8453V40.8489Z" fill="#815E57"/>
<path d="M72.4152 57.1933C71.9519 59.491 71.0548 61.5725 70.1577 63.7126C68.4995 67.7547 66.1685 66.7799 64.6537 63.3058C62.7197 59.0805 61.58 54.5401 61.4954 49.897C61.4733 46.7161 61.3777 43.1065 63.5874 40.4936L64.4772 39.4492L65.3743 40.3984C66.5876 41.7176 68.8782 41.7616 70.1651 40.457L70.9151 39.7167L71.599 40.457C72.4556 41.3841 72.8564 42.5715 72.9998 43.7588C73.577 48.2113 73.5182 52.8434 72.4152 57.1896V57.1933ZM70.5915 56.8561C71.4666 52.979 71.8122 48.9552 71.2864 45.0048C71.1761 43.8834 71.0033 42.6118 70.1651 41.8276H71.599C70.621 42.894 69.2091 43.5609 67.7495 43.6232C66.2714 43.7038 64.7603 43.1505 63.6757 42.128L65.4626 42.0328C63.9441 44.1582 64.0801 47.2658 63.9919 49.8714C63.9772 52.7884 64.1132 55.6578 64.8485 58.4979C65.3743 60.5501 65.8523 62.7671 67.0252 64.5042C67.3524 64.8926 67.5583 65.1638 67.9333 64.8376C68.9039 63.8958 69.2532 62.4043 69.654 61.1254C70.0511 59.7072 70.3342 58.2707 70.5879 56.8561H70.5915Z" fill="#815E57"/>
<path d="M66.9407 22.2362C67.8268 20.4406 68.1614 18.3921 68.5989 16.4608C69.0034 14.4966 69.4409 12.514 70.1909 10.6194C70.9042 8.71382 72.0991 6.9768 73.2646 5.32406C74.4118 3.642 75.581 2.0369 76.8237 0.398819C77.1325 -0.00795267 77.7171 -0.0885741 78.1252 0.219253C78.5665 0.545404 78.6179 1.1977 78.2429 1.59348C76.9708 3.01535 75.8383 4.6461 74.8934 6.32816C73.9522 8.03587 73.3529 9.84252 72.5661 11.5979C71.4079 14.2767 70.0218 16.9042 69.1945 19.7223C68.9298 20.6678 68.7239 21.6462 68.757 22.632C68.7864 23.1597 68.3783 23.6141 67.8452 23.6398C67.1172 23.6984 66.5914 22.8666 66.9407 22.2362Z" fill="#815E57"/>
<path d="M60.4069 27.7844C46.623 19.1066 30.4933 15.2844 14.621 12.3894C11.7495 11.781 8.43309 11.4292 5.91455 13.093C4.19018 14.2473 2.71215 16.2482 2.39595 18.3334C3.8078 25.7945 21.6913 43.3333 28.2211 48.3062C31.3463 50.6699 32.8059 50.2008 35.9936 48.1963C40.0932 45.5578 44.6155 43.282 49.2114 41.5597C50.7335 40.955 52.2704 40.3797 53.8109 39.8263C55.3441 39.2693 56.903 38.7526 58.3443 38.1516C59.7341 37.5872 60.8702 36.8726 61.4695 35.5057C62.5982 33.2666 62.5137 29.3932 60.4033 27.7881L60.4069 27.7844ZM61.3371 26.1793C63.102 27.3263 63.6902 29.1733 63.9917 31.0496C64.2895 33.274 63.8116 35.6633 62.4475 37.5213C61.6276 38.639 60.2635 39.3756 59.0723 39.8593C52.9837 42.168 46.7884 44.0406 41.1373 47.2838C39.7439 48.0827 38.4019 48.9439 37.0158 49.827C34.6443 51.3955 32.0927 52.7111 29.2726 51.3442C26.9195 50.2521 25.0187 48.5371 23.0627 46.9466C21.8053 45.8876 20.5772 44.7992 19.3676 43.6888C13.2459 37.9757 2.46213 27.4582 0.160516 19.4804C-0.306425 17.9925 0.325968 16.4351 1.02454 15.1525C2.80406 11.858 6.20134 9.76549 9.94054 9.80947C12.9885 9.76183 16.8491 10.9748 19.7867 11.5318C27.71 13.3641 35.7105 15.4933 43.3765 18.1978C49.5496 20.3599 55.6934 22.8445 61.3371 26.1793Z" fill="#815E57"/>
<path d="M29.9422 51.7182C28.8245 52.5721 28.4054 54.1625 28.1848 55.5624C27.9384 57.1235 28.0634 58.9155 28.2252 60.4913C28.7951 65.5521 30.1812 70.4627 31.1813 75.4576C31.8872 78.8766 32.8983 87.1037 33.4314 90.6547L31.1923 90.2553C32.5821 87.5325 34.244 85.0369 36.472 82.9187C37.3545 82.1125 38.3839 81.3576 39.4869 80.8775C42.8438 79.463 46.6822 80.2399 49.9104 81.5958C50.3884 81.801 50.8259 82.0026 51.3222 82.2701L49.6236 83.4281C49.5795 82.959 49.5758 82.5852 49.5832 82.1638C49.5832 79.496 50.7303 76.2088 53.7121 75.6151C53.9143 75.5748 54.282 75.4869 54.4805 75.4429C57.9587 74.4095 58.1499 70.0156 58.3962 66.9373C58.4587 64.6653 58.5653 62.3273 59.1168 60.1285C59.8301 57.1308 60.8596 54.2981 62.2126 51.513C62.4406 51.0549 62.9958 50.868 63.4554 51.0916C63.9149 51.3188 64.1025 51.8721 63.8782 52.3302C62.5803 54.9028 61.4957 57.6952 60.8412 60.5206C60.2934 62.6791 60.2272 64.8192 60.1868 67.018C60.0287 70.8145 59.3742 76.0476 55.0394 77.3338C54.8556 77.3851 54.3445 77.5097 54.1754 77.5537C51.8738 78.1437 51.7193 81.1634 51.9215 83.1386C52.0649 84.0218 51.0575 84.7327 50.2707 84.3186C49.4986 83.9338 48.5868 83.593 47.7411 83.3328C45.4028 82.6475 42.8107 82.2884 40.5201 83.2265C38.884 83.9595 37.5346 85.3593 36.3618 86.7519C35.222 88.1664 34.1447 89.7569 33.2917 91.3473C32.7586 92.3661 31.1702 92.0473 31.0747 90.9039L30.1077 80.7676C29.615 73.9624 27.7105 67.4064 26.942 60.6342C26.6038 57.6182 26.3464 54.1955 27.898 51.3957C28.2179 50.912 28.4789 50.4796 28.9973 50.1241C30.0672 49.5268 30.9791 51.0696 29.9459 51.7145L29.9422 51.7182Z" fill="#815E57"/>
<path d="M57.9693 72.0676C53.7154 70.7227 49.2776 69.8065 45.52 67.2743C42.5897 65.398 40.6778 62.3344 39.5196 59.1169C38.6262 56.6616 37.9497 54.1147 37.7474 51.5018C37.6482 50.1825 37.6519 48.8413 37.8504 47.522C37.8835 47.3205 37.9055 47.1482 37.968 46.899C38.0894 46.4007 38.5894 46.0965 39.0894 46.2174C39.5895 46.3384 39.8946 46.8367 39.7733 47.3351C39.7255 47.4744 39.6851 47.6503 39.6483 47.8408C39.4203 48.9952 39.424 50.1825 39.5086 51.3625C39.7843 54.8146 41.2771 58.0211 43.1191 60.9125C45.4465 65.0902 49.546 68.0878 54.083 69.5683C55.3993 69.9824 56.8369 70.2939 58.2083 70.2426C58.7304 70.2133 59.1753 70.6091 59.2047 71.1295C59.2561 71.7781 58.5833 72.2911 57.9693 72.0786V72.0676Z" fill="#815E57"/>
<path d="M38.8878 48.1304C33.2993 42.0032 26.3687 37.3235 20.9786 30.9801C18.7064 28.3489 17.0225 25.2743 15.4305 22.218C13.8385 19.1617 12.4377 15.8672 11.9413 12.4078C11.8678 11.8764 11.8053 11.4074 11.7832 10.8467H13.6399C13.6473 11.7299 13.776 12.657 13.9561 13.5328C15.379 19.9899 19.6035 25.4795 23.8722 30.3864C26.1187 32.9186 29.2696 36.5319 31.5712 38.9616C34.2331 41.7467 36.9318 44.5464 40.1159 46.7452L38.8878 48.1341V48.1304Z" fill="#815E57"/>
<path d="M66.94 22.5991C66.9253 19.6308 65.4913 16.8786 64.3258 14.2181C63.0427 11.5979 62.1566 8.88612 60.8072 6.29524C59.8586 4.61685 58.7299 2.98243 57.4577 1.56056C57.1011 1.18311 57.1232 0.578446 57.5166 0.233972C57.9173 -0.12516 58.5534 -0.0628614 58.877 0.365898C60.1197 2.00398 61.2889 3.60908 62.436 5.29114C63.6015 6.94388 64.7964 8.6809 65.5097 10.5865C66.4546 12.9538 66.8775 15.4384 67.4179 17.8974C67.7452 19.3303 68.0908 20.8951 68.7636 22.218C69.3776 23.7131 66.9914 24.2262 66.9436 22.5991H66.94Z" fill="#815E57"/>
</svg>
