<svg width="87" height="92" viewBox="0 0 87 92" fill="none" xmlns="http://www.w3.org/2000/svg">
<g clip-path="url(#clip0_282_720)">
<path d="M80.4722 8.52867C80.8431 10.2913 81.6281 11.9788 82.3974 13.5992C83.0799 15.0417 83.8255 16.4526 84.6066 17.8437C84.7644 18.1243 84.9222 18.4009 85.084 18.6776L84.9854 17.9148C84.512 19.551 84.0819 21.199 83.6717 22.8509C83.1785 24.8309 82.717 26.8188 82.2672 28.8106C81.7544 31.0831 81.2612 33.3595 80.7799 35.6359C80.2553 38.1059 79.7463 40.5838 79.2453 43.0578C78.7127 45.682 78.1881 48.3062 77.6673 50.9343C77.1347 53.6296 76.6061 56.3249 76.0775 59.0202C75.5488 61.7155 75.0281 64.3831 74.5034 67.0666C73.9787 69.75 73.4737 72.3149 72.953 74.9391C72.4599 77.4131 71.9667 79.8831 71.4618 82.3532C70.9962 84.6256 70.5228 86.902 70.0337 89.1705C69.9232 89.6842 69.8127 90.198 69.6983 90.7078L70.6491 89.9806C68.2544 89.8502 65.8559 89.7158 63.4612 89.5775C60.8733 89.4313 58.2893 89.2811 55.7013 89.127C53.1134 88.9729 50.3716 88.8148 47.7047 88.6527C45.0379 88.4907 42.3671 88.3326 39.7002 88.1706C37.0334 88.0086 34.5835 87.8584 32.0232 87.7042C29.6719 87.562 27.3246 87.4157 24.9734 87.2695C22.9338 87.1431 20.8942 87.0166 18.8507 86.8901C17.2253 86.7874 15.6 86.6886 13.9746 86.5858C12.8503 86.5147 11.7259 86.4435 10.6016 86.3764C10.0887 86.3447 9.57195 86.2973 9.05909 86.2775C9.03542 86.2775 9.0157 86.2775 8.99203 86.2736L9.6903 86.5621C9.54828 86.3803 9.40231 86.1946 9.26029 86.0128C9.09854 85.8033 8.93679 85.5938 8.7711 85.3844C8.7711 85.3844 8.93285 85.5938 8.84211 85.4753C8.81844 85.4437 8.79477 85.412 8.7711 85.3844C8.72771 85.3251 8.68431 85.2698 8.63697 85.2105C8.52257 85.0603 8.40421 84.9101 8.28981 84.76C7.29566 83.4597 6.30545 82.1555 5.34286 80.8316C4.84973 80.1558 4.36449 79.4761 3.89898 78.7805C3.61493 78.3497 3.01529 78.1245 2.54977 78.4248C2.12371 78.7015 1.89095 79.318 2.19472 79.7764C3.65044 81.9619 5.26791 84.0446 6.86959 86.1274C7.20098 86.5581 7.53631 86.9929 7.86769 87.4237C8.00182 87.5975 8.12806 87.7872 8.27797 87.9493C8.55018 88.2417 8.90918 88.2457 9.26818 88.2694C10.144 88.3247 11.0158 88.3801 11.8916 88.4354C13.5525 88.5381 15.2094 88.6448 16.8703 88.7476C19.1505 88.8899 21.4307 89.0321 23.711 89.1705C26.4567 89.3404 29.2064 89.5103 31.9522 89.6763C34.982 89.8621 38.0118 90.0439 41.0415 90.2296C44.1976 90.4193 47.3576 90.609 50.5175 90.7948C53.6775 90.9805 56.7625 91.1623 59.8831 91.3441C62.8024 91.514 65.7257 91.68 68.6489 91.842C69.3157 91.8776 69.9784 91.9171 70.6451 91.9527C71.0554 91.9764 71.5091 91.6326 71.5959 91.2255C72.1798 88.5539 72.74 85.8744 73.2923 83.1949C73.9077 80.1993 74.5073 77.2036 75.0991 74.204C75.7263 71.0345 76.3497 67.8609 76.969 64.6874C77.5884 61.5139 78.2393 58.1863 78.8784 54.9377C79.5057 51.7563 80.133 48.5749 80.776 45.3935C81.3835 42.386 81.999 39.3824 82.6302 36.3828C83.2022 33.6756 83.79 30.9685 84.4054 28.2692C84.9301 25.977 85.4745 23.6888 86.0663 21.4124C86.3148 20.456 86.5752 19.4996 86.8474 18.5511C86.9816 18.0927 86.8435 17.7804 86.6344 17.4169C86.4569 17.1046 86.2793 16.7964 86.1058 16.4802C85.5219 15.425 84.9577 14.358 84.4252 13.279C84.1175 12.6507 83.8176 12.0183 83.5375 11.3742C83.4705 11.224 83.4192 11.054 83.3363 10.9078C83.4744 11.1449 83.3482 10.9315 83.3166 10.8564C83.2772 10.7616 83.2377 10.6667 83.2022 10.5679C83.0799 10.2636 82.9616 9.95537 82.855 9.64315C82.6657 9.10172 82.496 8.55238 82.3777 7.99514C82.2712 7.48928 81.6518 7.1494 81.1626 7.30353C80.63 7.47742 80.3578 7.97538 80.4722 8.52077V8.52867Z" fill="#815E57"/>
<path d="M81.3283 10.9198C81.2573 11.5244 81.1823 12.1291 81.1034 12.7338C81.0955 12.797 81.0876 12.8602 81.0797 12.9235C81.0403 13.2278 81.0955 12.8128 81.0718 12.9946C81.0521 13.1369 81.0324 13.2792 81.0127 13.4214C80.9693 13.7376 80.9219 14.0538 80.8785 14.3699C80.705 15.5516 80.5195 16.7333 80.3183 17.911C79.9159 20.2743 79.4662 22.6297 78.977 24.9773C78.0066 29.6367 76.894 34.2686 75.7618 38.8925C74.6099 43.5915 73.4421 48.2826 72.4756 53.025C71.5091 57.7675 70.6609 62.5969 69.8127 67.3908C69.3906 69.7699 68.9685 72.149 68.5227 74.5242C68.3373 75.5162 68.1084 76.4963 67.9191 77.4883C67.7455 78.4091 67.6035 79.3378 67.4851 80.2666C67.4181 80.7962 67.3628 81.3297 67.3076 81.8632L68.0335 80.9108C67.9072 80.9305 67.7849 80.9503 67.6587 80.9661C67.5916 80.974 67.5206 80.9858 67.4536 80.9938C67.2603 81.0214 67.7376 80.9582 67.5798 80.9779C67.5325 80.9858 67.4891 80.9898 67.4417 80.9977C67.2326 81.0254 67.0196 81.0491 66.8105 81.0767C65.4258 81.2388 64.0332 81.3534 62.6446 81.4403C60.5024 81.5708 58.3563 81.63 56.2141 81.6261C53.4329 81.6221 50.6516 81.5075 47.8783 81.2981C45.1049 81.0886 42.154 80.7132 39.2939 80.4286C36.5994 80.1599 33.897 79.9346 31.1947 79.7528C28.4923 79.571 25.9162 79.4485 23.277 79.3892C20.8745 79.3339 18.468 79.3339 16.0694 79.4406C14.014 79.5315 11.9587 79.7014 9.93091 80.0492C8.45152 80.3021 6.94846 80.6578 5.61109 81.3573C5.38228 81.4759 5.16136 81.6103 4.95227 81.7605C4.53409 82.0648 4.2895 82.6339 4.59722 83.1121C4.86153 83.527 5.50063 83.7918 5.94642 83.4677C6.15945 83.3136 6.38432 83.1753 6.62102 83.0567C6.75121 82.9895 6.88139 82.9263 7.01553 82.867C7.04709 82.8512 7.08259 82.8394 7.11415 82.8236C7.16938 82.7959 6.85772 82.9263 7.01553 82.867C7.09048 82.8354 7.16938 82.8077 7.24434 82.7761C7.92289 82.5192 8.6251 82.3295 9.33521 82.1754C9.74155 82.0845 10.1479 82.0094 10.5582 81.9422C10.7752 81.9067 10.9961 81.8711 11.2131 81.8395C11.3196 81.8237 11.43 81.8118 11.5365 81.7921C11.5523 81.7921 11.2998 81.8237 11.4103 81.8079C11.4379 81.8079 11.4655 81.8 11.4931 81.796C11.5563 81.7881 11.6233 81.7802 11.6865 81.7723C12.6885 81.6458 13.6984 81.5589 14.7044 81.4917C17.028 81.3415 19.3635 81.3099 21.6911 81.3376C24.2988 81.3652 26.9064 81.4719 29.5102 81.6221C32.1139 81.7723 34.8715 81.9857 37.5462 82.2347C40.2209 82.4837 43.0693 82.8354 45.8387 83.0962C48.6081 83.3571 51.6339 83.531 54.5414 83.5824C56.8335 83.6219 59.1295 83.5903 61.4216 83.4796C62.9838 83.4045 64.55 83.2899 66.1044 83.1279C66.8934 83.0449 67.6903 82.9698 68.4714 82.8275C68.5029 82.8236 68.5306 82.8196 68.5621 82.8117C69.0158 82.7366 69.2446 82.2624 69.288 81.8593C69.3432 81.3139 69.4024 80.7685 69.4695 80.2271C69.4774 80.1757 69.4813 80.1243 69.4892 80.0729C69.4892 80.0611 69.5247 79.8121 69.501 79.982C69.4774 80.152 69.5129 79.9109 69.5129 79.8951C69.5208 79.8477 69.5247 79.8002 69.5326 79.7528C69.5642 79.5236 69.5997 79.2983 69.6391 79.0691C69.7811 78.1996 69.9587 77.3341 70.1362 76.4726C70.6254 74.1369 71.0278 71.7854 71.4459 69.4379C72.2941 64.6599 73.1226 59.8779 74.0655 55.1196C75.0083 50.3613 76.1366 45.6544 77.2925 40.9436C78.4326 36.3039 79.5648 31.6602 80.5669 26.9889C81.5847 22.2503 82.4566 17.4842 83.0878 12.6824C83.1667 12.0935 83.2377 11.5047 83.3087 10.9158C83.3679 10.4021 82.8116 9.9041 82.3224 9.92782C81.7346 9.95548 81.3993 10.3625 81.3362 10.9158L81.3283 10.9198Z" fill="#815E57"/>
<path d="M82.8108 15.1562C82.0889 17.4484 81.3354 19.7327 80.7673 22.0723C80.2386 24.2499 79.7928 26.4512 79.3155 28.6406C78.3371 33.1262 77.3745 37.6118 76.4356 42.1053C75.4809 46.6659 74.5459 51.2266 73.6307 55.7952C72.7154 60.3638 71.8278 64.9205 70.9638 69.4891C70.1157 73.9628 69.2951 78.4405 68.5021 82.9221C68.4075 83.4675 68.3088 84.0129 68.2142 84.5583L69.1649 83.8311C68.6047 83.8311 68.0445 83.8232 67.4843 83.8193L62.9475 83.7876C60.7146 83.7718 58.4778 83.756 56.2449 83.7402C53.511 83.7205 50.7771 83.7007 48.0432 83.6849C45.0489 83.6651 42.0546 83.6414 39.0603 83.6217C36.066 83.6019 33.0323 83.5782 30.0183 83.5584C27.2094 83.5387 24.3966 83.5189 21.5877 83.4991C19.2049 83.4833 16.826 83.4675 14.4432 83.4478L9.31073 83.4122L6.88848 83.3964H6.78591C6.26911 83.3924 5.77598 83.8509 5.79965 84.3844C5.82332 84.9179 6.2336 85.3685 6.78591 85.3724C7.33821 85.3764 7.9063 85.3803 8.4665 85.3843L13.0033 85.4159C15.2362 85.4317 17.473 85.4475 19.7059 85.4633C22.4398 85.4831 25.1737 85.5028 27.9077 85.5186C30.9019 85.5384 33.8962 85.5621 36.8905 85.5819C39.8848 85.6016 42.9185 85.6254 45.9326 85.6451C48.7414 85.6649 51.5542 85.6846 54.3631 85.7044L61.5076 85.7558L66.6401 85.7913L69.0623 85.8071H69.1649C69.5634 85.8071 70.0407 85.5028 70.1157 85.0839C70.8968 80.6181 71.7095 76.1562 72.5458 71.7022C73.3822 67.2483 74.2935 62.5493 75.2008 57.9807C76.1121 53.4082 77.0432 48.8396 77.9939 44.2749C78.9289 39.7815 79.8875 35.2919 80.862 30.8063C81.3393 28.6169 81.8167 26.4314 82.3019 24.242C82.8148 21.926 83.4578 19.6615 84.1718 17.4009C84.3533 16.8279 84.5348 16.2509 84.7163 15.6778C84.8701 15.1838 84.5348 14.5792 84.0259 14.4606C83.4894 14.3381 82.9804 14.6226 82.8108 15.1522V15.1562Z" fill="#815E57"/>
<path d="M84.2588 17.1917C83.4422 20.543 82.5466 23.8746 81.6353 27.2022C80.724 30.5299 79.8048 33.8377 78.9369 37.1693C78.069 40.5009 77.2603 43.8285 76.5738 47.1957C76.061 49.6974 75.6625 52.2148 75.2365 54.7323C74.9248 56.57 74.6013 58.4077 74.2739 60.2454C73.8912 62.3914 73.5007 64.5373 73.1062 66.6794C72.6959 68.9083 72.2738 71.1333 71.8477 73.3583C71.4492 75.4371 71.0429 77.512 70.6208 79.5868C70.2776 81.2822 69.9264 82.9737 69.5477 84.6612C69.3071 85.7401 69.0664 86.827 68.7508 87.8861C68.7074 88.0284 68.664 88.1707 68.6128 88.3129L69.5635 87.5858C69.0191 87.566 68.4707 87.5462 67.9263 87.5304L63.4684 87.3763L56.8763 87.1471L48.8323 86.8665L40.023 86.5622L31.1585 86.2539C28.4009 86.1591 25.6473 86.0642 22.8897 85.9654C20.5543 85.8824 18.2188 85.8034 15.8833 85.7204L10.8455 85.5465L8.4627 85.4635H8.36013C7.84333 85.4437 7.3502 85.9259 7.37387 86.4476C7.39754 86.9969 7.80782 87.4158 8.36013 87.4356C8.91243 87.4553 9.4529 87.4751 9.99732 87.4909L14.4552 87.645C16.6526 87.7201 18.85 87.7992 21.0474 87.8743C23.73 87.9691 26.4087 88.06 29.0913 88.1549C32.0264 88.2576 34.9655 88.3604 37.9006 88.4592L46.7651 88.7674C49.5227 88.8623 52.2763 88.9571 55.0339 89.0559C57.3694 89.1389 59.7048 89.218 62.0403 89.3009L67.0781 89.4748L69.4609 89.5578H69.5635C70.0211 89.5776 70.3683 89.2377 70.5143 88.8346C70.8259 87.9731 71.0192 87.0601 71.2244 86.167C71.5873 84.6099 71.9187 83.0448 72.2422 81.4798C72.6564 79.4801 73.0509 77.4764 73.4415 75.4687C73.8715 73.2595 74.2897 71.0464 74.7039 68.8332C75.1181 66.6201 75.5166 64.4425 75.9111 62.2451C76.2582 60.3205 76.5975 58.3919 76.9328 56.4633C77.2918 54.3687 77.6114 52.2701 77.998 50.1795C78.6213 46.8044 79.3827 43.4531 80.2191 40.1255C81.0554 36.7899 81.9628 33.4702 82.8741 30.1505C83.7854 26.8268 84.7006 23.4991 85.5528 20.1597C85.7618 19.3416 85.963 18.5235 86.1642 17.7054C86.2865 17.2035 86.0064 16.6107 85.4739 16.4882C84.9413 16.3657 84.3929 16.6423 84.2588 17.1798V17.1917Z" fill="#815E57"/>
<path d="M3.1497 80.2704C5.06304 79.4997 7.03162 78.8793 9.0357 78.4011C10.0496 78.16 11.0674 77.9545 12.0931 77.7806C12.5941 77.6976 13.0951 77.6186 13.5962 77.5514C13.7855 77.5237 13.6238 77.5514 13.5843 77.5514C13.6396 77.5435 13.6948 77.5356 13.754 77.5277C13.892 77.5079 14.0341 77.4921 14.1721 77.4763C14.4246 77.4447 14.6771 77.417 14.9296 77.3893C19.0837 76.9467 23.2812 76.9744 27.4433 77.2629C29.5618 77.4091 31.6723 77.6225 33.779 77.8794C34.2997 77.9426 34.8205 78.0098 35.3412 78.077C35.4872 78.0968 35.6292 78.1165 35.7752 78.1363C35.8146 78.1402 35.9685 78.1639 35.7752 78.1363C35.8344 78.1442 35.8896 78.1521 35.9488 78.16C36.2249 78.1956 36.4971 78.2351 36.7733 78.2746C37.8266 78.4208 38.8799 78.5789 39.9293 78.737C44.0677 79.3693 48.1902 80.0846 52.3286 80.7091C53.3306 80.8592 54.3366 81.0055 55.3426 81.1438C55.6345 81.1833 55.9265 81.2228 56.2184 81.2624C56.2855 81.2703 56.3525 81.2821 56.4235 81.29C56.5892 81.3137 56.1711 81.2545 56.4669 81.2979C56.676 81.3295 56.8851 81.3533 57.0942 81.3809C57.6426 81.4521 58.187 81.5074 58.7393 81.5548C61.0037 81.7445 63.28 81.7168 65.5405 81.5034C66.1205 81.4481 66.7004 81.3809 67.2803 81.3058C67.8089 81.2347 68.2666 80.9106 68.2666 80.3178C68.2666 80.2625 68.2666 80.2032 68.2666 80.1479C68.2626 79.9542 68.2034 80.385 68.2705 80.1518C68.3533 79.8633 68.3967 79.5551 68.452 79.2587C68.5545 78.7093 68.6413 78.1521 68.7163 77.5988C68.878 76.4092 69.0043 75.2118 69.1463 74.0182C69.1779 73.7416 69.2134 73.4649 69.2489 73.1883C69.2568 73.1251 69.2646 73.0658 69.2725 73.0026C69.3002 72.8049 69.2804 72.9433 69.2725 72.9867C69.2962 72.8168 69.3199 72.6429 69.3475 72.473C69.4343 71.8881 69.5329 71.2992 69.6513 70.7183C69.888 69.5406 70.1799 68.3707 70.4442 67.2009C71.5094 62.4664 72.5075 57.712 73.474 52.9577C74.4366 48.2152 75.3637 43.4688 76.2868 38.7184C77.21 33.972 78.1252 29.2256 79.0681 24.4831C80.0109 19.7446 80.9735 15.014 81.9953 10.2913C82.1215 9.70636 82.2478 9.12146 82.378 8.53655C82.5397 7.79752 81.9203 7.13357 81.1629 7.31932C80.6303 7.44974 80.0899 7.56039 79.5454 7.64734C79.4271 7.6671 79.3048 7.68291 79.1864 7.69871C79.2259 7.69476 79.3758 7.675 79.1785 7.69871C79.1194 7.70662 79.0602 7.71452 79.001 7.71848C78.7327 7.75009 78.4645 7.7738 78.1923 7.79356C77.1429 7.8726 76.0896 7.86865 75.0362 7.80937C74.4879 7.77776 73.9395 7.73428 73.3951 7.675C73.1505 7.64734 72.9059 7.61967 72.6574 7.59201C72.5785 7.5841 72.5035 7.57225 72.4246 7.56434C72.397 7.56434 72.2037 7.53668 72.326 7.55249C72.4483 7.5683 72.2511 7.54063 72.2234 7.53668C72.1288 7.52482 72.038 7.50902 71.9433 7.49716C71.395 7.41812 70.8466 7.33117 70.2983 7.23632C70.0024 7.18495 69.7026 7.12567 69.4067 7.08615C69.2568 7.06639 69.1108 7.05058 68.9609 7.03082C68.8859 7.02291 68.811 7.01106 68.736 7.00315C68.882 7.02291 68.7636 7.00315 68.6847 6.99525C64.5267 6.4143 60.4948 5.19311 56.4867 3.97983C54.5023 3.37911 52.5219 2.7784 50.5139 2.25278C48.5058 1.72715 46.4584 1.3359 44.403 0.988117C40.2331 0.272794 36.004 -0.0986991 31.767 0.0238147C27.5301 0.146329 23.3562 0.735186 19.2179 1.5335C18.6774 1.63626 18.1369 1.74691 17.6004 1.85757C17.2887 1.9208 16.9731 2.23302 16.91 2.54918C16.8745 2.72702 16.8429 2.90091 16.8074 3.07876L16.5116 4.5924L16.0421 6.9992L15.4227 10.1688L14.6732 14.0022C14.3852 15.4685 14.1011 16.9307 13.8131 18.3969L12.8663 23.2422C12.5271 24.9811 12.1878 26.72 11.8446 28.4549L10.7834 33.8851L9.69452 39.4496C9.33158 41.311 8.96469 43.1764 8.60175 45.0378C8.2388 46.8992 7.88375 48.7092 7.52475 50.5469C7.16575 52.3847 6.82648 54.1078 6.47931 55.8901C6.15188 57.5658 5.82444 59.2415 5.497 60.9172C5.19323 62.4585 4.89341 63.9998 4.58964 65.5411C4.32138 66.9124 4.05311 68.2877 3.78485 69.6591L3.09841 73.1646C2.91694 74.0973 2.73547 75.026 2.55005 75.9587L2.16738 77.911L1.96619 78.9306C1.9583 78.9741 1.95041 79.0136 1.94252 79.0571C1.84389 79.563 2.08454 80.1479 2.6329 80.2743C3.12208 80.385 3.74146 80.1281 3.84797 79.5827C3.88348 79.4049 3.91504 79.231 3.95054 79.0532L4.24642 77.5395L4.71588 75.1327C4.92102 74.0775 5.13011 73.0223 5.33525 71.9632L6.08481 68.1297C6.3728 66.6635 6.65684 65.2012 6.94483 63.735L7.89164 58.8897C8.23091 57.1508 8.57019 55.4119 8.9134 53.677L9.97462 48.2468C10.3376 46.3933 10.7005 44.5359 11.0635 42.6823C11.4264 40.8288 11.7933 38.9556 12.1562 37.0941L13.2332 31.585C13.5804 29.8026 13.9315 28.0242 14.2787 26.2418C14.6061 24.5661 14.9335 22.8904 15.261 21.2148C15.5647 19.6735 15.8646 18.1322 16.1683 16.5908C16.4366 15.2195 16.7049 13.8442 16.9731 12.4728L17.6596 8.96733C17.841 8.03464 18.0225 7.10591 18.2079 6.17322L18.5906 4.2209L18.7918 3.20127C18.7997 3.1578 18.8076 3.11828 18.8155 3.07481L18.1251 3.76642C20.2633 3.32774 22.4094 2.93648 24.5673 2.62822C24.7015 2.60846 24.8316 2.59265 24.9658 2.57289C25.1394 2.54918 24.7291 2.60451 25.0131 2.56499C25.0723 2.55709 25.1315 2.54918 25.1906 2.54128C25.451 2.50571 25.7153 2.47409 25.9757 2.44248C26.4807 2.38319 26.9856 2.32787 27.4906 2.27649C28.4887 2.17769 29.4868 2.1026 30.4888 2.05122C32.489 1.94847 34.4931 1.94847 36.4932 2.05122C37.5386 2.10655 38.5841 2.18954 39.6256 2.29625C40.1384 2.35158 40.6513 2.41086 41.1641 2.47409C41.2391 2.482 41.318 2.49385 41.3929 2.50571C41.4205 2.50571 41.6099 2.53337 41.4916 2.51756C41.3732 2.50176 41.5626 2.52942 41.5902 2.52942C41.6691 2.54128 41.744 2.54918 41.8229 2.56104C42.103 2.60056 42.3831 2.64008 42.6593 2.68355C44.7462 3.00367 46.8292 3.37121 48.8846 3.86917C50.9399 4.36713 52.8809 4.94413 54.8613 5.54089C58.8655 6.75022 62.8737 8.02278 67.0081 8.71439C67.5841 8.80924 68.164 8.89619 68.7439 8.97128C68.8623 8.98709 68.9846 9.00289 69.1029 9.0187C69.2962 9.04241 69.1542 9.03056 69.1147 9.0187C69.1779 9.03056 69.241 9.04241 69.3041 9.05032C69.6039 9.1017 69.9037 9.15307 70.2036 9.20445C71.3397 9.3902 72.4799 9.55223 73.6239 9.66684C75.8055 9.8842 77.9911 9.8763 80.1569 9.52457C80.6698 9.44157 81.1787 9.33487 81.6836 9.21235L80.4686 7.99512C79.4271 12.7455 78.4448 17.5038 77.494 22.2739C76.5433 27.044 75.628 31.7589 74.7049 36.5053C73.7778 41.2873 72.8467 46.0653 71.8881 50.8394C70.9334 55.5819 69.9471 60.3204 68.9017 65.0431C68.377 67.4104 67.7537 69.7658 67.4105 72.1647C67.2408 73.3543 67.1107 74.5478 66.9726 75.7413C66.941 76.014 66.9095 76.2867 66.874 76.5555C66.8542 76.7056 66.8345 76.8558 66.8187 77.006C66.8148 77.0416 66.7911 77.1996 66.8187 77.0139C66.8069 77.1048 66.7951 77.1957 66.7832 77.2826C66.7043 77.8359 66.6136 78.3932 66.5071 78.9425C66.4203 79.397 66.294 79.8396 66.294 80.306L67.2803 79.3179C64.9803 79.6223 62.6607 79.7566 60.341 79.6657C59.2245 79.6223 58.112 79.5274 57.0035 79.3812C56.8062 79.3575 56.9522 79.3733 56.9916 79.3812C56.8891 79.3654 56.7825 79.3535 56.68 79.3377C56.5261 79.3179 56.3762 79.2982 56.2223 79.2784C56.1434 79.2666 55.8594 79.231 56.0764 79.2587C55.9383 79.2429 55.8042 79.2231 55.6661 79.2033C55.1572 79.1322 54.6522 79.0611 54.1433 78.986C50.005 78.3853 45.8824 77.6699 41.7519 77.0218C37.4952 76.3539 33.2227 75.7492 28.9227 75.3935C24.6226 75.0379 20.5197 74.9351 16.3261 75.275C12.1326 75.6149 8.0021 76.3895 4.05311 77.8083C3.57182 77.9821 3.09447 78.1639 2.62106 78.3536C2.14766 78.5433 1.7571 79.0215 1.93068 79.5709C2.08059 80.0333 2.6329 80.468 3.14575 80.2625L3.1497 80.2704Z" fill="#815E57"/>
<path d="M23.3878 5.90449C22.4884 5.69503 21.4232 5.81754 20.8078 6.58424C20.6145 6.82532 20.5001 7.02292 20.3857 7.31142C20.3107 7.50507 20.2831 7.71058 20.2634 7.92004C20.22 8.34686 20.3304 8.75788 20.504 9.14123C20.8867 9.98697 21.8019 10.4336 22.6935 10.4612C23.7863 10.4968 24.7883 9.76565 25.0881 8.71045C25.2499 8.14136 25.1789 7.52483 24.8988 7.00711C24.5911 6.43802 24.0033 6.05467 23.3839 5.90449C23.1314 5.84126 22.8513 5.87287 22.6225 6.00329C22.4174 6.12185 22.224 6.35898 22.1688 6.59215C22.0544 7.10196 22.3227 7.67501 22.8592 7.80938C22.9618 7.8331 23.0604 7.86471 23.1551 7.90818L22.9184 7.80938C23.0288 7.85681 23.1314 7.91609 23.23 7.99118L23.0288 7.83705C23.1077 7.90028 23.1787 7.97142 23.2419 8.04651L23.088 7.84495C23.1511 7.92794 23.2024 8.01489 23.2419 8.10974L23.1432 7.87262C23.1827 7.96747 23.2064 8.06231 23.2221 8.16112L23.1866 7.90028C23.2024 8.01489 23.2024 8.1295 23.1866 8.24411L23.2221 7.98327C23.2064 8.10579 23.1748 8.2283 23.1275 8.34291L23.2261 8.10579C23.1748 8.22435 23.1117 8.33105 23.0367 8.43381L23.1906 8.23225C23.1196 8.32315 23.0407 8.40219 22.9499 8.47333L23.1511 8.3192C23.0525 8.39824 22.942 8.46147 22.8237 8.5089L23.0604 8.4101C22.942 8.45752 22.8237 8.48914 22.6974 8.5089L22.9578 8.47333C22.804 8.49309 22.6462 8.48519 22.4923 8.46938L22.7527 8.50495C22.6107 8.48519 22.4726 8.44962 22.3384 8.39429L22.5752 8.49309C22.4607 8.44566 22.3582 8.38638 22.2595 8.31129L22.4607 8.46543C22.37 8.39429 22.2911 8.31525 22.2201 8.22435L22.374 8.4259C22.3029 8.33105 22.2438 8.23225 22.2004 8.12555L22.299 8.36267C22.2517 8.25201 22.2201 8.13345 22.2043 8.01489L22.2398 8.27573C22.224 8.14926 22.224 8.02675 22.2398 7.90028L22.2043 8.16112C22.2201 8.04255 22.2517 7.92795 22.2951 7.81729L22.1964 8.05441C22.2398 7.95561 22.2911 7.86471 22.3542 7.77777L22.2004 7.97932C22.2635 7.89633 22.3345 7.82519 22.4174 7.76196L22.2162 7.91609C22.3029 7.8489 22.3976 7.79753 22.4963 7.75405L22.2595 7.85286C22.3779 7.80543 22.5002 7.77381 22.6264 7.75405L22.3661 7.78962C22.5396 7.76986 22.7132 7.77381 22.8868 7.79753L22.6264 7.76196C22.7053 7.77381 22.7842 7.78962 22.8631 7.80543C23.1196 7.86471 23.3918 7.841 23.6245 7.70663C23.8297 7.58807 24.023 7.35094 24.0782 7.11777C24.1926 6.61191 23.9283 6.027 23.3878 5.90054V5.90449Z" fill="#815E57"/>
<path d="M16.1554 51.4638C15.2559 51.2544 14.1908 51.3769 13.5754 52.1436C13.382 52.3846 13.2676 52.5822 13.1532 52.8707C13.0783 53.0644 13.0507 53.2699 13.0309 53.4794C12.9875 53.9062 13.098 54.3172 13.2716 54.7006C13.6543 55.5463 14.5695 55.9929 15.4611 56.0205C16.5539 56.0561 17.5559 55.325 17.8557 54.2698C18.0175 53.7007 17.9465 53.0842 17.6664 52.5664C17.3586 51.9973 16.7708 51.614 16.1515 51.4638C15.899 51.4006 15.6189 51.4322 15.3901 51.5626C15.1849 51.6812 14.9916 51.9183 14.9364 52.1515C14.822 52.6613 15.0902 53.2343 15.6268 53.3687C15.7293 53.3924 15.828 53.424 15.9227 53.4675L15.6859 53.3687C15.7964 53.4161 15.899 53.4754 15.9976 53.5505L15.7964 53.3964C15.8753 53.4596 15.9463 53.5307 16.0094 53.6058L15.8556 53.4043C15.9187 53.4873 15.97 53.5742 16.0094 53.6691L15.9108 53.4319C15.9503 53.5268 15.9739 53.6216 15.9897 53.7204L15.9542 53.4596C15.97 53.5742 15.97 53.6888 15.9542 53.8034L15.9897 53.5426C15.9739 53.6651 15.9424 53.7876 15.895 53.9022L15.9937 53.6651C15.9424 53.7837 15.8793 53.8904 15.8043 53.9931L15.9582 53.7916C15.8871 53.8825 15.8082 53.9615 15.7175 54.0327L15.9187 53.8785C15.8161 53.9576 15.7096 54.0208 15.5913 54.0682L15.828 53.9694C15.7096 54.0168 15.5913 54.0485 15.465 54.0682L15.7254 54.0327C15.5715 54.0524 15.4137 54.0445 15.2599 54.0287L15.5203 54.0643C15.3703 54.0445 15.2244 54.005 15.0824 53.9457L15.3191 54.0445C15.2125 53.9971 15.1139 53.9418 15.0232 53.8706L15.2244 54.0247C15.1336 53.9536 15.0547 53.8746 14.9837 53.7837L15.1376 53.9852C15.0666 53.8904 15.0074 53.7916 14.964 53.6849L15.0626 53.922C15.0153 53.8113 14.9837 53.6928 14.968 53.5742L15.0035 53.8351C14.9877 53.7086 14.9877 53.5861 15.0035 53.4596L14.968 53.7204C14.9837 53.6019 15.0153 53.4873 15.0587 53.3766L14.9601 53.6137C15.0035 53.5149 15.0547 53.424 15.1179 53.3371L14.964 53.5386C15.0271 53.4557 15.0981 53.3845 15.181 53.3213L14.9798 53.4754C15.0666 53.4082 15.1613 53.3568 15.2599 53.3134L15.0232 53.4122C15.1415 53.3648 15.2638 53.3331 15.3901 53.3134L15.1297 53.349C15.3033 53.3292 15.4769 53.3331 15.6504 53.3569L15.3901 53.3213C15.469 53.3331 15.5479 53.3489 15.6268 53.3648C15.8832 53.424 16.1554 53.4003 16.3882 53.266C16.5933 53.1474 16.7866 52.9103 16.8418 52.6771C16.9563 52.1712 16.6919 51.5863 16.1515 51.4599L16.1554 51.4638Z" fill="#815E57"/>
<path d="M19.9598 38.268C19.9282 37.7622 19.8217 37.2365 19.5377 36.8097C19.2536 36.3829 18.8631 36.0707 18.3699 35.8849C17.5691 35.5846 16.6499 35.8573 16.0345 36.4106C15.3362 37.0389 15.1547 38.0783 15.423 38.9517C15.7386 39.9714 16.7012 40.7302 17.7861 40.6827C18.362 40.659 18.9341 40.4417 19.3365 40.0188C19.7783 39.5485 19.9953 38.9083 19.9598 38.2641C19.9479 38.0032 19.8572 37.7543 19.6718 37.5646C19.5022 37.3946 19.2181 37.2642 18.9735 37.2761C18.7289 37.2879 18.4528 37.3709 18.2752 37.5646C18.0977 37.7582 17.9715 37.9993 17.9873 38.2641C17.9951 38.3826 17.9873 38.5012 17.9754 38.6237L18.0109 38.3629C17.9912 38.4854 17.9596 38.6039 17.9123 38.7146L18.0109 38.4775C17.9715 38.5644 17.9241 38.6474 17.8689 38.7225L18.0228 38.521C17.9636 38.6 17.8926 38.6672 17.8176 38.7304L18.0188 38.5763C17.936 38.6395 17.8492 38.6909 17.7545 38.7344L17.9912 38.6356C17.8807 38.683 17.7663 38.7107 17.6519 38.7304L17.9123 38.6948C17.7861 38.7107 17.6598 38.7107 17.5296 38.6948L17.79 38.7304C17.6677 38.7107 17.5494 38.679 17.4389 38.6316L17.6756 38.7304C17.5651 38.683 17.4665 38.6237 17.3718 38.5565L17.573 38.7107C17.4744 38.6356 17.3916 38.5486 17.3127 38.4538L17.4665 38.6553C17.3876 38.5486 17.3205 38.438 17.2693 38.3154L17.3679 38.5526C17.3166 38.4063 17.2771 38.2601 17.2535 38.106L17.289 38.3668C17.2693 38.2246 17.2693 38.0862 17.289 37.944L17.2535 38.2048C17.2693 38.0783 17.3048 37.9558 17.3521 37.8372L17.2535 38.0744C17.2969 37.9716 17.356 37.8728 17.4231 37.7819L17.2693 37.9835C17.3403 37.8926 17.4231 37.8096 17.5138 37.7384L17.3127 37.8926C17.4073 37.8214 17.5138 37.7582 17.6243 37.7108L17.3876 37.8096C17.502 37.7622 17.6243 37.7305 17.7466 37.7108L17.4862 37.7464C17.6046 37.7305 17.7229 37.7305 17.8373 37.7464L17.577 37.7108C17.6835 37.7266 17.7861 37.7543 17.8807 37.7938L17.644 37.695C17.7387 37.7345 17.8255 37.7859 17.9084 37.8491L17.7072 37.695C17.7939 37.7622 17.8689 37.8412 17.936 37.9281L17.7821 37.7266C17.861 37.8293 17.9202 37.94 17.9715 38.0625L17.8728 37.8254C17.9399 37.9914 17.9833 38.1653 18.007 38.3392L17.9715 38.0783C17.9794 38.1376 17.9833 38.2008 17.9873 38.2601C18.003 38.5249 18.0859 38.766 18.2752 38.9596C18.4449 39.1296 18.7289 39.26 18.9735 39.2481C19.2181 39.2363 19.4943 39.1533 19.6718 38.9596C19.8493 38.766 19.9795 38.521 19.9598 38.2601V38.268Z" fill="#815E57"/>
<path d="M19.9671 21.2385C19.4582 21.3017 18.9454 21.4084 18.5233 21.7207C18.1011 22.0329 17.7934 22.4162 17.6356 22.926C17.3871 23.7283 17.6554 24.6491 18.2392 25.234C18.902 25.898 19.9395 26.0837 20.8114 25.7518C21.3597 25.5423 21.8253 25.2024 22.1251 24.6887C22.3578 24.2895 22.488 23.7955 22.4446 23.3331C22.3933 22.7601 22.1803 22.1949 21.7385 21.8076C21.2532 21.3847 20.6141 21.1674 19.9671 21.2385C19.6989 21.2662 19.4701 21.3294 19.2689 21.527C19.0992 21.697 18.9691 21.9815 18.9809 22.2265C18.9927 22.4716 19.0756 22.7482 19.2689 22.926C19.4503 23.092 19.7107 23.2422 19.9671 23.2145C20.1131 23.1987 20.2591 23.1987 20.405 23.2145L20.1447 23.179C20.263 23.1948 20.3774 23.2264 20.4879 23.2738L20.2512 23.175C20.3459 23.2145 20.4287 23.2659 20.5116 23.3291L20.3104 23.175C20.3853 23.2343 20.4524 23.3054 20.5116 23.3805L20.3577 23.179C20.4208 23.262 20.4721 23.3489 20.5116 23.4438L20.4129 23.2066C20.4563 23.3173 20.4879 23.428 20.5037 23.5465L20.4682 23.2857C20.4839 23.4121 20.4839 23.5386 20.4682 23.6651L20.5037 23.4042C20.4879 23.5268 20.4524 23.6414 20.409 23.756L20.5076 23.5188C20.4563 23.6335 20.3972 23.7441 20.3183 23.8429L20.4721 23.6414C20.4011 23.7323 20.3183 23.8113 20.2275 23.8824L20.4287 23.7283C20.338 23.7994 20.2394 23.8587 20.1328 23.9062L20.3695 23.8074C20.2078 23.8745 20.0382 23.9259 19.8606 23.9496L20.121 23.9141C19.9829 23.9338 19.8488 23.9338 19.7107 23.9141L19.9711 23.9496C19.8488 23.9338 19.7265 23.9022 19.6121 23.8508L19.8488 23.9496C19.7462 23.9062 19.6515 23.8469 19.5608 23.7797L19.762 23.9338C19.6713 23.8627 19.5924 23.7836 19.5214 23.6927L19.6752 23.8943C19.6042 23.7994 19.5411 23.6967 19.4937 23.586L19.5924 23.8232C19.545 23.7085 19.5095 23.59 19.4937 23.4635L19.5292 23.7244C19.5135 23.6058 19.5135 23.4912 19.5292 23.3726L19.4937 23.6335C19.5095 23.5268 19.5371 23.424 19.5766 23.3252L19.478 23.5623C19.5174 23.4675 19.5687 23.3766 19.6318 23.2936L19.478 23.4951C19.545 23.4082 19.6239 23.3292 19.7107 23.262L19.5095 23.4161C19.616 23.3371 19.7265 23.2699 19.8488 23.2185L19.6121 23.3173C19.8015 23.2383 19.9948 23.1908 20.196 23.1632L19.9356 23.1987H19.9671C20.2394 23.1632 20.4642 23.1078 20.6654 22.9063C20.8351 22.7363 20.9652 22.4518 20.9534 22.2068C20.9416 21.9617 20.8587 21.6851 20.6654 21.5073C20.4879 21.3413 20.2196 21.1871 19.9671 21.2187V21.2385Z" fill="#815E57"/>
<path d="M12.85 64.6164C12.341 64.6796 11.8282 64.7863 11.4061 65.0985C10.984 65.4108 10.6762 65.7941 10.5184 66.3039C10.2699 67.1062 10.5382 68.027 11.122 68.6119C11.7848 69.2759 12.8223 69.4616 13.6942 69.1296C14.2426 68.9202 14.7081 68.5803 15.0079 68.0665C15.2407 67.6674 15.3708 67.1734 15.3274 66.711C15.2762 66.1379 15.0631 65.5728 14.6213 65.1855C14.136 64.7626 13.4969 64.5453 12.85 64.6164C12.5817 64.6441 12.3529 64.7073 12.1517 64.9049C11.982 65.0748 11.8519 65.3594 11.8637 65.6044C11.8755 65.8494 11.9584 66.1261 12.1517 66.3039C12.3332 66.4699 12.5935 66.6201 12.85 66.5924C12.9959 66.5766 13.1419 66.5766 13.2879 66.5924L13.0275 66.5569C13.1458 66.5727 13.2602 66.6043 13.3707 66.6517L13.134 66.5529C13.2287 66.5924 13.3115 66.6438 13.3944 66.707L13.1932 66.5529C13.2681 66.6122 13.3352 66.6833 13.3944 66.7584L13.2405 66.5569C13.3036 66.6398 13.3549 66.7268 13.3944 66.8216L13.2957 66.5845C13.3391 66.6952 13.3707 66.8058 13.3865 66.9244L13.351 66.6636C13.3668 66.79 13.3668 66.9165 13.351 67.043L13.3865 66.7821C13.3668 66.9046 13.3352 67.0192 13.2918 67.1339L13.3904 66.8967C13.3391 67.0113 13.276 67.122 13.2011 67.2208L13.3549 67.0192C13.2839 67.1101 13.2011 67.1892 13.1103 67.2603L13.3115 67.1062C13.2208 67.1773 13.1222 67.2366 13.0157 67.284L13.2524 67.1852C13.0906 67.2524 12.921 67.3038 12.7434 67.3275L13.0038 67.2919C12.8657 67.3117 12.7316 67.3117 12.5935 67.2919L12.8539 67.3275C12.7316 67.3117 12.6093 67.2801 12.4949 67.2287L12.7316 67.3275C12.629 67.284 12.5344 67.2247 12.4436 67.1576L12.6448 67.3117C12.5541 67.2406 12.4752 67.1615 12.4042 67.0706L12.558 67.2722C12.487 67.1773 12.4239 67.0746 12.3766 66.9639L12.4752 67.201C12.4278 67.0864 12.3923 66.9679 12.3766 66.8414L12.4121 67.1022C12.3963 66.9837 12.3963 66.8691 12.4121 66.7505L12.3766 67.0113C12.3923 66.9046 12.4199 66.8019 12.4594 66.707L12.3608 66.9442C12.4002 66.8493 12.4515 66.7584 12.5146 66.6754L12.3608 66.877C12.4278 66.79 12.5067 66.711 12.5935 66.6438L12.3923 66.7979C12.4989 66.7189 12.6093 66.6517 12.7316 66.6003L12.4949 66.6991C12.6843 66.6201 12.8776 66.5727 13.0788 66.545L12.8184 66.5806H12.85C13.1222 66.545 13.347 66.4897 13.5482 66.2881C13.7179 66.1182 13.8481 65.8336 13.8362 65.5886C13.8244 65.3436 13.7415 65.0669 13.5482 64.8891C13.3707 64.7231 13.1024 64.569 12.85 64.6006V64.6164Z" fill="#815E57"/>
<path d="M22.9489 7.12575C21.864 5.74648 20.5148 4.57668 18.7396 4.25261C16.9643 3.92854 14.9602 4.2368 13.4137 5.24457C10.9323 6.86492 9.68568 10.1767 10.739 13.0064C11.0625 13.8719 11.5596 14.6228 12.1356 15.3421C12.6602 15.9942 13.3743 16.3815 14.1909 16.5198C14.6959 16.6067 15.2758 16.3854 15.406 15.8282C15.5165 15.35 15.26 14.7058 14.7156 14.611C14.5578 14.5833 14.404 14.5517 14.2501 14.5082C14.183 14.4884 14.1199 14.4608 14.0528 14.441C13.9542 14.4134 14.1594 14.4884 14.1594 14.4845C14.1317 14.4568 14.0726 14.441 14.041 14.4252C13.9858 14.3975 13.9384 14.362 13.8872 14.3304C13.7451 14.2474 14.045 14.4726 13.9227 14.358C13.8161 14.2592 13.7136 14.1604 13.6189 14.0537C13.5873 14.0142 13.5479 13.9431 13.5084 13.9193C13.6228 13.9905 13.611 14.0577 13.5479 13.9707C13.5282 13.9431 13.5084 13.9193 13.4887 13.8917C13.3822 13.7455 13.2796 13.5992 13.177 13.449C12.9956 13.1882 12.8338 12.9155 12.6997 12.627C12.6879 12.5994 12.6721 12.5677 12.6602 12.5401C12.5971 12.4018 12.6918 12.5954 12.6839 12.5994C12.6839 12.5994 12.6208 12.4334 12.6168 12.4215C12.5616 12.2713 12.5182 12.1212 12.4748 11.967C12.4393 11.8248 12.4078 11.6825 12.3801 11.5363C12.3723 11.4967 12.3683 11.4533 12.3604 11.4137C12.3407 11.307 12.3723 11.5244 12.3762 11.5204C12.392 11.4533 12.3565 11.3426 12.3525 11.2715C12.3289 10.9711 12.3328 10.6708 12.3604 10.3704C12.3683 10.3032 12.388 10.2202 12.3841 10.153C12.3841 10.153 12.3446 10.3664 12.3723 10.2637C12.3801 10.2321 12.3801 10.2005 12.388 10.1728C12.4157 10.0187 12.4472 9.86848 12.4867 9.71831C12.5222 9.57603 12.5656 9.43771 12.609 9.29939C12.6326 9.2322 12.6563 9.16106 12.6839 9.09388C12.6918 9.07412 12.7313 8.99113 12.7313 8.97927C12.7391 9.00298 12.6445 9.17687 12.7036 9.0425C12.8299 8.76981 12.968 8.50107 13.1337 8.24814C13.1573 8.21257 13.3782 7.93197 13.3664 7.91617C13.3782 7.93593 13.2323 8.08215 13.327 7.96754C13.3467 7.94383 13.3664 7.92012 13.3861 7.8964C13.4414 7.83317 13.4966 7.76994 13.5518 7.70671C13.6504 7.59605 13.753 7.4933 13.8635 7.39054C13.9069 7.34707 14.1673 7.07042 14.2264 7.07833C14.2264 7.07833 14.0252 7.22456 14.1791 7.11785C14.2067 7.09809 14.2304 7.08228 14.258 7.06252C14.3211 7.01905 14.3803 6.97557 14.4434 6.93605C14.5815 6.84911 14.7196 6.76612 14.8655 6.69103C14.9326 6.65546 15.0036 6.61989 15.0707 6.58827C15.1377 6.55666 15.2955 6.48947 15.1377 6.5527C15.331 6.47366 15.5243 6.40253 15.7255 6.34325C15.911 6.28792 16.1003 6.23654 16.2936 6.19702C16.3883 6.17726 16.4869 6.16145 16.5816 6.14169C16.5974 6.14169 16.7394 6.11798 16.6171 6.13379C16.479 6.15355 16.7079 6.12588 16.7355 6.12193C17.1379 6.08241 17.5442 6.07846 17.9505 6.11798C17.9939 6.11798 18.0334 6.12588 18.0768 6.12983C18.2701 6.1496 17.9861 6.11007 18.1044 6.13379C18.2149 6.1575 18.3214 6.17331 18.4318 6.19702C18.6488 6.24444 18.8619 6.30373 19.0709 6.37881C19.1104 6.39067 19.1459 6.40648 19.1853 6.42229C19.063 6.37881 19.1064 6.38672 19.2011 6.43019C19.2958 6.47366 19.3865 6.52109 19.4773 6.56851C19.6548 6.66336 19.8244 6.77007 19.9901 6.88468C20.0217 6.90444 20.0493 6.92815 20.0809 6.94791C20.2347 7.05462 19.998 6.87282 20.0888 6.95186C20.1637 7.0151 20.2426 7.07833 20.3176 7.14551C20.4675 7.27593 20.6095 7.41425 20.7476 7.56048C21.0395 7.86479 21.3078 8.18886 21.5721 8.52083C21.8916 8.92789 22.6373 8.88442 22.9686 8.52083C23.3631 8.09006 23.3119 7.56048 22.9686 7.1218L22.9489 7.12575Z" fill="#815E57"/>
<path d="M20.152 22.5427C19.0672 21.1635 17.7179 19.9937 15.9427 19.6696C14.1674 19.3455 12.1633 19.6538 10.6169 20.6616C8.13544 22.2819 6.88881 25.5937 7.94213 28.4234C8.26563 29.2889 8.7627 30.0398 9.33868 30.7591C9.86337 31.4112 10.5774 31.7985 11.394 31.9368C11.899 32.0237 12.4789 31.8024 12.6091 31.2452C12.7196 30.767 12.4632 30.1228 11.9187 30.0279C11.7609 30.0003 11.6071 29.9687 11.4532 29.9252C11.3862 29.9054 11.323 29.8778 11.256 29.858C11.1573 29.8303 11.3625 29.9054 11.3625 29.9015C11.3349 29.8738 11.2757 29.858 11.2441 29.8422C11.1889 29.8145 11.1416 29.779 11.0903 29.7473C10.9483 29.6644 11.2481 29.8896 11.1258 29.775C11.0193 29.6762 10.9167 29.5774 10.822 29.4707C10.7905 29.4312 10.751 29.3601 10.7116 29.3363C10.822 29.4075 10.8141 29.4747 10.751 29.3877C10.7313 29.36 10.7116 29.3363 10.6918 29.3087C10.5853 29.1624 10.4827 29.0162 10.3802 28.866C10.1987 28.6052 10.037 28.3325 9.90282 28.044C9.89099 28.0163 9.87521 27.9847 9.86337 27.9571C9.80025 27.8187 9.89493 28.0124 9.88704 28.0163C9.88704 28.0163 9.82392 27.8504 9.81997 27.8385C9.76474 27.6883 9.72135 27.5381 9.67795 27.384C9.64245 27.2417 9.61089 27.0995 9.58327 26.9532C9.57538 26.9137 9.57144 26.8703 9.56355 26.8307C9.54382 26.724 9.57538 26.9414 9.57933 26.9374C9.59511 26.8703 9.5596 26.7596 9.55566 26.6885C9.53199 26.3881 9.53593 26.0877 9.56355 25.7874C9.57144 25.7202 9.59116 25.6372 9.58722 25.57C9.58722 25.57 9.54777 25.7834 9.57538 25.6807C9.58327 25.6491 9.58327 25.6174 9.59116 25.5898C9.61878 25.4357 9.65034 25.2855 9.68979 25.1353C9.72529 24.993 9.76869 24.8547 9.81209 24.7164C9.83576 24.6492 9.85943 24.5781 9.88704 24.5109C9.89493 24.4911 9.93438 24.4081 9.93438 24.3963C9.94227 24.42 9.84759 24.5939 9.90677 24.4595C10.033 24.1868 10.1711 23.9181 10.3368 23.6651C10.3604 23.6296 10.5814 23.349 10.5695 23.3332C10.5814 23.3529 10.4354 23.4991 10.5301 23.3845C10.5498 23.3608 10.5695 23.3371 10.5893 23.3134C10.6445 23.2502 10.6997 23.1869 10.7549 23.1237C10.8536 23.013 10.9561 22.9103 11.0666 22.8075C11.11 22.7641 11.3704 22.4874 11.4296 22.4953C11.4296 22.4953 11.2284 22.6415 11.3822 22.5348C11.4098 22.5151 11.4335 22.4993 11.4611 22.4795C11.5242 22.436 11.5834 22.3926 11.6465 22.353C11.7846 22.2661 11.9227 22.1831 12.0686 22.108C12.1357 22.0725 12.2067 22.0369 12.2738 22.0053C12.3409 21.9736 12.4987 21.9065 12.3409 21.9697C12.5342 21.8907 12.7275 21.8195 12.9287 21.7602C13.1141 21.7049 13.3034 21.6535 13.4968 21.614C13.5914 21.5943 13.6901 21.5784 13.7847 21.5587C13.8005 21.5587 13.9425 21.535 13.8202 21.5508C13.6822 21.5705 13.911 21.5429 13.9386 21.5389C14.341 21.4994 14.7473 21.4955 15.1537 21.535C15.1971 21.535 15.2365 21.5429 15.2799 21.5468C15.4732 21.5666 15.1892 21.5271 15.3075 21.5508C15.418 21.5745 15.5245 21.5903 15.635 21.614C15.8519 21.6614 16.065 21.7207 16.2741 21.7958C16.3135 21.8077 16.349 21.8235 16.3885 21.8393C16.2662 21.7958 16.3096 21.8037 16.4043 21.8472C16.4989 21.8907 16.5897 21.9381 16.6804 21.9855C16.8579 22.0804 17.0276 22.1871 17.1933 22.3017C17.2248 22.3214 17.2524 22.3451 17.284 22.3649C17.4379 22.4716 17.2011 22.2898 17.2919 22.3689C17.3668 22.4321 17.4457 22.4953 17.5207 22.5625C17.6706 22.6929 17.8126 22.8312 17.9507 22.9775C18.2426 23.2818 18.5109 23.6059 18.7752 23.9378C19.0948 24.3449 19.8404 24.3014 20.1718 23.9378C20.5663 23.507 20.515 22.9775 20.1718 22.5388L20.152 22.5427Z" fill="#815E57"/>
<path d="M17.5602 36.9322C16.4714 35.5529 15.1262 34.3871 13.3509 34.059C11.5756 33.731 9.57153 34.0393 8.02508 35.051C5.54364 36.6714 4.29701 39.9832 5.35034 42.8129C5.67383 43.6784 6.17091 44.4293 6.74688 45.1485C7.27157 45.8006 7.98168 46.1879 8.80225 46.3262C9.30721 46.4132 9.88714 46.1919 10.0173 45.6346C10.1278 45.1564 9.87136 44.5122 9.32694 44.4174C9.16914 44.3897 9.01528 44.3581 8.86142 44.3146C8.79436 44.2949 8.73124 44.2672 8.66417 44.2475C8.56555 44.2198 8.77069 44.2949 8.77069 44.2909C8.74307 44.2633 8.6839 44.2475 8.65234 44.2317C8.59711 44.204 8.54977 44.1684 8.49848 44.1368C8.35646 44.0538 8.65628 44.2791 8.53399 44.1645C8.42747 44.0657 8.3249 43.9669 8.23416 43.8602C8.2026 43.8206 8.16315 43.7495 8.1237 43.7258C8.23811 43.8009 8.22627 43.8641 8.16315 43.7772C8.14343 43.7495 8.1237 43.7258 8.10398 43.6981C7.99746 43.5519 7.89489 43.4057 7.79232 43.2555C7.61085 42.9947 7.4491 42.722 7.31497 42.4335C7.30313 42.4058 7.28735 42.3742 7.27552 42.3465C7.2124 42.2082 7.30708 42.4018 7.29919 42.4058C7.29919 42.4058 7.23607 42.2398 7.23212 42.228C7.17689 42.0778 7.1335 41.9276 7.0901 41.7735C7.0546 41.6312 7.02304 41.4889 6.99542 41.3427C6.98753 41.3032 6.98359 41.2597 6.9757 41.2202C6.95597 41.1135 6.98753 41.3308 6.99147 41.3269C7.00726 41.2597 6.97175 41.149 6.9678 41.0779C6.94413 40.7776 6.94808 40.4772 6.9757 40.1768C6.98359 40.1097 7.00331 40.0267 6.99937 39.9595C6.99937 39.9595 6.95991 40.1729 6.98753 40.0701C6.99542 40.0385 6.99542 40.0069 7.00331 39.9792C7.03093 39.8251 7.06249 39.6749 7.10194 39.5247C7.13744 39.3825 7.18084 39.2442 7.22423 39.1058C7.2479 39.0386 7.27157 38.9675 7.29919 38.9003C7.30708 38.8806 7.34653 38.7976 7.34653 38.7857C7.35442 38.8094 7.25974 38.9833 7.31891 38.8489C7.44515 38.5763 7.58323 38.3075 7.74892 38.0546C7.77259 38.019 7.99352 37.7384 7.98168 37.7226C7.99352 37.7424 7.84755 37.8886 7.94223 37.774C7.96196 37.7503 7.98168 37.7266 8.00141 37.7028C8.05664 37.6396 8.11187 37.5764 8.1671 37.5131C8.26572 37.4025 8.36829 37.2997 8.47876 37.197C8.52215 37.1535 8.78252 36.8729 8.83775 36.8848C8.83775 36.8848 8.63656 37.031 8.79041 36.9243C8.81803 36.9045 8.8417 36.8887 8.86931 36.869C8.93244 36.8255 8.99161 36.782 9.05473 36.7425C9.19281 36.6556 9.33089 36.5726 9.47685 36.4975C9.54392 36.4619 9.61493 36.4263 9.68199 36.3947C9.74906 36.3631 9.90686 36.2959 9.74906 36.3591C9.94237 36.2801 10.1357 36.209 10.3369 36.1497C10.5223 36.0944 10.7116 36.043 10.905 36.0035C10.9996 35.9837 11.0983 35.9679 11.1929 35.9481C11.2087 35.9481 11.3507 35.9244 11.2284 35.9402C11.0904 35.96 11.3192 35.9323 11.3468 35.9284C11.7492 35.8889 12.1555 35.8849 12.5619 35.9244C12.6053 35.9244 12.6447 35.9323 12.6881 35.9363C12.8814 35.956 12.5974 35.9165 12.7157 35.9402C12.8262 35.9639 12.9327 35.9798 13.0432 36.0035C13.2601 36.0509 13.4732 36.1102 13.6823 36.1853C13.7217 36.1971 13.7572 36.2129 13.7967 36.2287C13.6744 36.1853 13.7178 36.1932 13.8125 36.2366C13.9071 36.2801 13.9979 36.3275 14.0886 36.375C14.2661 36.4698 14.4358 36.5765 14.6015 36.6911C14.633 36.7109 14.6606 36.7346 14.6922 36.7544C14.8461 36.8611 14.6093 36.6793 14.7001 36.7583C14.775 36.8215 14.8539 36.8848 14.9289 36.952C15.0788 37.0824 15.2208 37.2207 15.3589 37.3669C15.6508 37.6712 15.9191 37.9953 16.1834 38.3273C16.503 38.7343 17.2486 38.6909 17.58 38.3273C17.9745 37.8965 17.9232 37.3669 17.58 36.9282L17.5602 36.9322Z" fill="#815E57"/>
<path d="M15.627 52.523C15.1417 51.9064 14.6012 51.3294 14.0174 50.8038C13.3388 50.1913 12.6051 49.638 11.7569 49.2902C10.9087 48.9424 9.91059 48.8278 8.99535 48.8831C7.96569 48.9464 6.98337 49.2032 6.05629 49.6498C3.27109 50.9896 1.79564 54.3725 2.6241 57.3405C2.86081 58.1863 3.28687 58.9214 3.79578 59.6248C4.00092 59.9094 4.21001 60.2018 4.48222 60.4231C4.78993 60.6761 5.12526 60.8658 5.47242 61.0555C5.9261 61.3044 6.56914 61.1819 6.82163 60.6998C7.07411 60.2176 6.95181 59.613 6.46657 59.3482C6.22593 59.2178 5.98922 59.0794 5.75647 58.9332C5.63022 58.8502 5.94583 59.1031 5.81564 58.9767C5.78408 58.9451 5.74858 58.9135 5.71307 58.8818C5.67362 58.8423 5.63417 58.7988 5.59866 58.7593C5.58288 58.7435 5.57105 58.7238 5.55527 58.7079C5.4527 58.5894 5.57499 58.7238 5.60261 58.7712C5.42903 58.4827 5.19627 58.2218 5.01874 57.9333C4.93984 57.8029 4.86489 57.6686 4.79388 57.5342C4.75837 57.467 4.72681 57.3998 4.69525 57.3287C4.63607 57.2022 4.69525 57.2852 4.67947 57.301C4.70708 57.3682 4.71103 57.38 4.6913 57.3287C4.67947 57.2971 4.66763 57.2694 4.6558 57.2378C4.54928 56.9532 4.46644 56.6568 4.41121 56.3565C4.39937 56.2932 4.39937 56.1984 4.3757 56.1391C4.44277 56.2972 4.39543 56.313 4.38754 56.2142C4.38754 56.1747 4.37965 56.1312 4.3757 56.0917C4.36387 55.9375 4.35598 55.7795 4.35598 55.6253C4.35598 55.4712 4.36387 55.3131 4.3757 55.159C4.38359 55.0879 4.39148 55.0167 4.39937 54.9416C4.40726 54.831 4.38359 55.0523 4.38359 55.0523C4.40332 55.0128 4.39937 54.9416 4.40726 54.8982C4.46249 54.5938 4.54139 54.2895 4.64396 53.9971C4.66763 53.9299 4.69525 53.8627 4.71892 53.7916C4.7781 53.6256 4.63213 53.9734 4.72681 53.7679C4.79782 53.6177 4.86883 53.4675 4.95168 53.3213C5.02269 53.1948 5.09764 53.0684 5.17654 52.9458C5.21599 52.8866 5.25939 52.8233 5.29884 52.764C5.30673 52.7522 5.3738 52.6652 5.3738 52.6613C5.38169 52.6692 5.23572 52.8312 5.33435 52.7127C5.53554 52.4716 5.74858 52.2384 5.98528 52.029C6.0484 51.9736 6.11546 51.9183 6.17859 51.8669C6.03262 51.9697 6.31666 51.7523 6.17859 51.8669C6.32061 51.7681 6.45868 51.6693 6.60859 51.5824C6.73878 51.5033 6.87291 51.4322 7.01099 51.365C7.05438 51.3453 7.34237 51.2188 7.13723 51.3018C7.2398 51.2583 7.34237 51.2188 7.44889 51.1832C7.84734 51.0409 8.24973 50.954 8.66396 50.8789C8.46671 50.9145 8.69947 50.8789 8.77837 50.8671C8.87699 50.8592 8.97562 50.8512 9.0703 50.8473C9.29517 50.8354 9.51609 50.8394 9.74096 50.8473C9.83958 50.8512 9.93427 50.8592 10.0329 50.871C10.0763 50.875 10.1157 50.8789 10.1591 50.8868C9.95005 50.8631 10.1 50.8789 10.1434 50.8868C10.3485 50.9303 10.5497 50.9659 10.7509 51.0251C10.8692 51.0607 10.9876 51.1002 11.1059 51.1397C11.1651 51.1595 11.1967 51.1397 11.1059 51.1397C11.027 51.1042 11.027 51.1081 11.1059 51.1397L11.1651 51.1674C11.3387 51.2544 11.5083 51.3532 11.674 51.4599C11.7569 51.5112 11.8358 51.5666 11.9147 51.6219C11.9581 51.6535 12.25 51.8472 12.0488 51.7167C12.2184 51.8274 12.3723 51.9815 12.5262 52.1159C13.1455 52.6613 13.7136 53.266 14.2225 53.9141C14.5421 54.3212 15.2837 54.2777 15.6191 53.9141C16.0136 53.4833 15.9623 52.9498 15.6191 52.5151L15.627 52.523Z" fill="#815E57"/>
<path d="M13.2402 66.0232C12.755 65.4067 12.2145 64.8297 11.6307 64.3041C10.9521 63.6915 10.2183 63.1382 9.37015 62.7904C8.52197 62.4426 7.52388 62.328 6.60863 62.3834C5.57897 62.4466 4.59665 62.7035 3.66957 63.1501C0.884371 64.4898 -0.591075 67.8728 0.237384 70.8408C0.474086 71.6865 0.900151 72.4216 1.41301 73.1251C1.61815 73.4096 1.82724 73.7021 2.09944 73.9234C2.40716 74.1763 2.74249 74.366 3.08965 74.5557C3.54333 74.8047 4.18637 74.6822 4.43885 74.2C4.69134 73.7179 4.56904 73.1132 4.0838 72.8484C3.84315 72.714 3.60645 72.5797 3.37369 72.4295C3.24745 72.3465 3.56305 72.5994 3.43287 72.473C3.40131 72.4414 3.3658 72.4097 3.3303 72.3781C3.29085 72.3386 3.2514 72.2951 3.21589 72.2556C3.20011 72.2398 3.18827 72.22 3.17249 72.2042C3.06992 72.0857 3.19222 72.22 3.21984 72.2675C3.04231 71.979 2.8135 71.7221 2.63597 71.4336C2.55707 71.3032 2.48211 71.1688 2.4111 71.0344C2.3756 70.9672 2.34404 70.9001 2.31248 70.8289C2.2533 70.7064 2.31248 70.7854 2.2967 70.8012C2.32431 70.8684 2.32826 70.8803 2.30853 70.8289C2.2967 70.7973 2.28486 70.7696 2.27303 70.738C2.16651 70.4535 2.08366 70.1571 2.02843 69.8567C2.0166 69.7935 2.0166 69.6986 1.99293 69.6393C2.05999 69.7974 2.01265 69.8132 2.00476 69.7144C2.00476 69.6749 1.99687 69.6314 1.99293 69.5919C1.98109 69.4378 1.9732 69.2797 1.9732 69.1256C1.9732 68.9714 1.98109 68.8134 1.99293 68.6592C2.00082 68.5881 2.00871 68.517 2.0166 68.4419C2.02449 68.3312 2.00082 68.5525 2.00082 68.5525C2.02054 68.513 2.0166 68.4419 2.02449 68.3984C2.07972 68.0941 2.15862 67.7898 2.26119 67.4973C2.28486 67.4301 2.31248 67.363 2.33615 67.2918C2.39532 67.1258 2.24936 67.4736 2.34404 67.2681C2.41505 67.1179 2.48606 66.9678 2.5689 66.8215C2.63991 66.6951 2.71487 66.5686 2.79377 66.4461C2.83322 66.3868 2.87662 66.3236 2.91607 66.2643C2.92396 66.2524 2.99102 66.1655 2.99102 66.1615C2.99891 66.1694 2.85295 66.3315 2.95157 66.2129C3.15277 65.9718 3.3658 65.7387 3.6025 65.5292C3.66562 65.4739 3.73269 65.4185 3.79581 65.3672C3.64984 65.4699 3.93389 65.2526 3.79581 65.3672C3.93783 65.2684 4.07591 65.1696 4.22582 65.0826C4.35601 65.0036 4.49014 64.9324 4.62821 64.8653C4.67161 64.8455 4.95565 64.719 4.75446 64.802C4.85703 64.7586 4.9596 64.719 5.06611 64.6835C5.46456 64.5412 5.86696 64.4542 6.28119 64.3792C6.08394 64.4147 6.31669 64.3792 6.39559 64.3673C6.49422 64.3594 6.59285 64.3515 6.68753 64.3475C6.91239 64.3357 7.13332 64.3396 7.35818 64.3475C7.45681 64.3515 7.55149 64.3594 7.65012 64.3713C7.69351 64.3752 7.73296 64.3792 7.77636 64.3871C7.56727 64.3633 7.71718 64.3792 7.76058 64.3871C7.96572 64.4305 8.16692 64.4661 8.36811 64.5254C8.48646 64.561 8.60482 64.6005 8.72317 64.64C8.7784 64.6597 8.81785 64.64 8.72317 64.64C8.59298 64.6321 8.72711 64.6439 8.78234 64.6716C8.95592 64.7586 9.12556 64.8574 9.29125 64.9641C9.3741 65.0154 9.453 65.0708 9.5319 65.1261C9.5753 65.1577 9.86723 65.3514 9.66603 65.2209C9.83567 65.3316 9.98953 65.4857 10.1434 65.6201C10.7628 66.1655 11.3308 66.7701 11.8398 67.4183C12.1593 67.8253 12.9049 67.7819 13.2363 67.4183C13.6308 66.9875 13.5795 66.454 13.2363 66.0193L13.2402 66.0232Z" fill="#815E57"/>
</g>
<defs>
<clipPath id="clip0_282_720">
<rect width="87" height="92" fill="white"/>
</clipPath>
</defs>
</svg>
