<svg width="94" height="92" viewBox="0 0 94 92" fill="none" xmlns="http://www.w3.org/2000/svg">
<g clip-path="url(#clip0_165_138)">
<path d="M81.3775 17.309C85.659 17.8453 88.849 21.2129 90.9514 24.7183C93.0844 28.1357 94.1184 32.2924 93.9921 36.3074C93.5708 46.9425 87.4857 56.2406 81.3967 64.5579C71.5165 78.143 55.3213 96.3867 36.5987 91.0538C27.9784 88.5751 20.1584 82.112 24.7922 72.4577C27.2469 67.4581 31.8309 63.2707 37.4412 62.3665C40.3631 61.8876 43.691 62.9259 45.5828 65.2399C46.5517 66.3394 47.2448 67.5653 47.8307 68.7645C48.3898 69.8487 48.857 71.2624 49.5349 72.1473C49.5387 72.155 49.5234 72.1397 49.4928 72.1282C49.4545 72.109 49.397 72.0899 49.3242 72.0822C49.2974 72.0822 49.3204 72.0784 49.3128 72.0822C49.4468 72.0822 49.6689 72.0324 49.8106 71.9941C51.5186 71.5075 53.1883 70.634 54.7813 69.7682C63.754 64.8453 70.6854 57.4436 75.1392 48.2374C75.7443 46.8927 76.4489 45.4982 76.5983 44.1037C76.5983 44.0079 76.5983 44.1037 76.6289 44.1343C76.6863 44.211 76.6097 44.1114 76.4949 44.0539C76.0889 43.8202 75.4609 43.6133 74.8711 43.4141C71.2637 42.3107 66.7755 40.5293 65.3126 36.5373C62.0805 27.7947 72.4815 16.3589 81.3814 17.3128L81.3775 17.309ZM81.1056 19.5042C73.7223 18.6192 64.0871 28.5264 66.764 35.9779C67.5835 38.2344 69.6438 39.7056 71.819 40.6212C73.5691 41.4258 75.5413 41.7476 77.3182 42.6211C78.402 43.1766 78.3675 44.2186 78.1033 45.2262C77.0004 49.0765 74.9784 52.4517 72.8568 55.777C68.606 62.3819 62.697 67.8335 55.9187 71.7834C54.0882 72.8216 52.2462 73.856 50.1629 74.4268C49.7991 74.4996 49.42 74.5763 49.037 74.5341C48.3707 74.4766 47.7809 73.9786 47.4325 73.5074C45.5368 70.6302 44.6407 66.4352 41.0256 65.3318C35.4153 63.8798 29.7859 68.933 27.5073 73.7372C23.7544 81.4837 30.7548 86.1653 37.4335 88.1652C54.7277 93.1571 70.2872 75.7639 79.6274 63.2515C86.5857 53.8577 94.8154 41.1729 90.6106 29.1432C88.9639 25.0095 85.7662 20.1861 81.1056 19.5157V19.5042Z" fill="#815E57"/>
<path d="M36.561 46.9695C38.4298 48.7969 42.1789 52.5361 44.0248 54.3903L42.6231 54.8041C43.0827 52.923 43.5346 51.0381 43.9711 49.1494C44.4192 47.2645 44.8405 45.3758 45.2732 43.487C45.3153 43.2955 45.4264 43.1422 45.5719 43.035C53.725 37.0929 57.9375 26.2777 53.3765 16.8417C51.006 12.0988 46.782 8.48229 42.0066 6.25259C33.8612 2.35636 23.7473 2.87356 15.9619 7.35211C8.03087 11.8115 3.00268 20.7035 2.39761 29.7066C1.75808 40.108 7.62111 46.7818 17.7349 48.4905C23.0121 49.3793 28.5994 49.2222 33.7654 47.7396C34.2977 47.594 34.8836 47.3871 35.4083 47.2109C35.7606 47.0615 36.1933 46.9695 36.561 46.9733V46.9695ZM36.0976 49.1341C36.1704 49.2069 36.2699 49.2413 36.3542 49.2184C36.3695 49.2145 36.3657 49.2145 36.3465 49.2184C36.1474 49.295 35.7376 49.4176 35.5423 49.4865C27.2207 52.0917 15.5981 51.9231 8.11129 47.0806C-3.86369 39.1119 -1.10259 21.1862 6.87435 11.2637C11.0983 5.98441 17.1605 2.48662 23.7703 1.2032C30.315 -0.0687233 37.2809 0.724314 43.2435 3.77387C52.5263 8.45547 58.7877 17.4739 56.9112 28.1358C55.7968 34.6793 51.7911 40.4337 46.4833 44.2877L46.782 43.8357C46.3493 45.7244 45.9089 47.6093 45.4953 49.5019C45.0702 51.3906 44.6605 53.287 44.2584 55.1796C44.1435 55.8002 43.324 56.053 42.8797 55.6125C41.1718 53.9919 37.7864 50.7738 36.1014 49.1341H36.0976Z" fill="#815E57"/>
<path d="M12.185 21.7264C17.5043 21.0828 22.6282 19.3511 27.6104 17.4241C30.1149 16.4357 32.5429 15.271 34.9631 14.091C35.5606 13.8803 36.1158 13.3631 36.7707 13.9263C36.989 14.7768 36.2575 15.0297 35.7788 15.4664C32.5927 17.6999 29.1039 19.4622 25.5233 20.9717C21.3912 22.665 17.0562 23.7492 12.7097 24.7492C10.6149 25.1552 10.0596 22.0597 12.1888 21.7302L12.185 21.7264Z" fill="#815E57"/>
<path d="M13.6496 34.2926C17.3489 33.7639 20.941 32.5073 24.2689 30.8139C27.6542 29.0056 30.9591 26.8334 34.5359 25.3278C36.3396 24.5424 38.1433 23.7685 40.0236 23.19C40.6976 23.0636 41.5172 22.5426 42.1261 23.236C42.0839 23.8528 41.8503 23.9907 41.4674 24.2244L40.6134 24.6765C38.8977 25.5347 37.1515 26.3277 35.4741 27.2472C30.8442 29.6263 26.7772 33.0091 21.8716 34.8825C19.4015 35.9016 16.8319 36.6717 14.2278 37.3038C12.156 37.7291 11.551 34.6757 13.6496 34.2926Z" fill="#815E57"/>
<path d="M25.9877 39.7477C27.4774 39.4221 29.4496 38.4375 30.855 37.813C32.0269 37.3188 33.9378 36.3955 35.0944 35.9319C35.5501 35.7979 35.6535 35.748 36.09 36.2346C36.2509 36.5756 36.2585 36.6943 36.2509 36.7863C36.2509 36.8935 36.2241 36.951 36.1858 36.997C35.6879 37.6483 34.9833 38.0812 34.3476 38.5831C32.1494 40.3147 29.5492 41.33 27.0829 42.6134C24.9767 43.6248 23.7398 40.4028 25.9877 39.7477Z" fill="#815E57"/>
<path d="M27.3544 84.7058C29.5257 81.005 31.8465 77.3731 34.7646 74.2163C37.3112 71.4924 40.1489 68.9983 43.3198 67.0292C43.6912 66.8568 44.0053 66.5732 44.4303 66.5349C44.5835 66.5234 44.7482 66.5311 45.0699 66.7648C45.1771 67.1479 45.1273 67.305 45.0699 67.4429C44.9818 67.7111 44.461 68.1172 44.2733 68.3202C41.5773 70.6687 38.9694 73.1512 36.7176 75.9288C34.1212 79.0473 31.7277 82.388 30.0887 86.1119C29.1581 88.0427 26.3357 86.6137 27.3621 84.7135L27.3544 84.7058Z" fill="#815E57"/>
<path d="M69.1856 40.5411C68.7988 40.1158 68.8294 39.9128 68.9405 39.522C69.2047 38.7864 69.5379 38.0126 69.9093 37.3306C71.399 34.4956 73.1836 31.8138 75.2324 29.3504C77.982 26.0404 81.2793 23.2667 84.6684 20.6309C86.4032 19.3781 88.2069 21.9679 86.4032 23.1556C82.926 25.2665 79.9236 28.0709 77.1778 31.0553C74.7231 33.6566 72.5977 36.5606 70.6216 39.5412C70.2234 40.0162 70.0204 40.6982 69.1856 40.5373V40.5411Z" fill="#815E57"/>
<path d="M59.1751 6.98028C59.5772 9.32491 60.4656 11.5393 60.8026 13.8992C60.8792 14.4662 61.1205 15.4164 61.04 15.991C61.04 16.0447 61.0209 16.0983 60.9481 16.1749C60.8869 16.2439 60.8026 16.3205 60.4656 16.4776C60.098 16.5389 59.9869 16.5197 59.8988 16.4967C59.7954 16.4776 59.7533 16.4393 59.7189 16.3971C59.3359 15.9719 59.0027 15.0447 58.75 14.5275C58.099 13.0832 57.559 11.6006 57.0956 10.0873C56.8429 9.34023 56.5939 8.59317 56.2455 7.87675C55.8702 7.1067 56.188 6.17575 56.9577 5.8003C57.8807 5.32907 59.0487 5.95737 59.1751 6.98411V6.98028Z" fill="#815E57"/>
<path d="M69.6641 2.00757C68.7756 4.99966 68.3927 8.10285 67.4315 11.0758C67.2017 11.7845 66.9183 13.0335 66.543 13.6733C66.5124 13.7346 66.4702 13.792 66.3668 13.838C66.2826 13.8878 66.1677 13.93 65.7924 13.9223C65.4401 13.7882 65.3482 13.7039 65.2907 13.6273C65.2142 13.5468 65.195 13.4779 65.1873 13.4089C65.1452 13.022 65.1414 12.6006 65.1873 12.2213C65.3252 10.7157 65.4899 9.0568 65.7082 7.57033C65.9992 5.51303 66.5009 3.49787 66.6579 1.42142C66.9413 -0.850426 70.25 -0.214463 69.6641 2.00757Z" fill="#815E57"/>
<path d="M79.8032 9.86929C77.5361 11.2293 75.5716 13.0108 73.2623 14.3095C72.7109 14.6237 71.8224 15.2481 71.2097 15.4129C71.1561 15.432 71.091 15.4397 70.9914 15.4014C70.9033 15.3784 70.7961 15.3286 70.528 15.0643C70.3442 14.7348 70.3251 14.6198 70.3251 14.5279C70.2868 14.3402 70.4897 14.1678 70.5625 14.0299C70.8229 13.6659 71.6424 12.9418 71.9641 12.6124C73.8138 10.716 76.0388 9.27547 77.9382 7.43654C79.6615 5.85046 81.7831 8.60119 79.8032 9.86546V9.86929Z" fill="#815E57"/>
</g>
<defs>
<clipPath id="clip0_165_138">
<rect width="94" height="92" fill="white"/>
</clipPath>
</defs>
</svg>
