<svg width="99" height="92" viewBox="0 0 99 92" fill="none" xmlns="http://www.w3.org/2000/svg">
<g clip-path="url(#clip0_322_1828)">
<path d="M84.4549 21.5261C88.1922 21.4472 88.6636 21.59 89.3594 20.8836C90.4481 19.7789 90.5192 18.0355 88.3643 18.0581C67.3395 18.261 77.9155 18.1031 56.135 18.043C53.8679 18.0355 54.848 15.6458 52.5548 14.977C49.7527 14.1616 52.132 0.0939142 49.4946 0.00373656C48.043 -0.0451097 47.9645 0.293056 47.7213 12.839C47.5455 21.9582 30.1682 15.999 9.41271 17.8852C7.16059 18.0919 7.75168 20.8273 9.49502 20.9325C11.8556 21.0715 14.2462 20.7596 14.6801 21.2443C14.1227 23.2884 15.7688 17.765 4.45205 55.3089C4.12034 56.4136 3.39832 57.0336 2.28597 57.1688C-6.22871 58.1984 10.4789 85.03 28.4061 68.6139C31.8741 65.4389 37.3548 57.2139 32.4428 57.1989C30.3478 57.1952 30.4899 56.0529 29.7716 54.069C29.7454 53.9976 17.8077 20.9738 17.8002 20.9024C17.8713 20.9062 43.2956 21.2819 43.3667 21.2819C45.6936 21.2857 44.5638 22.5857 46.5915 23.991C47.9458 24.9303 45.5926 72.7245 45.5814 72.7959C45.2148 75.3096 46.7 75.7905 42.4389 75.7755C31.2643 75.7379 30.4263 75.4749 28.1106 77.5302C22.8132 82.2345 29.3601 84.1357 18.0995 83.2189C15.174 82.9822 12.9518 86.5104 13.8309 88.8325C15.0468 92.0413 10.8867 91.2222 76.2993 91.9662C84.4137 92.0601 84.7205 91.9399 85.869 90.9366C91.1364 86.3488 84.511 83.1738 83.6543 83.3993C81.6678 83.9253 79.6738 83.4444 77.6761 83.5834C73.5684 83.8727 75.7569 77.4551 69.831 75.9296C66.5651 75.0879 66.5726 75.4899 54.8218 75.5764C53.9352 75.5839 53.3292 76.2377 53.3778 65.7169C53.3815 64.6048 51.7242 26.3544 51.6494 25.415C51.4624 23.108 53.1346 24.2578 53.8903 22.6458C54.444 21.4623 55.3606 21.2781 56.524 21.3495C63.1607 21.7403 69.8123 21.2669 76.4378 21.5524C79.3221 21.6764 79.8384 21.0715 79.281 22.8675C68.0503 59.1227 69.2212 57.0975 67.4816 57.1012C63.3403 57.1087 64.7544 61.8844 66.6885 65.3412C73.718 77.9247 91.9258 76.1249 98.858 59.5586C99.4192 58.2172 98.2819 56.9171 96.3552 57.09C95.087 57.2027 95.1469 56.376 93.8076 52.4984C81.9184 18.0505 82.0232 21.5675 84.4549 21.5186V21.5261ZM31.6197 59.1941C30.9351 63.4437 25.2075 70.3573 17.153 70.7068C9.712 71.0299 4.19018 65.0632 2.83217 59.4721C12.4505 59.1565 22.0351 59.2655 31.6197 59.1979V59.1941ZM28.7241 56.8645C26.9172 57.2703 8.02478 57.3154 5.75394 56.9284C9.21818 45.5359 12.6936 34.1134 16.2925 22.2739C20.2618 34.1623 24.5902 45.4984 28.7241 56.8607V56.8645ZM48.4396 55.0572C47.8485 53.3664 49.184 52.5435 49.9585 51.4163C50.5271 52.6712 50.3999 52.9643 48.4396 55.0572ZM50.1979 55.0534C49.9846 56.2445 49.2065 57.0599 48.26 58.0218C48.2937 56.4812 49.3973 55.865 50.1979 55.0534ZM48.477 51.7582C48.477 49.6916 48.4994 49.6353 50.0183 48.4179C50.2951 49.8795 49.9547 50.6159 48.477 51.7582ZM49.9173 45.0137C50.3662 46.3889 49.4759 47.1216 48.7576 48.1398C48.3161 46.6594 48.9297 45.814 49.9173 45.0137ZM48.7763 44.8709C48.3086 43.4168 48.9222 42.7066 49.6816 41.9213C50.2353 43.165 49.431 43.8301 48.7763 44.8709ZM48.7089 41.2638C48.5107 40.0764 48.7838 39.2047 49.6068 38.3405C50.1941 39.6819 49.6218 40.4334 48.7089 41.2638ZM48.8399 37.1231C48.7688 36.2326 48.6117 35.406 49.3973 34.7184C49.744 35.6552 49.5582 36.4568 48.8399 37.1231ZM49.0868 30.5627C49.5881 31.5622 49.7751 32.3475 49.1017 33.1741C48.8399 32.3813 48.8399 31.5847 49.0868 30.5627ZM82.5918 85.5297C84.0583 85.5185 85.7493 86.4578 85.4126 87.7015C84.7691 90.0649 83.0669 89.6666 78.1661 89.5727C78.0801 89.5727 33.2845 89.3209 20.5013 88.9941C19.0011 88.9565 15.5855 90.1062 15.7389 86.7584C15.8923 83.4293 16.9884 86.0445 82.5956 85.5297H82.5918ZM74.0809 83.4068C72.8613 83.6924 30.2991 83.234 27.0519 83.0649C27.8225 79.0332 30.3702 77.4288 32.974 77.5678C65.1322 79.2549 70.6054 74.1185 74.0846 83.4068H74.0809ZM51.1369 75.3058C51.0434 75.9408 50.1979 75.7793 50.34 75.4524C50.557 74.9564 51.1556 74.7685 51.1369 75.3058ZM49.2551 75.4373C49.1317 75.8244 47.9458 75.8168 47.8073 75.505C47.5043 74.8286 50.2652 72.6569 50.9124 72.2586C50.6393 73.491 49.6218 74.2876 49.2551 75.4373ZM47.8822 73.6112C47.5679 71.3343 49.517 70.5527 50.7441 69.294C50.587 71.2629 48.8586 72.1872 47.8822 73.6112ZM48.1702 70.1394C47.8709 68.8619 48.1515 68.4486 50.7329 66.5022C50.471 67.7121 50.2203 68.0503 48.1702 70.1394ZM48.1066 67.5806C47.9719 65.7057 49.719 65.0556 50.5458 63.8082C50.5159 65.5779 49.0045 66.3783 48.1066 67.5806ZM48.2001 64.7926C47.5642 62.6396 49.3112 61.7416 50.4485 60.2011C51.0434 62.6021 48.9147 63.3348 48.2001 64.7926ZM50.3139 57.1426C50.875 59.3707 49.1504 59.9568 48.3273 61.4147C47.8485 59.3031 49.2963 58.5328 50.3139 57.1426ZM96.1532 59.1302C94.8289 64.4244 88.6898 70.4137 81.346 70.579C74.0323 70.7443 68.6825 64.5709 67.5939 59.3707C77.0924 59.0964 86.5499 59.164 96.1532 59.1302ZM93.3437 57.0524C85.6183 57.0223 78.1063 57.2177 70.452 56.996C74.0435 45.5359 77.6125 34.1585 81.3161 22.3415C85.1283 34.2825 89.3407 45.5735 93.3437 57.0524Z" fill="#815E57"/>
<path d="M50.3403 75.4521C50.1981 75.7753 51.0436 75.9406 51.1371 75.3056C51.1596 74.7683 50.561 74.9562 50.3403 75.4521Z" fill="#815E57"/>
<path d="M75.2934 66.4497C84.1747 71.2592 87.6202 66.1116 84.7658 66.5174C84.0699 66.6151 82.9925 67.6521 79.7228 66.9532C74.9754 65.9387 73.2059 63.0718 72.2706 63.0117C71.4999 63.9623 74.2122 65.8636 75.2971 66.4497H75.2934Z" fill="#815E57"/>
<path d="M87.4208 66.9984C88.6665 67.1449 89.3961 65.3827 88.27 65.3226C86.9494 65.2512 86.5304 66.8707 87.4208 66.9984Z" fill="#815E57"/>
<path d="M20.377 68.1329C21.7612 67.573 21.013 66.1828 19.9056 66.7126C14.2977 69.3954 8.10625 62.7485 7.54883 63.3008C6.43399 64.413 14.93 70.3385 20.377 68.1329Z" fill="#815E57"/>
<path d="M23.0222 67.1371C24.0885 67.2611 24.9489 65.6229 23.8565 65.3937C22.8315 65.1795 21.7465 66.8252 23.0222 67.1371Z" fill="#815E57"/>
<path d="M36.3114 80.3519C36.4611 80.3632 61.3616 80.799 61.3878 79.2134C61.4065 78.0937 59.0684 79.0744 47.5047 78.7738C32.5105 78.7587 35.6118 80.2955 36.3114 80.3481V80.3519Z" fill="#815E57"/>
<path d="M64.6767 80.0176C65.7054 79.9763 65.9711 79.1534 64.7028 78.8716C63.6778 79.0557 63.9322 80.0477 64.6767 80.0176Z" fill="#815E57"/>
<path d="M38.0244 86.5969C8.25668 86.4353 18.3089 87.8406 28.6306 87.9308C83.5832 88.4042 85.8353 89.6705 84.2865 87.3146C84.0733 86.9877 38.0917 86.5969 38.0244 86.5969Z" fill="#815E57"/>
</g>
<defs>
<clipPath id="clip0_322_1828">
<rect width="99" height="92" fill="white"/>
</clipPath>
</defs>
</svg>
