<svg width="135" height="72" viewBox="0 0 135 72" fill="none" xmlns="http://www.w3.org/2000/svg">
<path d="M46.3928 21.2884C46.1482 21.3379 46.0958 21.3175 45.9823 21.2069C45.8192 21.0091 45.659 20.7792 45.5309 20.5609C45.0068 19.6967 44.4448 18.7394 43.9527 17.8636C43.2742 16.6531 42.6918 15.3932 41.958 14.2089L43.2538 13.5483C43.7838 14.8345 44.4622 16.0449 45.0475 17.3049C45.4669 18.2157 45.9182 19.2341 46.3084 20.1652C46.4103 20.3951 46.5035 20.6628 46.5676 20.9101C46.5938 21.0673 46.5763 21.1225 46.3928 21.2913V21.2884Z" fill="#815E57"/>
<path d="M42.9538 26.9681C42.5374 27.0263 42.4588 26.6655 42.2695 26.4181C40.8456 23.9012 39.5265 21.2765 38.2627 18.681C37.7997 17.7324 37.3367 16.7838 36.8271 15.8585L38.1404 15.23C38.5423 16.2077 38.9907 17.165 39.4391 18.1194C40.6679 20.7295 41.888 23.4065 42.9538 26.0922C43.0295 26.389 43.2566 26.6829 42.9538 26.971V26.9681Z" fill="#815E57"/>
<path d="M39.9284 31.8799C39.6314 31.8857 39.5615 31.7781 39.4304 31.6035C39.1829 31.2223 38.9412 30.7916 38.7316 30.393C37.8842 28.8013 36.9699 27.0438 36.1575 25.4463C35.0364 23.2349 34.0085 20.9827 32.8379 18.7975L34.1512 18.1689C36.0235 22.4085 38.1346 26.5753 39.8701 30.8789C39.9546 31.2048 40.2312 31.554 39.9313 31.8799H39.9284Z" fill="#815E57"/>
<path d="M34.4192 33.1687C34.0057 33.224 33.9329 32.8719 33.7494 32.6275C32.3808 30.1542 31.12 27.5761 29.9115 25.0242C29.4689 24.0931 29.0263 23.159 28.5371 22.2512L29.8562 21.6372C30.2377 22.5974 30.6657 23.5373 31.0938 24.4772C32.2673 27.0436 33.4291 29.6712 34.4395 32.3074C34.5094 32.6013 34.7278 32.8894 34.4221 33.1687H34.4192Z" fill="#815E57"/>
<path d="M29.1924 33.7801C28.811 33.8558 28.7498 33.5823 28.5809 33.3582C27.4249 31.3272 26.3795 29.1972 25.3837 27.0876C25.0197 26.3165 24.6528 25.5454 24.2422 24.7976L25.5642 24.1865C25.867 24.9867 26.2165 25.7636 26.5688 26.5405C27.5297 28.6647 28.4761 30.8441 29.274 33.0381C29.3322 33.3087 29.504 33.5357 29.1982 33.7772L29.1924 33.7801Z" fill="#815E57"/>
<path d="M24.3412 33.8062C24.1112 33.8528 24.0558 33.8499 23.951 33.751C23.8141 33.588 23.6773 33.396 23.5754 33.2126C23.1531 32.4881 22.6901 31.685 22.3058 30.9459C21.7671 29.9275 21.3215 28.8625 20.7246 27.8703L22.0408 27.2476C22.4281 28.3387 22.9697 29.3572 23.4152 30.4192C23.7413 31.1845 24.0704 32.0516 24.3616 32.8373C24.4402 33.0322 24.5013 33.2592 24.5421 33.4687C24.5538 33.6113 24.5188 33.6578 24.3383 33.8033L24.3412 33.8062Z" fill="#815E57"/>
<path d="M79.8216 51.6025C80.0749 51.7277 80.0895 51.8237 80.1186 52.0216C80.1448 52.4086 80.1477 52.8305 80.1332 53.2146C80.0895 54.7509 80.0225 56.4386 79.941 57.9634C79.8303 60.073 79.6149 62.1738 79.5624 64.2863L78.1123 64.1729C78.5695 60.2475 78.7762 56.2699 79.3819 52.362C79.4663 52.0681 79.4168 51.6986 79.8216 51.6025Z" fill="#815E57"/>
<path d="M89.6175 49.2075C89.8767 49.353 89.8854 49.4781 89.9087 49.6964C89.932 50.1503 89.9262 50.645 89.9087 51.0931C89.8475 52.8942 89.7573 54.8729 89.6612 56.6624C89.5243 59.1357 89.2855 61.6003 89.204 64.0795L87.751 63.9689C88.2518 59.3598 88.511 54.6983 89.1662 50.1037C89.2535 49.7807 89.1924 49.3385 89.6146 49.2075H89.6175Z" fill="#815E57"/>
<path d="M85.1852 51.2036C85.5695 51.3607 85.4589 51.7041 85.4938 52.0067C85.4385 54.8321 85.2405 57.6954 85.0104 60.5091C84.926 61.5363 84.8445 62.5664 84.8124 63.5993L83.3623 63.4713C83.5137 62.45 83.6127 61.4228 83.7146 60.3957C83.9825 57.5877 84.2941 54.7303 84.7396 51.9427C84.827 51.6517 84.7804 51.2938 85.1852 51.2065V51.2036Z" fill="#815E57"/>
<path d="M74.7545 54.0439C75.1214 54.1691 75.0399 54.4368 75.0748 54.7161C75.0574 57.0498 74.8972 59.4213 74.7021 61.7433C74.6322 62.5929 74.5623 63.4426 74.5449 64.2981L73.0947 64.1642C73.2316 63.3204 73.3189 62.4736 73.4034 61.624C73.6334 59.3049 73.9071 56.945 74.3177 54.6463C74.4022 54.3815 74.3701 54.0992 74.7545 54.0439Z" fill="#815E57"/>
<path d="M68.538 56.1099C68.7593 56.1826 68.8059 56.2146 68.8467 56.3514C68.8845 56.5609 68.9049 56.7966 68.902 57.0061C68.902 57.847 68.902 58.7694 68.867 59.6045C68.8234 60.7568 68.6749 61.9004 68.6952 63.0555L67.2451 62.9362C67.4548 61.7985 67.4955 60.6462 67.6441 59.5027C67.746 58.6763 67.8945 57.7626 68.0342 56.9362C68.0663 56.7296 68.1245 56.4998 68.1944 56.299C68.2556 56.171 68.308 56.1477 68.538 56.1099Z" fill="#815E57"/>
<path d="M92.1274 67.6324C89.2155 69.7624 84.239 69.9777 80.7447 70.2687C73.2961 70.6469 65.5184 70.775 58.0843 71.3569C52.4148 71.6945 46.7249 72.0873 41.0263 71.9825C38.5105 71.8894 35.8344 71.8167 33.3826 70.9263C32.6837 70.6295 31.9645 70.225 31.5452 69.5645C31.0822 68.8487 30.8725 68.0368 30.6949 67.2628C30.2902 65.3249 30.1853 63.4044 30.1213 61.4549C30.0077 55.6993 30.4095 49.9961 31.3559 44.322C31.6879 42.6023 31.9762 40.8419 32.742 39.2211C33.0885 38.4966 33.7408 37.9641 34.3959 37.548C37.4796 35.7614 40.9681 34.8564 44.3634 33.9428C51.7655 32.0921 59.348 31.0184 66.9685 30.6401C72.7224 30.3433 78.4996 31.0504 84.0788 32.4355C86.42 33.0582 88.8223 33.6431 90.9917 34.8681C93.3358 36.3579 93.9997 42.1135 94.3724 44.7003C94.9927 49.5655 95.7265 64.3152 92.1244 67.6324H92.1274ZM91.0616 66.3317C93.8396 63.1397 93.2921 49.3065 92.7214 44.8981C92.436 42.7565 91.7983 37.5044 90.1152 36.2648C88.1555 35.194 85.8871 34.6295 83.6857 34.0592C81.8745 33.6285 80.04 33.2822 78.1968 33.0174C70.7744 31.8332 63.2879 32.6974 55.9237 33.8584C52.2255 34.4549 48.5565 35.2376 44.9399 36.16C41.7572 37.0301 38.5046 37.8768 35.6451 39.5121C35.4617 39.6489 35.1647 39.8264 35.022 39.9893C34.5677 40.5102 34.4076 41.3627 34.1921 42.0465C33.0885 46.5364 32.6372 51.2153 32.3198 55.8302C32.1945 58.1377 31.5772 68.2522 33.6825 69.0698C34.2911 69.387 34.9288 69.5732 35.6131 69.7304C39.1948 70.4636 43.0268 70.4403 46.7133 70.4403C54.2406 70.3705 61.7795 69.7565 69.3504 69.5383C73.1272 69.4074 76.901 69.2299 80.637 68.8778C82.5035 68.6945 84.3642 68.4646 86.1754 68.1125C87.8469 67.775 89.7542 67.3472 91.0674 66.3346L91.0616 66.3317Z" fill="#815E57"/>
<path d="M31.8658 67.6935C42.0167 66.3026 51.9492 63.7856 62.1816 62.8719C72.4169 62.0426 82.7338 62.8254 92.9051 64.0591C93.3652 64.1173 93.6913 64.5392 93.6331 65.0019C93.5719 65.4704 93.1322 65.7992 92.6663 65.7235C90.165 65.322 87.6462 65.0339 85.1216 64.8157C80.0723 64.3938 74.9969 64.3472 69.9418 64.6731C62.3417 65.1241 54.7941 65.7701 47.1998 66.579C42.1506 67.1697 37.0897 67.8739 32.2065 69.3404C31.0562 69.6488 30.6369 67.903 31.8628 67.6964L31.8658 67.6935Z" fill="#815E57"/>
<path d="M93.5132 43.9934C100.382 43.8217 107.257 43.3969 114.089 42.6665C116.366 42.4221 118.634 42.1165 120.882 41.747C123.069 41.36 125.375 40.9555 127.393 40.1C127.684 39.9633 127.946 39.8294 128.176 39.6432L128.278 39.5472C128.328 39.4861 128.372 39.4308 128.36 39.425C128.36 39.425 128.363 39.425 128.36 39.4453C128.36 39.4628 128.36 39.4774 128.369 39.4919C128.369 39.4977 128.369 39.4948 128.369 39.4977C128.375 39.5065 128.366 39.4919 128.36 39.4803C128.165 39.1951 127.932 38.9245 127.652 38.6684C125.16 36.3784 122.309 34.4259 119.54 32.4531C108.221 24.6549 96.4892 17.4473 84.5241 10.6907C80.5523 8.46184 76.5252 6.26494 72.3961 4.36484C70.6402 3.58793 68.8785 2.779 67.0178 2.38327C65.853 2.13885 64.6475 2.75573 63.5089 3.15728C60.3816 4.44341 57.3852 6.0758 54.4092 7.71984C40.4641 15.6083 26.95 24.3086 13.8057 33.4803C10.1104 36.1253 6.33662 38.7935 2.89475 41.7354C2.41428 42.1631 1.92508 42.5908 1.59604 43.0506C1.5873 43.0651 1.60186 43.0419 1.60768 43.0215C1.60768 43.0215 1.61933 42.9807 1.62516 42.94C1.62516 42.8644 1.63972 42.8382 1.61933 42.7829C1.61933 42.7683 1.61351 42.7509 1.60477 42.7392C1.59021 42.7014 1.59021 42.7305 1.65136 42.7712C1.70087 42.8149 1.78822 42.8673 1.87849 42.9167C2.77827 43.3503 3.91391 43.5714 4.9389 43.7518C7.14904 44.1243 9.42906 44.3193 11.7003 44.4735C18.5404 44.907 25.43 44.9245 32.2759 44.6655C33.3969 44.651 33.4377 46.2775 32.3428 46.3445C27.7275 46.5045 23.1208 46.4929 18.5113 46.3852C13.8755 46.2514 9.27182 46.0942 4.66227 45.3639C3.1044 45.0525 -0.419 44.584 0.0410804 42.5181C0.402157 41.6481 1.19419 41.0952 1.79987 40.5045C7.10245 36.0118 12.8127 32.1447 18.4647 28.135C27.9167 21.5908 37.4765 15.1864 47.3129 9.21547C51.2702 6.82071 55.2653 4.52197 59.4235 2.46184C61.0164 1.69074 62.6325 0.931284 64.3447 0.384242C64.9503 0.206744 65.5415 0.0234271 66.3539 0.00014873C67.1022 -0.00567086 67.705 0.160188 68.3776 0.340595C70.1015 0.846899 71.7322 1.57726 73.3395 2.31926C87.8292 9.42789 101.332 18.3522 114.686 27.3581C119.391 30.6898 124.257 33.844 128.538 37.7606C128.937 38.1796 129.408 38.6015 129.589 39.2097C129.758 40.2572 128.695 40.8799 127.894 41.229C125.669 42.1485 123.389 42.489 121.069 42.908C116.506 43.65 111.925 44.1068 107.345 44.5579C102.761 44.9885 98.1752 45.3348 93.586 45.6752C92.4329 45.7218 92.3776 44.0516 93.5045 43.9963L93.5132 43.9934Z" fill="#815E57"/>
<path d="M129.617 39.3612C129.664 44.5814 129.923 50.142 129.85 55.3592C129.81 55.6822 129.917 56.2235 129.583 56.4359C129.35 56.2933 129.341 56.1245 129.303 55.9121L129.245 55.3796C128.968 51.69 128.79 47.3806 128.651 43.6619C128.601 42.2419 128.543 40.819 128.453 39.399C128.424 38.6163 129.591 38.5639 129.617 39.3612Z" fill="#815E57"/>
<path d="M129.629 64.0243C131.726 64.0243 133.426 62.3255 133.426 60.2299C133.426 58.1343 131.726 56.4355 129.629 56.4355C127.532 56.4355 125.832 58.1343 125.832 60.2299C125.832 62.3255 127.532 64.0243 129.629 64.0243Z" stroke="#815E57" stroke-width="2" stroke-linecap="round" stroke-linejoin="round"/>
</svg>
