<svg width="79" height="92" viewBox="0 0 79 92" fill="none" xmlns="http://www.w3.org/2000/svg">
<g clip-path="url(#clip0_322_1908)">
<path d="M0.171875 32.7432L0.26699 32.186C0.230756 32.1952 0.194521 32.3322 0.171875 32.7432Z" fill="#815E57"/>
<path d="M77.9141 59.5674C77.9141 59.613 77.9141 59.6633 77.9141 59.6998C77.9186 59.6039 77.9141 59.5765 77.9141 59.5674Z" fill="#815E57"/>
<path d="M5.3356 12.0469C5.3356 12.0469 5.32654 12.0651 5.32201 12.0697C5.30843 12.1108 5.29484 12.1565 5.28125 12.1976L5.3356 12.0469Z" fill="#815E57"/>
<path d="M0.0507812 40.5336L0.100604 40.5199C0.100604 40.5199 0.0688984 40.5107 0.0507812 40.5336Z" fill="#815E57"/>
<path d="M78.824 37.4054L78.9961 37.3323C78.8059 36.1769 78.8195 35.0855 78.8467 34.09C78.8693 33.0944 78.8648 32.1902 78.6745 31.4276C78.5387 30.2403 78.6383 29.8338 78.7063 29.4137C78.7787 28.9981 78.824 28.5643 78.5568 27.3359C78.6066 27.0071 78.6655 26.6828 78.7108 26.354C78.6428 25.29 78.3439 25.6142 78.3394 24.4315C78.4934 24.4908 78.3077 22.9336 78.516 23.6095C78.4843 22.2669 78.2262 20.9243 77.9816 19.4721C77.7008 18.0245 77.4607 16.4718 77.3429 14.7045C76.9308 13.983 76.7994 12.2065 76.4643 11.6768C76.573 11.5672 75.812 8.16959 76.4597 10.0922C76.5141 10.2566 76.5684 10.558 76.5141 10.5443L76.727 10.7543C76.6952 9.73596 76.496 8.85459 76.1834 7.91843C75.8709 6.99139 75.4723 6.05066 74.9243 5.00033C75.2187 5.63966 75.5403 6.45709 75.2051 5.94563C74.9424 5.30173 74.5937 4.65326 74.1362 4.0459C74.2675 4.15093 74.408 4.2514 74.5393 4.361C73.9278 3.402 73.0401 2.5526 72.021 1.9087L72.329 2.306C71.6406 1.7854 71.1378 1.4703 70.5898 1.17803C70.3135 1.03647 70.0191 0.926865 69.6748 0.808132C69.3306 0.721366 68.932 0.611766 68.4474 0.570666C68.0081 0.534132 68.384 0.675699 68.6467 0.780732C68.778 0.830966 68.8822 0.885765 68.8414 0.890332C68.8052 0.890332 68.624 0.867499 68.1938 0.785299C67.1248 0.497599 65.7661 0.260133 64.3529 0.150533C62.9443 0.0317995 61.4587 0.0135328 60.1633 0.0409328C60.417 0.209899 59.7104 0.223599 58.9857 0.282966L58.8951 0.132266C56.1277 0.442799 57.8579 -0.164567 55.1086 0.113999L54.633 0.351466C52.1646 0.785299 53.2697 0.0911661 50.534 0.666566C51.6256 0.575232 51.073 0.972532 49.7278 0.986232L50.0584 0.817266C49.3156 0.894899 49.0756 0.972532 48.5774 0.967965C49.0122 0.862932 48.7948 0.735066 47.7032 0.840099L48.4188 0.602632L46.3761 1.0182C44.7637 0.967965 42.2635 1.37897 41.5887 1.22827C41.5887 1.22827 38.3865 1.42007 37.4851 1.7169C37.8565 1.5525 36.2033 1.6621 36.688 1.4566C35.8229 1.69863 33.2276 2.11876 32.1587 2.06853L32.3534 2.02743C28.4582 2.306 25.7905 3.0869 22.2984 3.3746C22.4886 3.5253 20.6497 3.7034 21.1434 3.85866C17.6287 4.61216 14.5578 4.44776 13.43 5.35653C11.8267 5.68533 11.4824 5.5392 10.6445 5.65336L11.0204 5.54833C9.53936 5.84059 8.46591 6.06893 7.51929 6.42513C6.57267 6.78133 5.70757 7.26083 4.80624 8.08739C4.38955 8.53036 4.26273 8.85459 4.05891 9.24276C3.86415 9.63549 3.59239 10.1013 3.08511 10.9233C3.27081 10.3251 2.87676 11.0146 2.56424 11.6677C2.759 11.2521 2.75447 11.0923 2.25625 11.9234C2.24266 12.0604 2.18831 12.2568 2.13396 12.4394C2.12037 12.4394 2.09772 12.476 2.08866 12.4531C1.71273 13.5857 1.83502 13.3984 2.0479 12.8915C2.06149 12.9235 2.10225 12.8915 2.2019 12.7408C1.87579 13.2843 1.62668 14.1017 1.43644 14.7867C1.2598 15.4763 1.13751 16.0334 1.00163 16.0882C0.707228 17.8098 0.670994 19.2803 0.670994 20.664C0.670994 22.0477 0.725345 23.3446 0.720816 24.742C0.575879 25.0525 0.485293 24.3949 0.467175 23.5821L0.44 25.564C0.249769 25.5412 0.37206 24.4223 0.358472 23.8104C-0.0401059 26.1622 0.489822 28.683 0.150125 31.4413L0.286003 32.0167L0.258828 32.1811C0.340355 32.172 0.430941 32.7976 0.449058 33.2086C0.276945 33.5968 0.0731265 33.1766 0.0595386 34.5466C-0.117104 35.6289 0.100302 37.6246 0.18183 39.0448C0.213535 38.2822 0.304121 38.5288 0.358472 38.8576C0.358472 39.5426 0.195418 39.9353 0.263357 40.465L0.0912437 40.5153C0.254298 40.6112 0.276945 42.3419 0.358472 42.5703C0.195418 42.9584 0.218064 41.5062 0.0912437 41.3373C0.122949 44.0864 0.109361 42.7118 0.141066 45.4564C0.322238 46.9223 0.344884 45.187 0.548703 45.8902C0.607584 47.1826 0.775168 48.443 0.670994 49.9272L0.811402 49.5755C0.63023 50.1692 0.553232 50.9273 0.553232 50.9273C0.150125 53.6536 0.75705 55.0555 1.05145 58.2796C1.10128 61.1246 0.766109 61.901 1.1511 64.8373C1.23263 66.2439 1.46362 67.7372 1.65385 69.1026C1.83955 69.4223 1.86673 69.8287 1.96637 70.4224C2.0162 70.7009 2.08866 70.9795 2.17925 71.2443C2.28795 71.5046 2.3876 71.7512 2.55971 71.943V72.3358C2.80429 72.6052 3.04435 72.9157 3.18475 73.2354H3.1304C3.23458 73.3313 3.32516 73.4272 3.42028 73.5277C3.51992 73.6236 3.61051 73.7195 3.69656 73.8062C3.85962 73.9889 4.0272 74.135 4.14496 74.2081L4.09061 74.2218C4.25367 74.3679 4.42578 74.5049 4.61601 74.6282L4.4756 74.6054C5.32258 75.1123 6.25109 75.5324 7.12071 75.811L7.10712 75.6238C7.32906 75.7014 7.54194 75.7653 7.74123 75.8201C7.94052 75.8567 8.13075 75.8841 8.31192 75.9024C8.66973 75.9435 8.99131 75.9115 9.2993 75.9024C9.60277 75.8658 9.89717 75.8338 10.2233 75.7973C10.5449 75.7608 10.871 75.7197 11.2016 75.7243L11.1926 75.7699C11.5685 75.5827 11.8538 75.5096 12.0622 75.5187C12.2751 75.5187 12.3792 75.6009 12.4698 75.6877C12.6374 75.8658 12.7823 76.0987 13.3077 76.601C13.1809 76.4777 13.2398 76.6969 13.19 76.7015C13.344 76.9572 13.4753 77.2678 13.6203 77.5052C13.7652 77.7427 13.9328 77.9254 14.1275 77.8797C14.2861 78.3912 14.1366 78.3227 14.0098 78.4277C14.1774 78.382 14.3902 78.8113 14.5261 79.204L14.4038 79.0351L14.825 80.163L15.0742 79.8616C15.1738 80.4873 14.7345 80.1128 14.9926 80.6699L15.2553 80.5969C15.4682 81.4463 15.2236 82.0354 15.287 82.8939C15.5271 83.7387 15.8215 84.6018 16.134 85.4375C16.4511 86.2915 16.7681 87.1546 17.0806 88.004C17.5336 89.2461 18.1405 90.7303 18.8697 91.3879C19.0509 91.566 19.2275 91.703 19.4359 91.8217C19.54 91.8811 19.6533 91.9313 19.7937 91.9633C19.9341 91.9953 20.1062 91.9998 20.224 91.9633C20.4776 91.9085 20.6497 91.8172 20.8445 91.7121C20.9396 91.6573 21.0347 91.6071 21.1298 91.5386L21.2748 91.4427L21.4197 91.324L21.6326 91.4199C21.7232 91.566 21.8953 91.1093 22.0357 90.6938C22.1897 90.2919 22.2667 89.817 22.4161 89.8352L22.6019 89.1731C22.7151 89.0589 22.9189 88.7621 22.8419 89.0726C22.9687 88.8169 23.0231 88.6799 23.0548 88.5566C23.0729 88.4972 23.082 88.4378 23.0955 88.3693C23.1091 88.3054 23.1272 88.2141 23.1272 88.1593L23.4624 87.8624C24.1871 86.5975 24.3003 85.3645 24.8937 83.9945C25.3919 83.209 25.8312 81.9943 26.1755 80.7476C26.2615 80.437 26.3431 80.1219 26.42 79.8114C26.4608 79.6424 26.497 79.478 26.5378 79.3136C26.5695 79.1447 26.6012 78.9803 26.6239 78.825C26.7009 78.2359 26.7733 77.6879 26.8322 77.2221C26.8775 76.601 27.0949 75.9982 27.4437 75.5872C27.7607 75.2128 28.3224 74.989 28.9474 74.8566C29.5906 74.7333 30.3062 74.6922 31.0445 74.6602C31.7782 74.6237 32.5572 74.5871 33.3589 74.4364C33.4631 74.4684 33.7258 74.3725 33.7213 74.3405C34.686 74.304 35.6462 74.2446 36.611 74.1716C36.611 74.1716 37.4851 74.1031 38.622 73.9432C39.7588 73.788 41.1493 73.5277 42.1865 73.2263C42.2409 73.2126 42.2907 73.1943 42.3405 73.1806C43.1558 73.2171 44.0435 73.2491 45.0083 73.2765L44.8271 73.345C48.9352 73.2719 51.5214 73.1212 54.3115 72.6189C54.7961 72.9431 57.6722 72.3814 58.6415 72.4088L58.5554 72.4454C61.0148 71.9522 63.7143 72.1805 66.0786 71.6736C65.988 71.7101 65.9518 71.8152 65.4037 71.8791C67.143 71.6462 69.5163 71.2809 69.6794 71.4681C70.2048 71.3951 70.7302 71.3357 71.3326 71.2443C71.9304 71.153 72.5781 71.0388 73.262 70.8242C73.9369 70.6096 74.6661 70.2808 75.2595 69.783C75.8619 69.3035 76.2831 68.7099 76.582 68.139C77.1572 66.9882 77.3022 65.915 77.4063 65.0291C77.4924 64.1523 77.5332 63.3897 77.5286 62.7915L77.5694 62.9604C77.5377 62.28 77.592 61.8462 77.6645 61.3941C77.7234 60.942 77.8049 60.4716 77.8321 59.7181C77.8729 59.6405 77.9 59.5354 77.9136 59.5537C77.8593 58.0741 78.3303 55.293 78.3349 54.1057L78.4979 54.0372L78.6836 51.1236L78.5658 52.2105C78.362 52.0096 78.4798 51.4661 78.6111 50.6989C78.738 49.9363 78.8965 48.9545 78.815 47.8904C78.9463 45.9085 78.0676 43.8626 78.285 41.8168C78.0948 40.8395 78.6021 42.6799 78.4617 41.2185C78.6881 41.1729 78.5975 41.9035 78.7787 41.5245C78.6972 40.086 78.9916 39.1635 78.824 37.3917V37.4054ZM76.496 44.0773C76.4235 45.5934 76.4144 47.2465 76.3374 48.9088C76.2514 52.2333 76.0611 55.6081 75.8981 58.0787C75.8483 58.9463 75.7713 59.8323 75.6762 60.7273C75.581 61.6224 75.427 62.5266 75.2776 63.4399C75.119 64.3533 74.9786 65.2894 74.7205 66.1023C74.4668 66.9243 74.0637 67.6276 73.5112 68.0386C72.9812 68.4496 72.1841 68.6551 71.2148 68.7784C70.7347 68.8423 70.2048 68.888 69.6703 68.9382C69.1359 68.993 68.6059 69.0478 68.076 69.1026C65.9563 69.3218 63.8773 69.5684 61.8709 69.8835C61.6036 69.8744 60.9333 70.025 60.9424 70.0524C58.4739 70.2808 56.0054 70.4817 53.5324 70.6553C53.5324 70.6553 44.5418 71.29 38.9526 71.6827C37.073 71.8289 35.5828 71.9796 34.9532 72.1531C34.7857 72.1759 34.6362 72.1851 34.5411 72.1622L34.5728 72.1303C34.1199 72.2947 33.6352 72.2673 33.1596 72.2307C32.9196 72.2125 32.6841 72.1897 32.4485 72.1897C32.2085 72.1897 31.9684 72.217 31.7374 72.2855C31.7737 72.2536 31.7873 72.1577 32.0047 72.1394C31.3207 72.2079 30.3515 72.3769 30.2654 72.1851C29.4049 72.313 28.3042 72.4911 27.2987 72.9843C26.8005 73.2263 26.3476 73.5459 26.0124 73.9021C25.6546 74.2766 25.5051 74.6419 25.4236 74.9205L25.41 74.8246C25.3466 75.158 25.2741 75.3361 25.1835 75.5187C25.0975 75.7014 24.9933 75.8932 24.9571 76.2083C24.9163 76.2357 24.8846 76.2722 24.8756 76.2631C24.9208 76.907 24.4951 77.9299 24.4996 78.3683H24.3411C24.2686 78.7245 24.1962 79.0122 24.0875 79.3821L24.246 79.0031C24.6219 79.2314 23.7296 79.7338 23.7432 80.5603C23.4534 81.2545 24.1056 82.2317 23.6345 82.9167C23.6979 83.3232 23.4352 82.5194 23.3899 83.0857C23.168 83.0446 23.3447 82.8026 23.1272 82.8893C23.0412 83.4328 22.5973 83.6657 22.4977 84.337L22.321 84.3141C22.3029 85.2275 21.4831 85.78 21.5375 86.4102C21.4242 86.8486 21.2431 86.9491 21.08 87.0541C20.9985 87.1089 20.9215 87.1637 20.8626 87.2688C20.8354 87.3099 20.7947 87.4103 20.7992 87.4332C20.7992 87.4743 20.7992 87.5291 20.8128 87.6021C20.7177 87.6204 20.6271 87.6341 20.5501 87.6204C20.4776 87.6889 20.7222 87.9218 20.5682 87.9812C20.4776 87.835 20.4187 88.0177 20.3734 87.7939C20.3146 87.7802 20.2919 87.8076 20.2693 87.8807C20.2466 87.9492 20.2285 88.0634 20.1787 88.173C20.156 88.2278 20.1153 88.2826 20.07 88.2826C20.0247 88.2826 19.9975 88.2597 19.9703 88.2232C19.9205 88.1456 19.8933 87.9949 19.916 87.8031C19.8254 87.9675 19.771 87.9264 19.7303 87.8853C19.6895 87.8396 19.6578 87.7848 19.5582 87.8305C19.6035 87.7757 19.5672 87.6615 19.5672 87.5793C19.5627 87.488 19.5944 87.4606 19.7484 87.488C19.771 87.488 19.7756 87.5154 19.7348 87.5428C19.7846 87.5199 19.839 87.4925 19.8888 87.4651C19.9114 87.4377 19.9296 87.4149 19.9522 87.3875C19.9567 87.3784 19.9613 87.3738 19.9658 87.3692C19.9658 87.3647 19.9658 87.3647 19.9613 87.3373C19.9477 87.2962 19.9296 87.2642 19.9024 87.2231C19.8662 87.1455 19.8209 87.0678 19.7801 86.9948C19.6035 86.6934 19.3996 86.3874 19.3136 86.0175C19.3226 86.2458 19.4223 86.529 19.2502 86.3646L19.069 85.6796L19.2502 85.7892C19.1777 85.4421 19.0962 85.095 19.0101 84.7388L18.8833 84.9261C18.8018 84.3872 19.0509 84.1589 18.6297 83.6657C18.4123 83.451 18.5436 84.1863 18.3262 83.6839C18.2356 83.0035 18.1043 81.9806 17.8914 81.1357C17.7238 81.2636 17.6559 81.0353 17.5472 80.8161L17.7057 80.7476C17.1893 79.921 17.9729 80.332 17.5064 79.5009L17.6468 79.5511L17.221 79.405C16.6368 78.6971 17.4339 78.8935 16.7002 78.1263C16.8406 78.4688 16.3786 78.382 16.3197 77.9345L16.519 78.003C16.4103 77.7747 16.3152 77.7107 16.3016 77.5463C16.4329 77.6651 16.5643 77.5646 16.4239 77.2221L16.7002 77.4048C16.5281 77.2084 16.365 77.0212 16.1838 76.802C16.1838 76.5051 16.0344 76.1398 15.8804 75.8064C15.7264 75.4731 15.5497 75.1762 15.5724 74.9981C15.5724 74.9981 15.3957 74.6511 15.0425 74.2903C14.8703 74.1122 14.6439 73.9295 14.4219 73.8062C14.2 73.6784 13.9781 73.6053 13.8422 73.6053C14.0687 73.6327 13.9418 73.5094 13.7788 73.3815C13.6248 73.2491 13.421 73.1349 13.6338 73.1121C13.3213 73.0756 12.7099 73.0025 12.189 73.0345C11.6591 73.0527 11.2333 73.1121 10.9842 73.0573L11.0703 73.0254C10.6219 73.0482 10.2867 73.1075 10.0195 73.1578C9.76582 73.2126 9.55295 73.24 9.32195 73.2902C8.88261 73.345 8.42062 73.3724 8.01298 73.1486C7.99034 73.345 7.56458 73.0847 7.57817 73.3359C7.04371 73.2628 6.69043 72.9249 6.45491 72.6509C6.32809 72.5184 6.22844 72.3906 6.08803 72.3267C5.96121 72.249 5.80269 72.217 5.58075 72.249C5.24558 71.8928 5.39958 71.7102 5.31805 71.491L5.41317 71.5686C5.34976 71.4818 5.29541 71.3996 5.24558 71.3266C5.20029 71.2489 5.16406 71.1758 5.12329 71.1074C5.04177 70.9749 4.99647 70.8516 4.95118 70.7329C4.85154 70.5045 4.80624 70.2853 4.75189 69.9703C4.68848 69.815 4.56166 69.7419 4.45296 69.6141C4.34425 69.4771 4.2582 69.299 4.26726 68.9565C4.43937 69.1619 4.38049 68.888 4.35331 68.6368C4.39408 68.7966 4.45296 68.8423 4.51637 68.5043C4.46655 68.4632 4.43031 68.3902 4.39861 68.3262C4.41219 68.3262 4.41672 68.308 4.43484 68.3125C4.33972 67.897 4.30349 67.9746 4.30349 68.171C4.28084 68.1618 4.25367 68.1801 4.21743 68.244C4.3669 67.792 4.08608 67.0293 4.3352 66.9563C4.15855 65.6959 3.81886 64.8099 3.64221 63.7642C3.7645 63.6363 3.90038 63.8783 3.97285 64.1797L3.86868 63.4354C4.05891 63.4354 4.00909 63.8601 4.06344 64.0838C4.29896 63.1796 3.61957 62.2663 3.83244 61.2114L3.66939 61.0013L3.69203 60.9374C3.61504 60.9465 3.49275 60.7136 3.45651 60.5629C3.61051 60.4077 3.83697 60.5538 3.79621 60.0378C3.92756 59.6222 3.65127 58.8824 3.53804 58.3481C3.52445 58.6358 3.42934 58.549 3.36593 58.4257C3.34781 58.1654 3.5018 58.0147 3.42481 57.8138L3.59692 57.7864C3.43839 57.759 3.38404 57.1379 3.30252 57.0283V57.0146C3.45198 56.8868 3.45651 57.4165 3.58333 57.4759C3.51992 56.4392 3.55163 56.9598 3.48822 55.9232C3.40216 55.672 3.35234 55.672 3.30252 55.7223C3.28893 53.5303 3.2074 51.6077 3.09417 49.6029C2.93564 46.7488 2.71824 43.7211 2.65483 39.4923C2.72277 35.7796 2.88129 33.4324 3.02623 31.0486C3.17117 28.6693 3.28893 26.2536 3.37045 22.4084C3.46104 20.5818 3.55616 18.7369 3.83244 16.965C4.10873 15.1977 4.57978 13.5035 5.34976 12.0421C5.59434 11.2932 6.18315 10.3479 6.96672 9.65833C7.35624 9.31126 7.77746 9.03269 8.21227 8.82263C8.65614 8.60799 9.1589 8.43446 9.64353 8.26093C9.91529 8.24723 10.1961 8.23809 10.486 8.23353C11.2152 8.01889 12.1346 7.80426 12.9227 7.74489L12.882 7.79513C14.0143 7.47089 15.3369 7.32019 15.903 7.16493L15.8623 7.21516L17.2663 6.95486L17.0353 7.05533C18.0363 6.83156 19.0599 6.63976 20.0609 6.46623C21.0664 6.30183 22.0538 6.16939 22.9823 6.05523L22.7966 5.89996C26.7824 5.53006 28.1684 4.96836 31.7918 4.77656L31.751 4.8268C36.2169 3.83126 38.9571 4.35186 43.5861 3.51616C43.0063 3.61663 43.8443 3.58923 43.8035 3.6349C45.9549 3.402 48.2648 3.23303 48.2694 2.87226C49.8501 2.7718 49.5648 2.89966 49.7822 3.02296C49.7595 2.87226 51.1274 2.717 52.3593 2.64393L51.7977 2.7307L55.3306 2.50236L54.6194 2.24663C56.4991 2.24663 55.1177 2.58 56.9113 2.43386L56.875 2.1964C58.1749 2.15986 59.2076 2.2375 60.2313 2.32426C61.2368 2.4156 62.2332 2.50693 63.4652 2.61653C64.7198 2.6485 65.9608 2.73983 67.1384 2.94533C68.3251 3.1417 69.4212 3.50246 70.3588 4.0185C71.2737 4.56193 72.0074 5.26063 72.5011 6.17396C73.0129 7.08273 73.3164 8.15589 73.5791 9.27016C74.6163 13.8231 75.3908 18.367 75.6444 22.6094L75.4859 22.9975C75.2187 23.1848 76.1698 25.29 75.9298 25.6371L76.1653 26.6098C76.1427 26.8883 76.1246 27.4774 76.0204 26.9934C76.0793 27.9021 76.1336 27.925 76.274 28.5734L76.1653 29.5598C76.2106 30.4595 76.2333 31.3271 76.3012 32.1765C76.3646 33.0259 76.4325 33.8616 76.496 34.7065C76.5548 35.5513 76.6228 36.4007 76.6681 37.2729C76.6998 38.1497 76.7224 39.0494 76.7134 39.9992C76.6318 41.1363 76.5503 42.5246 76.5231 44.0453L76.496 44.0773Z" fill="#815E57"/>
<path d="M3.732 60.7456L3.66406 60.9602C3.7003 60.9557 3.732 60.9009 3.732 60.7456Z" fill="#815E57"/>
<path d="M24.8667 76.2771C24.8667 76.2771 24.8667 76.236 24.8667 76.2178C24.8621 76.2589 24.8621 76.2726 24.8667 76.2771Z" fill="#815E57"/>
<path d="M1.6678 69.1211V69.1119C1.65874 69.0937 1.64968 69.0754 1.64062 69.0571L1.6678 69.1211Z" fill="#815E57"/>
<path d="M3.62013 57.8047L3.57031 57.8138C3.57031 57.8138 3.60202 57.8138 3.62013 57.8047Z" fill="#815E57"/>
<path d="M50.656 48.8726L50.3027 49.0826C50.3344 49.1009 50.4341 49.0552 50.656 48.8726Z" fill="#815E57"/>
<path d="M41.457 21.4954C41.4751 21.4726 41.5023 21.4452 41.5159 21.4224C41.4706 21.468 41.457 21.4863 41.457 21.4954Z" fill="#815E57"/>
<path d="M36.6738 56.1836C36.6738 56.1836 36.6874 56.1745 36.6919 56.1745C36.7146 56.1516 36.7418 56.1242 36.7644 56.106L36.6738 56.1882V56.1836Z" fill="#815E57"/>
<path d="M62.2374 21.792L62.2012 21.897C62.2374 21.8833 62.2555 21.8514 62.2374 21.792Z" fill="#815E57"/>
<path d="M60.5383 25.3269C60.5383 25.3269 60.5247 25.3132 60.5156 25.3086L60.5383 25.3269Z" fill="#815E57"/>
<path d="M63.9723 29.1401C64.2304 28.6332 63.782 28.2359 64.0447 27.7792C63.8454 27.7975 63.9542 27.5509 63.696 27.6057C63.5692 27.3636 63.705 27.149 63.7684 26.9663C63.8228 26.7837 63.8137 26.6375 63.4106 26.569C63.3563 26.3544 63.5918 26.3042 63.619 26.19L63.6643 26.2402C63.5556 25.8338 63.5465 25.7151 63.5239 25.4091C63.4242 25.263 63.0483 25.2858 63.0981 25.0072C63.2566 25.0757 63.2159 24.9707 63.1978 24.8702C63.2295 24.9296 63.2883 24.9433 63.3653 24.7972C63.3155 24.7835 63.2838 24.7606 63.2521 24.7378C63.2657 24.7378 63.2702 24.7287 63.2883 24.7287C63.2023 24.5688 63.1615 24.6054 63.157 24.6876C63.1343 24.6876 63.1072 24.6967 63.0709 24.7287C63.2204 24.5277 62.9532 24.2537 63.1978 24.1852C63.0121 23.692 62.6542 23.3952 62.4142 23.0299C62.5229 22.9477 62.6678 23.0116 62.7584 23.1166L62.6089 22.8426C62.7901 22.7924 62.772 22.9796 62.8399 23.0573C63.0121 22.6189 62.2828 22.4408 62.3734 21.9613L62.1968 21.9293L62.2058 21.8973C62.1334 21.9247 61.993 21.8745 61.9386 21.8288C62.0609 21.7192 62.2874 21.701 62.1787 21.5137C62.2104 21.4087 62.1379 21.3082 62.0337 21.2123C61.9205 21.121 61.7801 21.0388 61.685 20.9612C61.7212 21.0753 61.6216 21.0799 61.5446 21.0571C61.4857 20.9703 61.5989 20.847 61.4947 20.8059L61.685 20.7054C61.5264 20.8287 61.3407 20.5593 61.2366 20.5684C61.3407 20.4451 61.454 20.6415 61.5763 20.6141C61.3136 20.2625 61.4449 20.4406 61.1822 20.0889C60.9105 19.9748 61.0282 20.2214 60.8018 20.2214C60.6568 20.0752 60.3987 19.9885 60.3352 19.7373L60.3216 19.7601C60.1948 19.5546 59.982 19.3172 59.7374 19.0843C59.5154 18.8742 59.2799 18.6642 59.058 18.4906C58.8406 18.308 58.6549 18.1481 58.5416 18.034L58.6141 18.0522C57.8396 17.6184 57.1059 17.1115 56.2679 16.6959C55.4391 16.2849 54.4879 15.9744 53.5549 16.0201C53.6273 16.0018 53.6817 15.9059 54.1075 15.9561C53.7678 15.9242 53.4009 15.8831 53.034 15.8968C52.8528 15.8968 52.6717 15.8922 52.495 15.8968C52.3229 15.9105 52.1508 15.9196 51.9923 15.9333C51.6707 15.9424 51.3989 15.9835 51.1951 15.9927C50.9868 16.0018 50.8509 15.9927 50.8147 15.9424C50.4251 16.0201 50.0266 16.1297 49.6235 16.2484C49.4287 16.3169 49.2294 16.3854 49.0301 16.4539L48.7312 16.5589L48.4413 16.6868C48.2465 16.7736 48.0563 16.8558 47.8616 16.9425C47.6713 17.0293 47.5037 17.1206 47.3226 17.212C47.1459 17.3033 46.9693 17.3946 46.7972 17.486C46.6296 17.5819 46.4575 17.6777 46.2944 17.7736C44.9628 18.5408 43.8622 19.3811 43.2915 20.0159L43.3458 19.9017C42.7299 20.6552 42.3585 20.6872 41.6111 21.4635C41.5432 21.4818 41.4752 21.5229 41.4752 21.5046C40.8366 22.3312 39.2468 23.5733 38.7531 24.2355L38.5946 24.1852C38.3636 24.4364 38.1281 24.683 37.9016 24.9387L37.5619 25.3178L37.4623 25.4319L37.3898 25.5233L37.5166 25.4045L37.7658 25.1579C37.7839 25.2127 37.7793 25.2675 37.7567 25.3269C37.7431 25.3543 37.725 25.3863 37.7023 25.4182C37.6842 25.4456 37.6435 25.4913 37.6389 25.4959C37.571 25.5689 37.4623 25.6374 37.3491 25.7014C37.2358 25.7653 37.1226 25.8247 37.0229 25.916C36.9188 26.0073 36.8282 26.1261 36.7104 26.3681C36.6651 26.4092 36.6153 26.4868 36.57 26.5508C36.4432 26.4046 36.2258 26.4046 35.9223 26.1535C35.7683 26.0347 35.6098 25.8658 35.4558 25.6603C35.3788 25.5598 35.3063 25.4456 35.2339 25.3041C35.1659 25.1671 35.098 25.0301 35.0436 24.8839C34.5409 24.3816 35.6234 25.2721 35.0029 24.4638C35.1886 24.3496 35.3562 24.82 35.3924 24.5232C34.8172 23.7103 34.7855 23.0116 33.8932 22.0663L34.0064 21.9384C33.3587 21.363 32.8786 20.742 32.3487 20.2031C32.2174 20.0707 32.0951 19.9337 31.9592 19.8104C31.8188 19.6916 31.6829 19.5775 31.547 19.4724C31.2798 19.2532 30.9718 19.1025 30.6729 18.9975C29.8123 18.5865 29.5677 18.3673 29.2869 18.1618C29.1465 18.0614 29.0016 17.9609 28.757 17.8604C28.5033 17.7874 28.1546 17.696 27.6201 17.6641C27.362 17.5545 27.0993 17.4449 26.8275 17.3398C26.361 17.2713 26.1843 17.3535 26.0077 17.3992C25.8265 17.454 25.6408 17.4723 25.1335 17.4723C25.1607 17.4038 24.8346 17.4038 24.5719 17.4038C24.3137 17.4038 24.1235 17.4312 24.4043 17.3124C23.2131 17.3855 22.0944 17.8285 21.0526 18.4176C20.0019 19.0112 19.0145 19.7419 17.8957 20.5913C17.8097 20.8972 17.4836 21.2534 17.2163 21.6279C16.9491 21.9978 16.6864 22.354 16.6773 22.5869C16.6049 22.5869 16.2244 23.1303 16.007 23.5413C15.7715 23.9432 15.6039 24.1761 15.8213 23.4683C15.8621 23.345 15.9708 23.1486 16.007 23.1806L15.9391 22.9522C14.8747 24.1624 14.9472 25.5735 14.7162 26.9252C14.8158 26.5142 14.9381 25.9662 14.9743 26.3498C14.9245 26.5645 14.8837 26.7791 14.8566 26.9937C14.8294 27.2084 14.7932 27.4276 14.7705 27.6422C14.7252 27.5509 14.6935 27.455 14.6573 27.3591C14.5576 28.0075 14.5169 28.6606 14.5078 29.309L14.6845 29.035C14.621 29.9758 14.3538 30.3457 14.7705 31.3686C14.9924 31.8161 14.8566 30.469 15.083 31.428C15.1691 32.6655 15.5133 34.5059 16.0704 35.9809C16.2063 35.7846 16.3512 36.1819 16.5641 36.57L16.4192 36.6705C16.863 37.3966 16.8449 37.561 16.8132 37.7345C16.7815 37.9035 16.7408 38.0816 17.1937 38.7894L17.547 38.963C18.0361 39.5612 18.0497 39.7713 18.095 39.995C18.1358 40.2188 18.1992 40.4654 18.8242 41.1002C18.48 40.5293 18.9963 40.6892 19.3632 41.4016L19.105 41.2965C19.3723 41.6664 19.5127 41.7623 19.6395 42.0318C19.4221 41.84 19.3451 42.0181 19.7301 42.5661C19.5852 42.4747 19.4447 42.3788 19.3043 42.2784C19.6123 42.598 19.9475 42.8903 20.2646 43.1917C20.4503 43.6392 20.8217 44.1416 21.1523 44.5845C21.4739 45.0366 21.7592 45.4202 21.7819 45.6349C21.7819 45.6349 22.0672 46.0641 22.416 46.5208C22.7693 46.9729 23.1859 47.457 23.4396 47.5803C23.0546 47.3337 23.6932 48.2607 23.3399 48.0963C23.82 48.4251 24.9025 49.585 25.1154 50.1741L25.0248 50.0919C26.2478 52.0054 27.593 53.0785 28.4399 54.8687C28.5713 54.7088 29.0287 55.6404 29.1193 55.3162C29.4228 55.7363 29.6628 56.1656 29.8621 56.572C30.0433 56.9876 30.1747 57.3803 30.3151 57.732C30.4645 58.079 30.5506 58.3987 30.7046 58.6498C30.7227 58.6818 30.7453 58.7092 30.7635 58.7412C30.7952 58.7914 30.8223 58.8417 30.854 58.8919C30.9129 58.9924 30.9763 59.0837 31.0397 59.1659C31.1575 59.3349 31.2798 59.4627 31.4111 59.5404C31.6603 60.2071 31.7554 60.6363 31.8278 61.0291C31.9003 61.4173 31.9456 61.7598 32.0588 62.1662L31.9139 61.8739C31.9456 61.9561 31.9728 62.0383 32.0045 62.1205L32.0498 62.2392C32.0498 62.2392 32.0634 62.2484 32.0724 62.2392L32.0996 62.221L32.1585 62.1844C32.3125 62.0886 32.4574 61.9926 32.6024 61.9059C32.8832 61.7278 33.1413 61.568 33.3769 61.4173C33.8479 61.1204 34.251 60.8693 34.636 60.6318C35.2429 60.2619 35.7819 59.9285 36.5564 59.4536C37.1181 59.0152 37.0003 58.7001 38.1326 58.0699C37.8745 58.3987 38.2957 58.0973 38.6988 57.8324C38.4542 58.0151 38.4089 58.1064 38.9977 57.8324C39.043 57.7502 39.1427 57.6589 39.2378 57.5721C39.2514 57.5767 39.274 57.5721 39.274 57.5904C39.9126 57.1155 39.7677 57.1611 39.4461 57.3484C39.4461 57.321 39.4054 57.321 39.2831 57.3484C40.1029 57.0378 41.1944 56.0514 41.4345 56.1747C43.3866 54.7773 44.5959 53.5809 46.0997 52.3068C46.3624 52.2565 46.0725 52.6127 45.6467 52.9963L46.7338 52.1058C46.8561 52.2383 46.1631 52.6721 45.8415 52.9598C46.2265 52.7543 46.5843 52.5123 46.9149 52.2337C47.2456 51.9551 47.5626 51.6492 47.8842 51.3386C48.2058 51.0281 48.541 50.7176 48.8852 50.4025C49.2294 50.0874 49.5963 49.7814 50.0175 49.4983L50.2168 49.1375L50.321 49.0736C50.2576 49.0279 50.5203 48.6808 50.706 48.4616C51.023 48.3703 50.9641 48.7037 51.6616 48.0324C51.9968 47.8177 52.3773 47.4296 52.7532 47.0049C53.0567 46.6167 53.3737 46.2148 53.65 45.8632C53.8176 45.8358 53.9897 45.7993 54.1799 45.749L54.2071 45.8038C54.7506 45.507 55.0269 45.2558 55.0405 44.79C55.3938 44.9681 55.3983 44.4795 55.5795 44.4521L55.5976 44.4795C55.575 44.0548 56.2679 44.0868 56.2589 43.694C56.277 43.7214 56.363 43.7854 56.3178 43.8447C56.431 43.6347 56.5578 43.3378 56.7616 43.4429C57.0787 42.9771 57.6403 42.3971 57.5407 41.9313L57.5814 41.9815C57.4908 41.6984 57.7082 41.7532 57.7309 41.5066C57.7626 41.5066 57.7852 41.5066 57.7943 41.5112C57.7082 41.2143 58.134 40.9677 58.1476 40.7714L58.288 40.8353C58.365 40.712 58.4329 40.5841 58.5054 40.4563L58.3876 40.5796C58.0479 40.3375 58.8043 40.4243 58.7409 40.0361C58.9538 39.8124 58.2971 39.1502 58.6368 38.9812C58.5371 38.7712 58.8542 39.2278 58.836 38.9812C59.0353 39.068 58.904 39.1274 59.0897 39.1548C59.1078 38.9264 59.4792 38.9538 59.4837 38.6661L59.6423 38.7301C59.5471 38.3054 60.1812 38.2643 60.0272 37.94C60.0771 37.5747 60.6115 37.94 60.4938 37.4834L60.7746 37.4468C60.8878 37.3235 60.5708 37.2368 60.7565 37.1226C60.8833 37.1911 60.9693 36.9719 61.0463 37.118C61.454 36.8532 61.1369 36.2823 61.7303 35.949C61.5174 35.7435 61.7937 35.5699 61.6306 35.4147C61.7574 35.4466 61.8707 34.9397 62.002 35.3005C62.0111 35.3325 61.9884 35.3736 61.9431 35.3507L62.0881 35.4421C62.5138 35.2731 62.1515 34.8804 62.3236 34.6246C62.233 34.6886 62.1968 34.7982 62.1198 34.6886L62.2557 34.442L62.3689 34.5379C62.4549 34.4237 62.5319 34.3004 62.6089 34.1817H62.4187C62.5818 34.0218 62.8988 34.0401 62.7448 33.7524C62.6497 33.6154 62.4459 33.862 62.4731 33.6474C62.695 33.4373 63.003 33.0902 63.1751 32.7706C62.9713 32.7523 63.0075 32.6655 63.003 32.5605L63.1751 32.5925C63.0573 32.1769 63.5873 32.5468 63.5103 32.1358L63.2929 32.0171C63.0438 31.6198 63.7005 31.9029 63.3291 31.4554C63.3291 31.6015 62.9351 31.4554 63.0483 31.2955L63.2023 31.3686C63.1887 31.2681 63.1253 31.2225 63.1751 31.1677C63.2521 31.2407 63.4106 31.2407 63.4106 31.0946L63.5963 31.2225L63.3472 30.9074C63.5737 30.7338 63.4016 30.3685 63.6552 30.3183C63.6552 30.3183 63.85 29.8844 63.6009 29.752C63.7503 29.8616 63.8454 29.6196 64.0221 29.7109C63.8545 29.5693 63.7594 29.2177 63.9632 29.0898L63.9813 29.1172L63.9723 29.1401ZM50.86 45.338C50.475 45.7034 50.0945 46.0185 49.7457 46.3244C49.3925 46.6258 49.0618 46.9044 48.7448 47.1784C48.4096 47.4387 48.088 47.6944 47.7664 47.9502C47.4449 48.2059 47.1233 48.4662 46.7926 48.7311C46.4529 48.9959 46.0997 49.2654 45.7192 49.5576C44.9719 50.1513 44.1249 50.8226 43.0786 51.6492C41.0087 53.147 38.8075 54.7728 36.6923 56.1702C36.2801 56.6086 35.5645 57.047 34.8308 57.5036C33.8298 58.1293 34.02 57.9923 33.789 58.2663C33.7528 58.2297 33.7301 58.1841 33.7211 58.1293C33.5762 58.3713 33.5309 58.2343 33.5626 58.0882L33.5988 58.0471C33.5399 58.0562 33.5037 57.9923 33.4765 57.942C33.472 57.9283 33.4629 57.9192 33.4584 57.9055C33.4267 57.8324 33.3995 57.7639 33.3723 57.7046C33.318 57.5767 33.2636 57.4671 33.2138 57.3895L33.2727 57.4032C33.1595 57.1292 33.0236 56.8643 32.8877 56.604L33.0191 56.7182C32.6748 56.1702 32.3759 55.5948 32.0453 55.0559C31.7373 54.5079 31.4338 53.9736 31.153 53.4758L31.0262 53.6402C30.8903 53.3662 30.7544 53.1196 30.6276 52.8913C30.4917 52.6675 30.3558 52.4666 30.2245 52.2748C29.9618 51.8958 29.7172 51.5578 29.459 51.2473C29.2054 50.9322 28.9563 50.6217 28.7072 50.27C28.4535 49.923 28.1908 49.5394 27.9191 49.069H27.9779C25.8582 47.1327 25.5865 45.4659 23.5302 43.4748C23.7838 43.726 23.5302 43.3059 23.5891 43.3059C23.3898 43.0547 23.1905 42.799 23.0002 42.5569C22.8145 42.3149 22.6379 42.0866 22.4703 41.8948C22.1397 41.5112 21.8498 41.2737 21.6732 41.3513C21.1976 40.5704 21.3923 40.6663 21.4648 40.5019C21.3878 40.5385 21.2293 40.3969 21.0436 40.1731C20.8579 39.9448 20.6677 39.6251 20.4865 39.3192L20.7039 39.5795L20.1876 38.7027L19.6984 37.7985L19.5761 38.2734C19.182 37.2642 19.8207 37.8852 19.2998 36.981L19.0507 37.0861C18.4755 35.7069 18.5298 34.7753 18.2898 33.4145C17.8686 32.0399 17.5606 30.6334 17.4519 29.2268C17.4111 28.5236 17.4111 27.8203 17.4881 27.1216C17.4971 26.9481 17.5379 26.7745 17.5651 26.601C17.5968 26.432 17.6104 26.2494 17.6602 26.0895L17.787 25.5963C17.8278 25.4319 17.9003 25.2721 17.9591 25.1123C18.4257 23.8153 19.2998 22.6234 20.3733 21.6781C21.4467 20.7328 22.7874 20.0889 24.1009 19.8515C24.196 19.8926 24.2866 19.9382 24.3772 19.9839C24.4179 20.0433 24.5176 20.0341 24.6489 19.9839C24.7123 19.9611 24.7893 19.9291 24.8663 19.888C24.9478 19.8515 25.0339 19.8286 25.12 19.7921C25.2966 19.7282 25.4778 19.6597 25.6318 19.6231C25.7858 19.6049 25.9081 19.614 25.9533 19.6779C26.1526 19.6505 26.361 19.5912 26.5693 19.5957C26.7324 19.6688 27.0721 19.7693 26.7686 19.783C27.0404 19.8241 27.1808 19.8332 27.3031 19.856C27.4299 19.8697 27.5386 19.8652 27.7515 19.8789C27.9326 19.9702 28.0866 20.1163 28.2452 20.2259C29.219 20.6735 30.0705 21.2078 30.8722 21.8973C31.6693 22.5869 32.3985 23.4272 33.0009 24.4775C33.2863 25.094 33.626 25.8201 33.9974 26.6147C34.5817 27.9573 35.2203 29.4095 35.8725 30.9074C36.6289 29.9803 37.4034 29.0305 38.1734 28.0897C38.5539 27.6376 38.9298 27.1901 39.3057 26.7426C39.5276 26.4823 39.7451 26.2265 39.9625 25.9754C40.7913 25.0118 41.6021 24.135 42.3041 23.4409C43.912 21.7238 46.1631 20.2807 48.5772 19.2487L49.0301 19.0523L49.4649 18.8925C49.6099 18.8422 49.7503 18.7829 49.8952 18.7418L50.33 18.623C50.6154 18.5271 50.9098 18.4952 51.1951 18.4313C51.3355 18.3947 51.4805 18.3947 51.6209 18.3765C51.7613 18.3628 51.9017 18.3308 52.0421 18.3308C52.3229 18.3262 52.5992 18.2942 52.871 18.3216C53.1472 18.3216 53.4145 18.3582 53.6817 18.3856C54.2116 18.4678 54.7416 18.5637 55.2579 18.7418C55.3711 18.8194 55.738 18.9153 55.7516 18.8925C56.671 19.372 57.4682 20.0661 58.1521 20.8561C58.1612 20.879 58.1793 20.9018 58.2065 20.9246C58.3786 21.1301 58.5462 21.3402 58.7047 21.5548C58.7047 21.5548 58.7545 21.6142 58.8315 21.7284C58.9085 21.8425 59.0217 22.0115 59.1622 22.2216C59.366 22.5595 59.6377 23.0116 59.8959 23.5459C59.9412 23.6738 59.9955 23.8153 60.0861 23.9752C60.1405 24.1989 60.2175 24.4227 60.3035 24.6465C60.3715 24.8748 60.4666 25.0986 60.5255 25.3178C60.5708 25.3406 60.6025 25.3726 60.6296 25.4C60.6659 25.5141 60.7021 25.6237 60.7338 25.7379C60.7474 25.8521 60.761 25.9617 60.8199 26.0621C60.8289 26.0987 60.838 26.1352 60.847 26.1763L60.7293 26.2585C60.8244 26.3407 60.8923 26.4457 60.8018 26.5416H60.7519C60.8833 26.6649 60.8153 26.8202 60.8833 26.8887H60.8335L60.8606 27.0485L60.7882 27.0211C60.9241 27.254 60.9286 27.5006 60.8652 27.7153L61.069 27.7016C60.8153 28.1582 61.232 28.35 60.915 28.7565L60.8652 28.7473C61.1098 29.035 60.9829 29.2451 60.8606 29.446C60.7383 29.6515 60.6025 29.8479 60.8018 30.1584C60.7519 30.0808 60.6931 30.1721 60.6432 30.1584C60.6614 30.4187 60.6206 30.6927 61.0101 30.7658C60.9376 30.7567 60.8561 30.8023 60.761 30.8982C60.7429 30.8982 60.7202 30.8982 60.7021 30.8982C60.7202 30.8982 60.7338 30.9119 60.7474 30.9165C60.7248 30.9439 60.6976 30.9667 60.6749 30.9987C60.4168 31.2818 59.9638 31.9897 59.6332 32.5788C59.4656 32.8756 59.3161 33.1542 59.212 33.3551C59.1622 33.4556 59.1169 33.5378 59.0806 33.5926C59.0489 33.6474 59.0308 33.6793 59.0308 33.6793C58.7183 34.168 58.442 34.6292 58.1884 35.0767C58.057 35.2959 57.9483 35.5197 57.8124 35.7298C57.6811 35.9398 57.5543 36.1453 57.4274 36.3463C57.1783 36.7527 56.9519 37.1546 56.7254 37.5519C56.4944 37.9492 56.2408 38.3282 56.0007 38.7301C55.7516 39.1228 55.5297 39.5384 55.2534 39.9448C54.9726 40.3512 54.6872 40.7759 54.3792 41.2189C54.0848 41.671 53.727 42.1231 53.342 42.6026C52.9525 43.0775 52.5675 43.6073 52.0738 44.1233C51.6254 44.5663 51.2178 44.9681 50.8418 45.338H50.86ZM53.4462 45.8997C53.4824 45.8952 53.5186 45.886 53.5549 45.8815C53.4779 45.9363 53.4462 45.9363 53.4462 45.8997Z" fill="#815E57"/>
<path d="M63.4883 32.1582L63.597 32.2176L63.4883 32.1582Z" fill="#815E57"/>
</g>
<defs>
<clipPath id="clip0_322_1908">
<rect width="79" height="92" fill="white"/>
</clipPath>
</defs>
</svg>
