<svg width="92" height="92" viewBox="0 0 92 92" fill="none" xmlns="http://www.w3.org/2000/svg">
<g clip-path="url(#clip0_322_3817)">
<path d="M46.3899 40.3821C46.241 40.3134 46.0341 40.3279 45.9034 40.4292C45.8671 40.4545 45.8235 40.5088 45.8671 40.4618C46.0667 40.2482 46.4951 39.8356 46.7021 39.6329C54.769 31.8685 65.3482 31.0902 72.66 40.288C75.205 43.5603 77.1437 47.2742 77.8516 51.4116C78.1529 53.4929 78.0876 55.596 77.7826 57.6412C75.7205 70.3611 64.1393 85.4519 52.3184 90.6897C47.9183 92.6262 43.8558 92.3475 39.5827 90.3784C33.9046 87.7649 29.2068 83.4755 25.1915 78.8277C19.0233 71.4578 12.837 60.6384 14.6086 50.7202C14.7865 49.6958 15.0879 48.6642 15.4328 47.6905C16.4602 44.7584 17.8543 41.9676 19.7966 39.5025C27.4823 29.7111 39.1688 32.1689 46.9199 40.4509C46.949 40.4763 47.0615 40.6102 47.0905 40.6355C47.1014 40.65 47.1377 40.679 47.0288 40.5776C46.8691 40.4328 46.5968 40.3568 46.3971 40.3894L46.3899 40.3821ZM46.3971 42.4708C46.1321 42.4744 45.6674 42.2282 45.5185 42.011C45.4133 41.888 45.239 41.707 45.1337 41.5912C35.7489 31.901 24.1241 32.9363 18.4533 45.6634C17.6909 47.4045 16.983 49.218 16.6635 51.093C16.0173 54.8323 16.7397 58.7199 18.0467 62.2781C21.8006 72.3483 31.0148 83.1026 40.7735 87.7287C45.5657 89.9585 49.2434 89.3685 53.767 86.831C57.9929 84.4673 61.656 81.1805 64.9162 77.6151C70.0279 71.8452 74.4535 64.9604 75.9347 57.3371C76.6862 53.5183 76.1634 49.7067 74.4607 46.1883C72.8488 42.7169 70.489 39.441 67.2942 37.2909C60.6576 32.8422 53.1643 35.5751 48.1143 41.0228L47.6387 41.5586C47.3338 41.9712 46.8945 42.3658 46.3935 42.4744L46.3971 42.4708Z" fill="#815E57"/>
<path d="M81.8885 19.2611C75.9817 19.1054 75.2738 24.231 76.4718 28.8933C77.2923 32.2054 78.6828 35.5392 81.569 37.3563C82.611 37.8956 83.7473 38.4241 84.9236 38.0766C85.6388 37.8558 86.3322 37.5011 86.9276 37.0486C89.8465 34.8044 90.2277 30.7719 89.93 27.2029C89.6323 22.6854 86.4121 19.5181 81.8921 19.2575L81.8885 19.2611ZM81.9502 17.4331C86.0527 17.5308 89.861 20.2058 91.1208 24.1297C91.8723 26.3124 91.9776 28.5567 91.9994 30.8118C91.9486 31.7565 91.8505 32.8135 91.6255 33.7438C91.5746 34.0732 91.4621 34.3953 91.3532 34.7139C91.237 34.9962 91.1462 35.4089 90.9974 35.6731C90.0099 37.968 88.0603 39.8214 85.6352 40.5127C84.5279 40.8892 83.2354 40.6937 82.1971 40.3317C80.2258 39.6874 78.5231 38.1816 77.4375 36.4477C75.321 33.0452 74.6058 29.2842 74.584 25.4183C74.584 21.118 77.3758 17.4078 81.9539 17.4367L81.9502 17.4331Z" fill="#815E57"/>
<path d="M61.3704 2.23716C56.6507 0.336782 51.913 2.94663 51.3321 8.06137C51.0126 10.407 51.5971 12.7598 52.2288 15.033C52.4067 15.5941 52.7153 16.3832 52.9041 16.9515C53.5503 18.4465 54.3672 19.9704 55.4055 21.1685C56.8323 22.8734 58.869 24.0752 61.0618 24.1114C65.2223 23.4237 67.4877 19.3587 67.7636 15.395C67.9452 13.2413 67.8108 10.968 67.2844 8.84685C66.5002 5.83521 64.3183 3.31223 61.3704 2.23716ZM62.0166 0.52863C66.6854 2.1901 69.1033 6.39627 69.5063 11.1345C69.9746 15.5543 69.6842 20.6075 66.3514 23.9847C65.0117 25.3204 63.2873 26.3014 61.3958 26.6127C60.775 26.6778 60.136 26.609 59.5406 26.5005C53.8734 25.4254 51.0126 19.6265 50.1013 14.4756C49.3244 10.8993 49.3026 6.71119 51.6116 3.64887C53.9605 0.564827 58.3389 -0.843262 62.0166 0.52863Z" fill="#815E57"/>
<path d="M10.0492 17.4329C14.6127 17.3967 17.4227 21.1178 17.419 25.4145C17.4009 29.2804 16.6821 33.0449 14.5655 36.4439C13.48 38.1778 11.7736 39.6836 9.80593 40.3279C9.02174 40.5922 8.12138 40.7804 7.22466 40.7007C6.76358 40.6428 6.28436 40.4872 5.8487 40.3424C1.78257 38.8293 0.116175 34.8946 0 30.8115C0.0217829 28.5564 0.127067 26.3158 0.878576 24.1294C2.13835 20.2056 5.94673 17.527 10.0492 17.4329ZM10.1109 19.2609C5.58731 19.5215 2.3707 22.6852 2.073 27.2063C1.77167 30.7717 2.15651 34.8041 5.07541 37.052C5.67081 37.5045 6.3606 37.8592 7.07944 38.08C8.25208 38.4275 9.39205 37.8954 10.434 37.3597C13.3202 35.5426 14.7071 32.2088 15.5312 28.8967C16.7293 24.238 16.0249 19.1088 10.1145 19.2645L10.1109 19.2609Z" fill="#815E57"/>
<path d="M29.9845 0.528686C33.6658 -0.843206 38.0405 0.561264 40.3894 3.64892C42.6984 6.71125 42.6803 10.8957 41.8997 14.4756C40.9885 19.6266 38.124 25.4291 32.4605 26.5005C31.8651 26.6091 31.2261 26.6815 30.6053 26.6127C28.7138 26.3014 26.9893 25.3205 25.6497 23.9848C22.3169 20.6112 22.0228 15.5543 22.4948 11.1346C22.8978 6.39633 25.3193 2.18654 29.9845 0.528686ZM30.6271 2.23722C27.1237 3.52585 24.8982 6.67143 24.4153 10.3129C24.1684 11.9889 24.0813 13.73 24.2374 15.3951C24.5097 19.1813 26.5609 23.0726 30.4419 24.0137C30.6198 24.0572 30.805 24.1006 30.9538 24.1115C31.8977 24.1115 32.8235 23.84 33.6912 23.4527C36.3124 22.2292 37.9715 19.5759 39.0934 16.9552C39.4092 16.0575 39.8231 14.9752 40.03 14.0449C40.7597 11.4676 41.13 8.70936 40.2152 6.15742C38.7666 2.12138 34.4681 0.680716 30.6271 2.24084V2.23722Z" fill="#815E57"/>
<path d="M50.6197 81.5425C50.8702 81.4086 50.9391 81.3869 51.088 81.4592C51.2913 81.5896 51.4982 81.7561 51.6652 81.9226C52.3441 82.5778 53.092 83.3017 53.7346 83.9822C54.6277 84.9197 55.4228 85.9441 56.374 86.831L54.998 88.011C54.261 86.9396 53.3679 86.0021 52.5729 84.9813C51.992 84.2465 51.3857 83.3994 50.8411 82.6321C50.6995 82.4438 50.5688 82.2122 50.4672 81.9914C50.4163 81.8321 50.449 81.7705 50.6197 81.5425Z" fill="#815E57"/>
<path d="M52.4935 75.646C52.7912 75.5265 52.8675 75.5518 53.0454 75.6749C53.3249 75.9066 53.6117 76.1817 53.8513 76.4459C54.8279 77.4957 55.888 78.6648 56.8283 79.7363C58.1244 81.2204 59.3188 82.7878 60.6766 84.2212L59.268 85.365C58.1317 83.7506 56.8356 82.2665 55.6412 80.7028C54.7807 79.5698 53.8404 78.2992 53.0091 77.1337C52.7949 76.8441 52.5843 76.5075 52.4137 76.1925C52.3302 75.9971 52.3193 75.9174 52.4972 75.6496L52.4935 75.646Z" fill="#815E57"/>
<path d="M54.6998 70.8209C55.1572 70.6182 55.3315 70.9657 55.6146 71.1937C57.8038 73.4778 59.895 75.9211 61.9172 78.35C62.6578 79.2368 63.3984 80.1237 64.1862 80.9707L62.7812 82.1146C62.1059 81.1734 61.3835 80.2721 60.661 79.3744C58.6788 76.9166 56.6929 74.3827 54.8849 71.791C54.7215 71.4724 54.4093 71.2263 54.7034 70.8209H54.6998Z" fill="#815E57"/>
<path d="M59.47 68.8881C59.7677 68.7723 59.8439 68.794 60.0146 68.9171C60.2869 69.1451 60.5628 69.4166 60.7951 69.6772C61.7427 70.7125 62.7629 71.8636 63.6705 72.9205C64.923 74.3829 66.0702 75.9286 67.3845 77.3439L65.9649 78.4733C64.8758 76.8806 63.6233 75.4182 62.4724 73.8762C61.6447 72.7613 60.7407 71.5052 59.942 70.3541C59.7387 70.0718 59.5354 69.7388 59.372 69.4238C59.2921 69.2284 59.2849 69.1524 59.4664 68.8881H59.47Z" fill="#815E57"/>
<path d="M63.4854 66.4664C63.7649 66.3433 63.8303 66.3469 63.99 66.4446C64.2223 66.6256 64.4583 66.8464 64.6507 67.06C65.4422 67.907 66.2954 68.8518 67.0505 69.7241C68.0888 70.9295 69.0291 72.2146 70.1291 73.3693L68.706 74.495C67.8274 73.1629 66.7891 71.9575 65.8488 70.6725C65.1735 69.7423 64.4402 68.6961 63.7976 67.7333C63.6306 67.4944 63.4708 67.2157 63.3474 66.9478C63.2857 66.7668 63.3002 66.7053 63.4817 66.4627L63.4854 66.4664Z" fill="#815E57"/>
<path d="M67.882 65.3803C68.1252 65.25 68.187 65.221 68.3286 65.2789C68.4992 65.3839 68.6771 65.5215 68.815 65.6626C69.3741 66.2128 69.9877 66.821 70.5068 67.4001C71.2329 68.1928 71.8574 69.0725 72.6452 69.8181L71.2329 70.9547C70.6702 70.0317 69.9405 69.2353 69.316 68.363C68.8586 67.7331 68.3903 67.0056 67.9691 66.3468C67.8602 66.1839 67.7622 65.9812 67.6932 65.7929C67.6605 65.6445 67.7077 65.5866 67.8856 65.3803H67.882Z" fill="#815E57"/>
</g>
<defs>
<clipPath id="clip0_322_3817">
<rect width="92" height="92" fill="white"/>
</clipPath>
</defs>
</svg>
