<svg width="146" height="476" viewBox="0 0 146 476" fill="none" xmlns="http://www.w3.org/2000/svg">
<path d="M67.715 438.597C67.8201 439.526 67.4652 440.858 67.4593 441.972C67.4113 446.456 67.0947 448.293 66.763 452.326C66.4979 458.556 64.4074 476.363 61.5745 475.957C61.5744 475.957 61.5743 475.957 61.5743 475.957C61.5482 475.952 61.5221 475.946 61.4961 475.937C61.0027 475.78 60.7184 474.162 60.1807 473.843C59.6421 473.525 55.9181 473.038 56.045 470.939C56.2828 467.968 58.1153 460.807 58.1812 459.234C58.2512 458.168 58.0283 456.747 58.0662 455.327C58.1701 450.791 58.4929 448.402 57.5835 444.337C58.0743 442.743 58.5395 441.082 58.9768 439.415C58.6907 437.271 59.1458 434.06 59.0014 432.719C58.8896 431.648 58.4508 431.057 58.3296 429.959C58.1915 428.74 58.4096 426.783 58.0479 424.524C57.446 420.857 56.3207 420.371 55.8184 418.197C55.297 415.97 55.1243 412.33 54.0999 409.557C53.9078 409.225 53.7149 408.896 53.5212 408.568C53.3385 408.881 53.155 409.193 52.9707 409.504C52.5207 408.123 52.8609 407.361 52.5307 406.043C52.1381 404.49 51.4511 403.839 51.167 402.814C50.9364 401.983 50.9747 400.702 50.6229 399.616C50.1085 398.029 49.6723 398.546 49.3076 397.726C49.1943 397.412 46.8056 391.205 46.6614 390.881C45.6925 388.202 46.3281 387.703 45.6022 385.55C43.5613 379.55 40.4926 373.749 37.9937 368.376C36.8716 365.961 35.8494 363.409 34.9387 360.892C38.3716 364 36.2499 354.854 34.7109 359.237C33.9933 356.342 32.4173 354.689 31.5107 352.013C30.9257 350.274 30.8614 348.935 29.932 346.488C28.2711 342.155 25.5015 337.627 27.2126 335.674C25.182 330.542 24.8422 325.719 22.5065 324.184C22.0574 322.791 22.4774 318.963 22.3789 317.345C22.1214 315.858 21.4217 304.174 21.5592 302.304C21.5139 300.413 21.5538 297.054 21.4435 295.475C21.302 293.497 19.3379 291.827 22.0109 288.505C22.2438 284.307 22.5175 282.906 23.4426 279.115C23.6159 278.427 23.9765 278.411 24.0527 278.004C24.2098 277.165 24.2186 275.773 24.5087 274.301C24.9857 271.888 26.0689 270.666 24.9036 270.668C24.9278 270.482 24.9525 270.295 24.9777 270.109C25.1926 268.571 25.4897 267.048 25.8659 265.542C26.2811 265.045 26.7035 264.564 27.1355 264.092C27.2687 263.154 27.4331 262.215 27.6283 261.277C28.5573 262.92 30.7696 256.878 28.9592 258.217C30.9361 255.477 33.1764 252.982 35.5736 250.743C36.6061 252.219 40.6041 245.791 39.5696 245.501C39.848 245.246 40.129 244.994 40.4124 244.743C43.1631 242.964 45.2995 240.776 48.7532 238.871C52.2513 236.997 52.0394 237.415 53.4807 237.541C54.2395 237.043 55.0093 236.557 55.7891 236.081C59.0064 231.82 59.9295 235.667 66.7359 231.008C69.6726 231.419 75.4076 228.744 79.4655 227.379C79.9328 227.217 79.8765 226.936 80.4988 226.706C82.0308 226.121 86.1475 225.751 85.8581 224.882C87.3011 224.912 88.7829 224.966 90.2257 225.058C91.3643 224.75 92.4932 224.464 93.6498 224.197C93.6193 223.911 93.5888 223.626 93.5582 223.34C96.0443 224.092 99.6617 223.583 101.551 223.837C101.918 223.887 101.998 224.278 103.123 224.407C104.421 224.554 106.908 224.561 108.473 224.836C109.122 224.454 109.779 224.08 110.444 223.716C113.335 223.827 114.19 225.177 115.781 225.578C116.028 225.576 121.507 226.894 121.741 227.019C124.135 227.715 123.912 226.107 130.46 229.722C131.584 230.405 132.312 231.271 133.296 231.979C135.099 233.026 140.254 237.202 141.067 237.37C142.276 239.955 145.552 246.587 145.524 248.733C145.576 249.38 145.091 249.621 145.249 251.574C145.404 252.968 145.969 257.144 145.685 258.897C145.429 260.878 144.817 261.542 144.639 262.441C144.454 263.331 144.703 264.083 144.452 265.177C143.639 268.651 141.994 271.442 140.97 273.954C139.351 277.863 139.022 281.019 137.716 284.432C137.235 285.142 136.667 285.637 136.238 286.363C135.087 288.307 133.79 290.345 132.348 292.461C127.734 300.592 115.424 306.159 106.535 302.792C100.939 301.726 91.4882 293.051 92.8093 297.105C90.9691 296.715 82.0238 287.431 80.602 285.598C79.0279 283.927 77.4215 282.837 76.1618 281.402C72.5448 277.24 70.2289 273.775 66.067 268.691C64.9678 267.339 63.4295 266.086 62.8345 265.201C62.111 264.125 61.8609 262.798 61.0088 261.441C58.9596 258.227 55.0631 252.22 53.3305 249.012C53.0084 248.421 53.2947 247.983 52.941 247.072C51.5206 243.452 49.605 239.996 48.6183 241.313C47.0986 236.733 44.3742 233.121 42.4032 229.227C38.0626 220.83 31.7152 205.271 28.2228 197.816C26.031 193.217 25.4251 193.592 23.3881 186.241C22.9486 184.625 22.5667 183.015 22.0542 181.051C20.8566 176.451 20.6778 171.869 18.1929 168.903C17.0046 163.781 15.5483 159.743 15.7363 155.673C15.3185 155.313 14.901 154.953 14.4839 154.59C14.3053 153.971 14.1279 153.35 13.9517 152.729C14.1807 152.458 14.4098 152.187 14.6392 151.917C13.507 147.438 10.9171 142.019 10.0371 138.202C8.45609 131.797 5.62481 115.074 5.1149 108.856C4.80087 105.559 4.16306 105.471 5.1542 103.411C4.95816 102.694 4.76408 101.975 4.572 101.256C4.22867 100.837 3.88605 100.417 3.5441 99.9965C2.94832 95.7879 2.78252 90.733 2.37031 86.7147C1.57777 79.3883 0.0609169 68.3662 0.394949 60.924C0.469769 59.0591 1.0063 56.7459 0.983334 54.9162C0.955015 52.2651 -0.0136709 51.6196 0.000774384 48.2483C-0.00848436 42.4541 1.64305 31.6691 2.08775 26.2446C2.20824 24.6148 1.92691 23.8222 2.0021 22.6954C2.32412 17.9604 2.83672 14.1777 2.98148 9.56694C4.65641 4.87961 5.78941 5.51913 7.22633 4.25543C8.31277 3.29228 11.026 0.328107 11.9042 0.0238916C12.5173 -0.195541 12.973 1.1792 13.6681 0.836915C13.0702 6.42769 12.1687 8.65349 10.6379 13.0917C9.46556 21.4633 8.72667 29.9553 8.37293 38.4418C8.00264 39.2005 7.63538 39.9627 7.27115 40.7283C7.27041 40.7283 7.26968 40.7282 7.26895 40.7282C6.76331 43.9973 7.6055 45.3943 7.7706 47.1589C8.99235 64.0214 10.4676 97.1746 13.9391 115.555C14.5577 119.539 17.674 132.205 17.8173 135.011C17.8402 135.738 17.382 136.049 17.534 136.794C19.3804 143.3 21.4086 149.863 23.551 156.247C26.6116 169.913 31.8787 183.44 37.1306 196.403C51.7084 231.078 69.1923 266.624 97.005 289.387C102.463 293.553 110.433 296.577 115.564 295.425C117.644 295.003 119.08 295.381 121.209 293.007C121.375 293.161 121.542 293.314 121.71 293.466C123.553 291.607 124.143 290.281 125.58 287.939C125.858 287.473 126.153 286.99 126.473 286.484C128.259 283.811 132.232 276.637 133.278 274.317C133.862 273.129 134.069 273.696 134.593 272.469C135.519 270.35 136.525 265.724 137.077 262.901C137.711 260.285 138.505 255.931 138.214 253.949C137.575 246.808 132.766 240.831 126.257 237.112C124.485 236.018 122.126 234.486 121.456 234.268C120.172 233.834 119.614 234.217 118.761 234.025C114.336 232.948 107.22 231.424 102.529 231.4C87.3366 231.111 71.0122 235.494 57.8188 242.79C49.2057 247.067 37.6916 258.091 34.3907 265.895C33.589 267.52 33.2429 266.859 32.6992 268.302C32.1223 269.915 32.2616 270.921 32.0899 271.693C32.0758 271.759 32.0616 271.825 32.0475 271.892C30.6092 277.785 29.199 290.234 28.8271 295.658C28.7188 296.694 28.2575 297.437 28.2543 298.057C28.2521 298.378 28.5555 299.108 28.5998 300.106C29.0543 308.876 29.7672 315.244 31.6196 323.719C35.1763 340.006 44.0476 357.671 50.5157 374.611C51.9237 378.304 52.046 381.164 52.2535 381.685C52.7 382.821 53.538 383.327 54.5242 385.615C57.8339 393.201 60.41 404.151 62.2618 411.836C63.2208 415.611 64.8689 420.828 65.5013 424.666C66.072 427.74 66.3303 435.11 66.6891 436.411C66.9308 437.231 67.5976 437.59 67.715 438.597ZM29.4389 343.69C30.5885 343.857 27.8882 338.741 28.0661 340.951C28.1025 341.454 29.1349 343.652 29.4389 343.69ZM126.066 297.101C126.308 297.283 126.551 297.463 126.796 297.642C127.404 296.923 127.821 296.325 128.277 295.649C127.844 295.856 127.412 296.046 126.983 296.22C126.728 296.479 126.376 296.818 126.066 297.101Z" fill="#815E57"/>
</svg>
