<svg width="134" height="255" viewBox="0 0 134 255" fill="none" xmlns="http://www.w3.org/2000/svg">
<path d="M58.6012 229.888C58.9767 230.36 59.093 231.286 59.4527 231.902C60.9397 234.452 61.3093 235.537 62.6273 237.88C64.5665 241.386 71.5555 250.925 69.3495 252.455C69.3495 252.455 69.3494 252.455 69.3494 252.455C69.3274 252.47 69.3046 252.484 69.2808 252.497C68.8307 252.751 67.7945 252.223 67.2274 252.423C66.6603 252.624 63.6042 254.822 62.6186 253.735C61.2168 252.158 59.2274 247.4 58.5925 246.498C58.1524 245.879 57.3428 245.263 56.7593 244.473C54.883 241.931 54.1978 240.389 51.8974 238.475C51.7117 237.259 51.5148 236.017 51.3324 234.791C50.3542 233.642 49.7418 231.396 49.2394 230.631C48.8303 230.01 48.2745 229.837 47.8631 229.184C47.4003 228.454 47.0827 227.103 46.2269 225.766C44.834 223.581 43.7457 223.705 42.8529 222.401C41.9311 221.052 41.1971 218.618 39.8913 216.963C39.6698 216.789 39.4486 216.615 39.2278 216.441C39.0952 216.723 38.9631 217.006 38.8314 217.29C38.2307 216.43 38.4722 215.793 38.0329 214.952C37.5096 213.948 36.8079 213.663 36.4568 212.989C36.1695 212.436 36.1288 211.51 35.7419 210.81C35.1772 209.783 34.7881 210.261 34.4056 209.742C34.241 209.531 31.8941 205.489 31.7765 205.231C30.881 203.415 31.5152 202.941 30.8997 201.455C29.1983 197.34 26.8305 193.364 25.1257 189.571C24.3551 187.857 23.7395 186.037 23.2478 184.227C26.0661 186.338 25.4498 179.758 23.2839 183.019C23.0531 180.938 21.8111 179.774 21.3929 177.849C21.1318 176.619 21.2946 175.626 20.8291 173.881C19.9918 170.787 18.0943 167.501 20.1023 166.179C19.0234 162.519 19.4719 159.158 17.4113 157.955C17.1934 156.984 18.1862 154.318 18.3207 153.231C18.3185 152.152 19.1342 144.127 19.4531 142.834C19.6285 141.531 20.0327 139.249 20.0941 138.126C20.1662 136.736 18.4139 135.211 21.3806 133.412C22.0326 130.574 22.4635 129.595 23.7464 127.209C23.9838 126.779 24.3282 126.869 24.4426 126.61C24.6035 126.246 24.7365 125.66 24.9478 125.018C25.0464 124.718 25.1621 124.408 25.304 124.104C26.0444 122.528 27.1973 122.048 26.1185 121.655C26.5299 120.553 26.969 119.479 27.4497 118.408C27.8551 118.189 28.2618 117.976 28.6696 117.769C28.8224 117.131 28.9951 116.483 29.1678 115.852C30.0322 117.381 31.8823 113.441 30.3006 113.943C31.9745 112.391 33.6851 110.986 35.4711 109.65C36.5616 111.128 39.0296 106.51 38.0935 106.044C38.2826 105.876 38.4726 105.709 38.6636 105.542C40.634 104.466 41.9426 102.871 44.2763 101.549C46.6122 100.251 46.529 100.564 47.6669 100.808C48.1507 100.418 48.6302 100.038 49.118 99.6608C50.6133 95.9486 52.195 99.6275 56.1124 95.417C58.3486 95.8632 61.8236 93.2858 64.3185 91.765C64.6058 91.5869 64.5001 91.3217 64.8785 91.0685C65.7996 90.4434 68.5462 89.7828 68.136 88.9614C69.1418 88.8701 70.1358 88.7977 71.1396 88.7364C71.8358 88.3221 72.5371 87.916 73.2429 87.5183C73.1528 87.2457 73.0627 86.973 72.9725 86.7004C74.787 87.1464 77.1055 86.1028 78.3687 86.0272C78.6189 86.0126 78.7689 86.3808 79.5312 86.3042C80.4083 86.218 82.0348 85.7283 83.0946 85.642C83.4109 85.1296 83.7326 84.6191 84.0597 84.1104C85.9081 83.5227 86.7945 84.5632 87.9052 84.4876C88.0948 84.455 91.7602 83.9271 91.9625 83.9045C93.5729 83.5888 93.0091 82.5303 97.847 82.6097C98.6928 82.6374 99.393 82.9826 100.175 83.0134C101.532 83.0246 105.746 82.6075 106.193 81.9786C107.747 83.0135 112.342 83.5943 113.629 84.3185C114.004 84.5186 113.936 85.0788 115.072 85.5993C115.996 86.0023 118.658 86.6275 119.802 87.3579C121.035 88.12 121.198 88.8108 121.706 89.1762C122.177 89.5238 122.863 89.5241 123.53 90.0363C125.602 91.6409 126.774 93.8314 127.93 95.4699C129.608 97.8377 131.719 99.794 132.933 102.161C133.036 102.789 132.947 103.449 133.083 104.1C134.161 109.279 133.656 114.762 132.397 119.821C131.667 122.759 130.82 125.199 129.672 127.702C128.435 131.305 121.525 137.189 124.964 137.038C124.743 137.645 122.656 139.694 120.202 141.128C117.768 142.618 114.99 143.493 114.14 143.792C112.454 144.409 111.21 145.216 109.796 145.517C105.591 146.33 102.599 146.095 97.6862 145.974C96.3779 145.928 94.9335 146.241 94.216 146.098C93.3358 145.923 92.5018 145.205 91.375 144.897C88.6033 144.189 83.8292 142.761 81.464 141.663C81.0408 141.471 81.0682 140.977 80.5146 140.585C78.3629 139.064 75.6822 137.784 75.5088 139.364C72.9815 137.182 69.7882 136.294 67.2008 134.788C61.4172 131.552 52.3221 124.289 47.6829 120.985C44.7761 118.964 44.3377 119.519 40.9327 115.5C40.188 114.607 39.4849 113.678 38.6009 112.575C36.5146 109.973 35.3974 106.96 32.6187 106.097C30.4695 103.12 28.3921 101.055 27.6995 98.1549C27.2625 98.0988 26.8251 98.0407 26.3874 97.9806C26.104 97.6349 25.8221 97.288 25.5416 96.94C25.6861 96.6507 25.8313 96.362 25.9771 96.0737C24.0856 93.517 20.7434 90.9261 19.229 88.6575C16.5595 84.9161 11.0862 74.5023 9.69786 70.3281C8.91062 68.1605 8.29835 68.2925 8.94754 66.5829C8.66213 66.1518 8.38258 65.7259 8.10022 65.2843C7.71535 65.0942 7.33095 64.9016 6.94706 64.7064C5.79007 61.9258 5.03759 58.5401 4.19339 55.792C2.61206 50.9054 0.259657 43.3661 0.417299 37.9819C0.438141 36.6481 0.938255 34.9861 0.911411 33.7143C0.883007 31.8346 -0.0887465 31.3612 0.0076561 28.9364C0.0869994 24.7325 2.63112 17.256 3.90133 13.6031C4.24952 12.4932 4.10557 11.8575 4.36122 11.0817C5.4354 7.8737 6.68459 5.3873 7.88609 2.25863C10.4792 -0.220863 11.3554 0.742555 12.9201 0.560869C14.1118 0.411656 17.2038 -0.195483 18.0269 0.0637069C18.6025 0.234422 18.6477 1.33724 19.3252 1.46895C17.4811 4.68275 16.3292 5.5246 14.1024 7.68377C11.4762 12.4911 9.70908 17.6656 8.80356 23.0502C8.38775 23.4814 7.97729 23.9237 7.57253 24.3769C7.57181 24.3768 7.57108 24.3766 7.57036 24.3765C6.88702 26.4549 7.68564 27.4537 7.79712 28.5956C8.12616 39.5093 12.7394 60.8742 18.9307 71.8529C20.0713 74.2736 24.9746 81.4653 25.6067 83.2651C25.7545 83.7412 25.4004 84.1409 25.6691 84.5774C28.4735 88.1605 31.4588 91.6263 34.5691 94.933C39.8757 102.673 47.1913 109.194 54.4011 115.139C72.8474 130.129 101.485 146.859 118.035 131.695C120.927 128.791 122.865 123.612 124.127 119.394C124.279 118.907 124.457 118.497 124.636 118.105C125.113 117.061 125.626 116.183 125.396 114.437C125.621 114.441 125.846 114.444 126.071 114.447C126.045 112.257 125.611 111.025 125.426 108.746C125.408 106.887 124.078 102.28 123.27 101.023C122.91 100.31 123.421 100.348 123.008 99.71C122.311 98.5845 120.03 96.9364 118.559 95.9239C117.303 94.9373 114.954 93.1949 113.623 92.7873C108.951 91.2183 103.395 91.223 97.9436 91.1104C96.4565 91.0678 94.413 90.6544 93.9535 90.7089C93.0235 90.8128 92.7917 91.3655 92.1724 91.4952C89.0369 92.126 84.0099 92.402 80.9021 93.1787C70.8143 95.5942 60.6404 100.281 52.0863 105.92C46.5383 109.361 38.7242 116.692 35.1833 121.327C34.3859 122.309 34.1023 121.707 33.5106 122.596C32.8636 123.588 32.8791 124.331 32.6273 124.82C32.199 125.661 31.6705 126.758 31.1498 127.988C29.4752 131.769 28.1171 136.952 27.3415 139.549C27.1322 140.204 26.6013 140.612 26.5331 141.022C26.4981 141.229 26.7237 141.745 26.6612 142.398C26.1633 148.162 26.0091 152.405 26.4573 158.169C27.3607 169.279 31.9074 181.668 36.3591 192.737C37.333 195.174 37.2582 197.142 37.4238 197.486C37.7798 198.218 38.5415 198.442 39.3685 199.845C42.1162 204.547 44.9394 211.337 47.7467 215.736C49.1133 217.893 51.5314 220.577 52.9576 222.665C54.0858 224.333 56.3023 228.58 57.0503 229.149C57.506 229.505 58.1909 229.378 58.6012 229.888ZM20.8482 171.887C21.9328 172.009 20.2227 168.357 20.0014 169.92C19.9473 170.274 20.5601 171.855 20.8482 171.887ZM131.697 114.465C131.997 114.458 132.296 114.45 132.595 114.441C132.531 113.863 132.454 113.297 132.364 112.743C132.167 113.039 131.966 113.333 131.762 113.625C131.744 113.903 131.722 114.183 131.697 114.465Z" fill="#815E57"/>
</svg>
