<svg width="138" height="449" viewBox="0 0 138 449" fill="none" xmlns="http://www.w3.org/2000/svg">
<path d="M44.0579 412.027C43.7599 412.858 43.8202 414.181 43.5949 415.194C42.6816 419.419 42.614 421.135 42.1306 425.031C40.8694 430.744 40.9084 448.833 44.0542 448.347C44.0542 448.347 44.0543 448.347 44.0544 448.347C44.0806 448.344 44.107 448.338 44.1334 448.331C44.6307 448.197 45.0054 446.685 45.5656 446.413C46.1267 446.14 49.8576 445.866 49.909 443.971C49.8758 441.239 49.07 434.57 49.302 433.045C49.4123 432.012 49.8722 430.803 50.0899 429.518C50.8215 425.341 50.9937 423.128 52.7216 419.593C52.5767 418.012 52.4686 416.4 52.3955 414.762C53.1162 412.892 53.3631 409.771 53.7756 408.58C54.1013 407.631 54.6475 407.191 54.9899 406.199C55.3725 405.099 55.5714 403.19 56.3443 401.211C57.6287 397.94 58.83 397.66 59.696 395.761C60.598 393.789 61.3859 390.365 62.7951 387.94C63.0339 387.659 63.2733 387.377 63.5133 387.096C63.6459 387.427 63.7791 387.757 63.9129 388.086C64.5694 386.832 64.3362 386.069 64.8471 384.861C65.4426 383.457 66.2006 382.947 66.6138 382.004C66.9518 381.233 67.0605 380.026 67.5356 379.03C68.2279 377.575 68.5936 378.14 69.0442 377.403C69.2077 377.122 72.1664 371.453 72.3193 371.153C73.4908 368.702 72.8952 368.155 73.7696 366.148C76.1845 360.62 79.4617 355.274 82.1065 350.312C83.2859 348.101 84.386 345.701 85.3481 343.393C81.8662 346.101 84.2237 337.559 85.6201 341.837C86.4198 339.124 88.0203 337.69 89.0133 335.227C89.6535 333.634 89.7676 332.371 90.7971 330.152C92.6299 326.216 95.6774 322.335 94.1537 320.302C96.5604 315.772 97.5061 311.37 100.005 310.389C100.619 309.203 100.794 305.616 101.176 304.177C101.588 302.829 104.765 292.519 105.239 290.819C105.771 289.142 106.676 286.184 107.268 284.808C108.007 283.089 110.336 282.379 108.946 278.52C110.136 274.828 110.403 273.465 110.941 269.884C111.036 269.236 110.708 269.089 110.79 268.717C110.958 267.95 111.489 266.706 111.793 265.329C112.293 263.068 111.784 261.642 112.851 262.093C113.305 260.622 113.738 259.149 114.152 257.655C114.017 257.09 113.878 256.527 113.736 255.966C114.084 255.189 114.425 254.408 114.761 253.622C113.043 254.379 114.627 248.778 115.357 250.728C115.327 247.72 115.207 244.724 114.987 241.741C113.577 241.993 114.31 238.134 115.108 236.472C115.365 235.918 115.635 235.595 115.881 235.742C115.873 235.375 115.861 235.009 115.845 234.644C115.209 231.489 115.233 228.551 113.968 224.892C112.643 221.303 112.491 221.739 111.333 220.941C111.087 220.102 110.815 219.259 110.529 218.437C110.764 213.282 107.697 215.665 105.177 208.203C102.644 206.922 99.6746 201.71 97.2056 198.457C96.9246 198.077 97.1252 197.873 96.7636 197.362C95.8901 196.093 92.8255 193.641 93.5407 193.071C92.3615 192.327 91.1909 191.631 89.9969 190.95C89.2745 190.104 88.5343 189.267 87.7776 188.44C87.9625 188.22 88.1475 188 88.3325 187.781C85.9931 187.129 83.4249 184.753 81.8667 183.963C81.5584 183.807 81.273 184.086 80.3374 183.579C79.2442 182.986 77.3791 181.635 76.0534 180.972C75.7942 180.297 75.5271 179.624 75.2523 178.951C73.067 177.388 71.6917 177.97 70.278 177.311C70.0316 177.165 65.5164 174.814 65.2717 174.705C63.2817 173.606 64.3334 172.838 58.1145 170.631C56.9959 170.252 55.99 170.256 54.9935 169.931C53.2638 169.313 48.0034 167.038 47.7137 166.274C45.2358 166.52 39.2162 165.116 37.35 165.258C36.7909 165.286 36.649 165.828 34.9116 165.832C33.5121 165.818 30.0185 165.317 28.1833 165.544C26.2873 165.762 25.7499 166.333 24.8749 166.486C24.0754 166.634 23.2693 166.375 22.1893 166.607C18.8118 167.343 16.0297 169.089 13.6269 170.492C10.2001 172.475 6.7304 174.252 4.25494 177.094C3.80907 177.914 3.60953 178.748 3.1864 179.575C-2.10564 190.336 0.179536 202.389 2.98721 211.928C4.03478 215.61 7.20236 221.723 7.55131 224.223C7.65461 225.052 7.36275 225.363 6.42889 224.798C6.56588 225.755 8.1357 229.142 10.1018 231.95C12.3655 235.354 15.0519 237.728 16.2096 238.701C18.1819 240.401 19.743 241.885 21.865 242.753C28.1524 245.1 33.3874 243.955 39.8538 241.404C41.6158 240.68 43.5602 240.15 44.4173 239.593C45.4788 238.905 46.3088 237.692 47.6384 236.643C50.6022 234.401 55.8425 229.666 58.1582 226.953C58.5976 226.452 58.4118 225.964 58.9464 225.154C60.8223 222.234 63.3969 219.109 64.1095 220.603C66.3829 216.455 69.4224 213.649 71.923 210.172C77.2305 202.963 85.1205 189.074 89.3072 182.519C91.9236 178.493 92.5139 178.867 95.2411 172.249C95.8337 170.792 96.3793 169.312 97.088 167.521C98.7649 163.285 99.3653 159.089 102.146 156.598C103.878 151.877 105.704 148.376 105.979 144.478C106.431 144.197 106.883 143.916 107.334 143.633C107.579 143.072 107.823 142.511 108.067 141.949C107.871 141.66 107.676 141.371 107.48 141.083C109.09 137.028 112.249 132.339 113.571 128.863C115.852 123.091 120.715 107.847 122.056 102.105C122.802 99.0601 123.443 99.0822 122.74 97.0008C123.029 96.3617 123.317 95.7226 123.603 95.0833C123.997 94.7481 124.391 94.4123 124.785 94.0758C125.942 90.2403 126.82 85.5034 127.788 81.8565C129.613 75.1176 132.744 65.032 133.514 58.1207C133.723 56.3497 133.549 54.0496 133.843 52.3592C134.267 49.8903 135.315 49.4745 135.8 46.3342C136.696 40.7967 136.609 30.4559 136.844 25.356C136.934 23.7649 137.311 23.0421 137.373 21.9581C137.623 17.4905 137.514 13.6995 137.735 9.32288C136.419 4.82741 135.19 5.21408 133.829 3.98438C132.794 2.98909 130.176 0.241225 129.304 0.0180741C128.7 -0.162652 128.211 1.06592 127.528 0.774788C127.944 5.71236 128.675 7.98648 129.811 12.0722C130.222 20.0385 129.819 27.8343 128.957 35.9126C129.217 36.6538 129.473 37.4023 129.724 38.1578C129.725 38.1579 129.725 38.1579 129.726 38.158C129.759 41.2399 128.715 42.4511 128.289 44.0893C124.557 59.5713 118.172 90.2844 112.485 107.014C111.357 110.644 106.73 122.1 106.273 124.71C106.165 125.39 106.581 125.75 106.343 126.43C103.742 132.324 101.037 138.136 98.2099 143.907C93.7131 156.343 87.1852 168.373 80.7124 179.874C71.8111 195.53 62.2422 210.483 50.0377 223.005C44.0684 228.982 36.8964 234.695 30.0676 235.44C23.4163 236.424 18.0508 230.002 14.9134 222.491C14.7664 222.151 14.6195 221.799 14.4731 221.433C11.9185 215.089 10.0297 207.943 8.87642 201.916C8.42556 199.521 7.40702 198.23 7.9703 194.955C7.7465 194.923 7.52274 194.89 7.29903 194.856C7.60692 191.834 8.22904 190.213 9.06522 187.13C9.49925 184.518 13.0523 179.085 14.9549 177.919C15.8242 177.208 15.2472 177.107 16.1434 176.518C17.6756 175.447 21.7216 174.444 24.3304 174.021C26.7464 173.484 30.9987 172.814 32.9622 172.99C40.1361 173.47 47.7777 176.02 55.1398 178.595C57.2156 179.308 59.9474 179.898 60.5815 180.202C61.7903 180.778 61.9413 181.433 62.7065 181.87C66.6433 184.071 73.0888 187.072 76.7572 189.614C88.7438 197.706 99.6697 209.34 104.658 222.233C106.156 226.029 107.438 231.213 107.438 236.472C107.483 242.876 106.975 249.301 106.584 253.821C106.424 255.659 107.061 255.253 106.834 256.793C106.574 258.504 106.031 259.354 105.864 260.141C104.803 265.625 101.46 277.468 100.214 282.62C99.9943 283.605 100.207 284.44 100.023 285.017C99.9315 285.309 99.4282 285.88 99.1034 286.781C96.2026 294.753 94.178 300.607 91.1189 308.388C85.2505 323.29 76.5745 339.837 69.4954 355.28C67.9449 358.667 67.6676 361.334 67.437 361.799C66.932 362.821 66.0674 363.238 64.9452 365.274C61.207 372.045 57.494 381.821 54.4516 388.559C52.9237 391.899 50.402 396.349 49.0537 399.707C47.9185 402.42 46.1615 409.074 45.5156 410.253C45.1071 410.956 44.3823 411.135 44.0579 412.027ZM91.4228 327.569C90.2696 327.607 93.2492 323.08 92.9366 325.139C92.8671 325.605 91.7235 327.561 91.4228 327.569ZM1.71431 193.958C1.41841 193.903 1.12247 193.853 0.826966 193.788C0.968171 192.99 1.13113 192.216 1.31497 191.465C1.45877 191.907 1.6098 192.347 1.76782 192.788C1.74449 193.173 1.7262 193.588 1.71431 193.958Z" fill="#815E57"/>
</svg>
