<svg width="877" height="1776" viewBox="0 0 877 1776" fill="none" xmlns="http://www.w3.org/2000/svg">
<path d="M692.419 1602.44C690.197 1606.35 686.504 1611.59 683.89 1616.2C673.066 1635.6 669.065 1642.81 661.207 1661.15C655.379 1674.72 646.26 1702.73 644.172 1728.06C641.59 1753.36 645.215 1774.96 643.277 1775.4C643.277 1775.4 643.277 1775.4 643.277 1775.4C643.24 1775.41 643.201 1775.4 643.16 1775.39C642.352 1775.21 640.421 1767.82 639.504 1766.81C638.598 1765.76 633.181 1767.42 632.017 1756.25C629.466 1740 635.936 1701.6 638.68 1693.55C640.018 1687.87 641.492 1680.81 643.771 1673.69C651.353 1650.81 657.147 1639.63 665.923 1619.86C670.592 1612.54 675.424 1605.42 680.396 1598.38C685.787 1588.55 695.624 1574.73 699.271 1569.02C702.254 1564.33 703.569 1561.31 706.732 1556.44C710.267 1551 716.283 1543.01 722.706 1533.15C733.233 1516.95 733.874 1513.3 739.924 1503.44C746.143 1493.29 756.494 1477.74 763.043 1464.07C763.786 1462.31 764.511 1460.56 765.218 1458.81C764.293 1459.85 763.361 1460.89 762.423 1461.93C765.71 1455.18 767.85 1452.45 770.724 1446.19C774.109 1438.68 774.949 1434.63 776.884 1429.48C778.452 1425.26 780.905 1419.76 782.438 1414.14C784.576 1406.03 783.274 1407.6 784.122 1403.18C785.347 1401.49 787.799 1368.75 786.684 1366.99C785.905 1355.64 785.891 1352.78 784.843 1346.04C784.563 1344.44 784.192 1342.67 783.648 1340.64C776.737 1309.74 749.156 1289.47 720.805 1284.94C708.192 1282.39 694.642 1281.4 681.493 1281.27C702.291 1278.37 656.067 1276.77 673.455 1280.81C658.662 1280.71 648.375 1282.91 634.33 1284.42C625.321 1285.43 618.95 1285.7 606.019 1287.79C583.127 1291.55 558.329 1298.11 551.161 1296.22C524.261 1301.84 500.484 1304.47 490.897 1308.39C483.919 1309.55 465.156 1309.7 457.186 1309.56C453.646 1309.5 440.44 1309.99 425.553 1307.17C407.451 1303.63 387.829 1296.84 382.852 1295.2C373.788 1292.23 358.36 1286.57 350.656 1283.81C341.39 1280.52 333.643 1280.58 318.517 1270.42C299.444 1262.36 292.744 1259.11 275.635 1250.34C272.526 1248.72 272.383 1248.09 270.574 1247.19C266.843 1245.32 260.293 1242.42 253.633 1238.97C242.701 1233.3 237.062 1228.93 237.492 1231C230.23 1227.31 223.046 1223.53 215.868 1219.62C213.56 1217.91 211.267 1216.18 208.99 1214.45C205.107 1212.5 201.177 1210.48 197.318 1208.46C202.83 1209.32 176.36 1193.81 183.976 1200.33C171.091 1191.27 158.332 1181.61 146.274 1171.43C149.339 1170.99 120.033 1148.77 121.469 1151.52C120.12 1150.24 118.794 1148.95 117.491 1147.67C106.685 1135.83 96.1125 1125.41 86.4041 1107.71C77.6213 1089.65 79.7656 1090.67 79.0443 1084.54C77.8483 1079.92 77.1318 1075.27 77.0144 1070.42C75.6719 1051.83 80.088 1048.82 89.5421 1035.7C92.9705 1031.5 97.1337 1025.13 101.178 1014.99C108.949 1004.69 117.444 973.775 120.336 953.039C120.712 950.655 120.326 950.546 120.773 947.333C122.014 939.329 125.128 919.457 123.697 919.908C124.884 913.107 125.964 906.03 126.907 899.091C127.134 893.393 127.287 887.606 127.362 881.838C126.954 881.845 126.547 881.852 126.139 881.859C128.202 870.468 128.054 852.22 128.321 843.244C128.381 841.462 128.957 841.078 129.049 835.525C129.172 829.037 128.663 816.929 128.441 809.206C127.675 806.235 126.892 803.281 126.088 800.309C124.875 786.552 126.029 781.61 125.377 773.494C125.392 772.057 122.036 745.578 121.657 744.22C119.427 732.594 119.387 735.994 112.52 702.866C111.203 696.99 110.5 692.269 109.045 686.919C106.994 677.749 95.8258 650.72 93.7227 649.6C91.0288 638.247 73.3485 613.134 65.8463 609.954C63.858 608.722 63.9267 607.115 56.9092 604.655C52.0491 602.657 40.1711 603.729 32.3299 608.278C30.8246 609.045 29.5383 609.784 28.4704 610.43C21.6031 614.763 19.2681 617.063 17.0203 619.948C14.9606 622.862 13.8878 625.958 12.4755 630.536C8.22374 645.112 11.1548 660.532 15.5492 672.476C22.2853 690.147 33.1144 703.359 43.4276 715.096C45.8518 718.263 48.0009 721.313 50.7795 724.388C84.1805 761.881 139.411 793.746 189.817 785.528C201.289 784.173 220.973 777.743 233.69 768.825C246.598 760.157 253.787 751.655 246.834 755.851C254.105 752.114 289.615 703.374 292.7 692.202C294.569 688.276 296.168 684.478 297.625 680.774C300.134 674.425 302.403 668.947 304.937 663.851C318.123 638.891 328.648 620.852 356.304 598.693C363.552 593.157 371.929 587.83 377.071 585.603C383.186 582.901 390.068 581.214 398.331 579.27C418.062 573.597 455.34 575.323 473.562 578.305C476.912 578.768 478.024 579.585 482.78 580.461C501.299 584.065 521.786 586.462 518.363 583.876C541.595 587.595 563.633 586.303 581.226 576.786C623.845 558.514 636.241 465.511 637.604 426.844C638.6 402.181 637.894 401.902 639.259 364.496C639.352 361.259 639.442 357.983 639.523 354.56C639.659 348.894 639.844 343.035 640.081 336.56C640.944 312.946 643.919 290.114 643.301 272.186C646.115 245.033 648.695 223.761 653.913 204.803C653.916 202.332 653.931 199.881 653.957 197.45C654.58 194.155 655.222 190.909 655.884 187.711C656.498 186.799 657.114 185.895 657.731 184.997C662.726 161.726 669.623 132.814 677.561 113.792C683.839 98.3137 696.796 70.4314 716.948 47.0481C736.409 23.3539 764.356 7.65758 780.538 3.78675C797.681 -0.443307 798.955 -0.624855 809.006 0.803939C813.049 0.701287 816.793 0.834019 820.877 1.27683C823.418 1.23319 825.943 1.29933 828.445 1.47401C850.929 5.80881 876.748 26.8276 876.768 51.8732C877.045 59.9656 874.93 68.4535 870.422 76.3958C854.187 109.583 812.847 135.831 781.628 140.105C772.209 142.002 760.038 142.78 750.852 143.486C737.338 144.438 734.05 145.961 716.87 145.928C687.164 146.016 632.996 138.903 605.527 135.938C597.444 135.087 593.407 135.148 587.881 134.59C564.264 132.204 544.89 130.012 522.181 128.533C498.07 124.857 500.323 123.445 492.927 121.059C487.208 119.244 470.083 114.863 467.553 113.559C465.842 112.634 472.533 112.131 470.119 111.072C499.448 112.711 511.7 114.714 535.274 118.338C579.029 122.752 622.651 128.276 666.222 131.863C670.062 132.653 674.116 133.44 678.028 134.191C678.028 134.192 678.028 134.193 678.028 134.194C694.737 135.884 701.986 134.884 710.902 134.841C752.852 134.692 828.755 131.652 860.426 70.6629C877.517 44.4943 848.72 14.7465 821.302 11.7756C793.101 6.86215 766.374 18.6786 748.824 32.2585C730.065 42.2896 695.505 98.4491 691.018 112.103C689.446 115.262 688.386 115.897 686.911 119.468C674.509 151.716 666.943 185.577 661.959 219.864C654.404 263.499 651.894 308.898 652.095 354.56C652.207 383.532 651.546 410.527 649.24 437.818C645.161 479.159 640.247 521.71 617.299 559.035C594.393 599.948 540.077 601.308 501.415 594.438C460.946 588.765 419.239 581.209 383.179 597.25C347.131 612.921 324.196 648.419 308.403 685.376C296.522 713.085 281.219 739.617 259.47 760.925C233.071 789.998 180.176 805.795 143.12 794.695C127.782 790.709 121.881 787.684 103.087 779.366C103.041 778.985 102.996 778.605 102.952 778.225C87.063 770.106 77.0626 764.28 61.7034 751.367C48.0814 741.197 19.4988 706.304 13.6844 692.122C10.2422 685.208 11.9526 687.413 9.0224 680.802C3.84567 669.79 -4.7306 642.25 3.25543 623.838C6.47544 614.442 16.2868 603.541 27.491 598.571C35.806 594.481 44.1448 593.169 49.7612 593.315C101.701 601.75 112.919 659.419 124.277 700.252C127.101 712.481 129.112 728.331 129.724 732.073C130.984 739.496 132.053 741.755 132.856 746.725C137.147 772.247 139.013 812.551 138.994 837.835C137.929 905.214 136.757 979.982 96.9156 1041.33C88.818 1051.71 85.3072 1064.42 87.2466 1076.98C94.5151 1126.23 170.399 1177.92 209.007 1202.23C217.649 1207.64 214.871 1206.91 222.238 1211.26C230.448 1216.07 235.17 1218.06 239.064 1220.18C265.724 1235.33 327.373 1263.62 354.216 1273.97C359.404 1276.09 362.928 1278.08 365.969 1279.2C367.449 1279.74 371.268 1280.67 376.217 1282.35C394.715 1288.58 411.463 1293.59 427.472 1296.57C449.015 1300.22 471.567 1298.13 497.268 1294.69C580.689 1287.53 689.802 1233.98 773.428 1297.81C788.421 1313.7 790.829 1328.72 792.03 1331.37C793.342 1335.21 794.613 1338.14 796.159 1343.51C796.939 1346.27 797.766 1349.62 798.469 1354.01C807.183 1397.91 782.473 1453.29 762.408 1487.04C752.717 1504.24 738.824 1527.35 728.383 1543.5C719.974 1556.38 699.931 1586.38 696.945 1592.44C695.036 1596.08 694.832 1598.18 692.419 1602.44ZM592.143 1289.41C594.579 1287.45 566.565 1293.74 577.3 1292.61C579.717 1292.34 591.515 1289.9 592.143 1289.41ZM102.366 768.91C102.343 768.417 102.323 767.924 102.304 767.431C98.9923 765.773 95.7526 764.031 92.5379 762.185C94.1535 763.518 95.7922 764.826 97.4531 766.109C99.0716 767.064 100.714 768.001 102.366 768.91Z" fill="#815E57"/>
</svg>
