<svg width="93" height="38" viewBox="0 0 93 38" fill="none" xmlns="http://www.w3.org/2000/svg">
<path d="M17.9892 1C18.0133 7.78088 16.9006 17.2988 10.4901 24.5235C6.52283 28.9619 0.765475 32.2907 1.00738 32.6852C1.27348 33.1291 7.75655 27.4578 15.933 27.9263C18.981 28.0989 21.4968 29.0852 23.2869 30.0222" stroke="#89564C" stroke-width="2" stroke-linecap="round" stroke-linejoin="round"/>
<path d="M26.068 37C25.4149 30.5397 26.068 25.3862 26.697 21.9834C27.713 16.7067 29.8418 5.70929 37.6069 2.13391C38.5262 1.71473 41.6468 0.259912 43.1224 1.56677C46.1946 4.25447 41.1629 17.1998 40.3647 19.2217C40.3647 19.2217 39.5664 21.293 39.6873 21.3423C39.8325 21.4163 40.9936 18.1368 43.195 15.2765C45.9043 11.7751 50.2828 8.74219 51.5407 9.7285C53.0405 10.9121 50.4521 18.0875 49.4119 20.9724C48.5653 23.3149 47.5009 25.7314 48.4201 28.3205C48.8072 29.3807 49.3877 30.1451 49.8474 30.6383" stroke="#89564C" stroke-width="2" stroke-linecap="round" stroke-linejoin="round"/>
<path d="M71.9343 11.2577C74.3533 8.3234 75.1033 5.04393 73.9179 3.39186C72.3939 1.29595 68.0154 2.23294 65.6447 3.39186C56.5733 7.83026 53.9365 26.4962 59.0649 29.9729C62.379 32.2168 68.088 30.1209 72.1278 25.066C74.4743 22.1318 74.9581 18.8276 78.4174 16.8303C81.2235 15.2029 83.1829 15.9427 84.5134 16.4605" stroke="#89564C" stroke-width="2" stroke-linecap="round" stroke-linejoin="round"/>
<path d="M91.141 19.4196C88.2139 22.1072 85.3111 24.2278 84.0532 23.3895C82.5292 22.3785 83.5935 16.2634 83.1097 17.225C82.6743 18.088 82.6259 20.9976 80.5939 22.5757C79.457 23.4388 78.0055 23.9566 76.8202 23.5867C76.6025 23.5127 75.7316 23.2168 75.2962 22.3538C74.8608 21.4908 75.0059 20.4059 75.6349 19.4935" stroke="#89564C" stroke-width="2" stroke-linecap="round" stroke-linejoin="round"/>
</svg>
