<svg width="174" height="271" viewBox="0 0 174 271" fill="none" xmlns="http://www.w3.org/2000/svg">
<g clip-path="url(#clip0_248_1215)">
<path d="M77.7949 252.741C84.4376 222.897 106.203 232.462 106.203 217.171C106.203 209.166 95.9261 202.741 83.8723 200.545C71.98 198.39 64.8326 193.997 60.0878 184.658C56.938 178.48 56.4938 169.49 60.7137 163.928C64.7316 158.653 70.5667 157.277 77.4315 157.072C81.4494 156.949 86.2144 154.117 83.4483 150.545C81.0658 147.487 75.7153 147.323 72.0608 152.064C70.1629 154.527 69.2341 156.887 69.0524 157.832C67.9621 163.353 71.2128 167.91 72.5252 169.777C73.9587 171.789 76.422 175.278 81.1667 176.551C86.1942 177.905 90.3737 175.853 91.4841 175.258" stroke="black" stroke-width="1.25" stroke-linecap="round" stroke-linejoin="round"/>
<path d="M81.167 170.496C81.591 170.208 82.8024 169.49 84.4581 169.593C86.78 169.736 88.1529 171.358 88.375 171.645" stroke="black" stroke-width="1.25" stroke-linecap="round" stroke-linejoin="round"/>
<path d="M78.2192 171.974C72.0005 175.853 68.8306 177.782 65.0953 184.864C63.5406 187.799 61.9456 191.083 60.3303 194.942C58.4122 199.498 55.7875 207.729 58.7757 214.112C64.3887 226.079 72.3438 222.281 88.8395 226.058C96.3302 227.782 103.457 230.122 108.222 229.404C112.987 228.685 116.844 227.905 117.914 222.199C118.903 216.945 114.623 215.323 114.946 213.62C115.309 211.711 117.066 211.465 117.47 209.371C117.793 207.77 117.207 205.759 115.814 204.732C113.31 202.885 109.01 204.855 108.869 206.292C108.768 207.421 111.11 208.591 112.119 208.981C113.371 209.474 114.482 209.515 115.188 209.494" stroke="black" stroke-width="1.25" stroke-linecap="round" stroke-linejoin="round"/>
<path d="M109.615 205.204C115.269 200.894 115.37 198.369 115.127 197.282C114.703 195.414 112.462 193.813 111.897 193.402C109.918 191.965 108.767 192.15 107.939 190.754C105.88 187.265 108.969 185.048 110.201 186.218C112.078 188.025 106.688 191.822 103.901 190.693C101.801 189.851 100.529 188.743 100.792 186.3" stroke="black" stroke-width="1.25" stroke-linecap="round" stroke-linejoin="round"/>
<path d="M114.663 204.178C117.247 196.481 113.351 194.613 111.796 193.382C109.535 191.555 112.886 189.831 113.694 188.456C114.905 186.383 114.3 182.791 112.543 181.108C111.069 179.691 102.67 177.988 101.236 172.548C100.792 170.886 102.852 167.417 104.447 166.062M104.447 166.062C104.871 165.713 105.759 164.995 105.759 164.995C105.759 164.995 104.79 165.796 104.447 166.062ZM104.447 166.062C102.65 167.479 99.924 168.731 97.6626 168.854C94.9773 168.997 93.039 167.663 89.9296 165.488C88.0721 164.195 85.4877 162.101 82.9639 158.837" stroke="black" stroke-width="1.25" stroke-linecap="round" stroke-linejoin="round"/>
<path d="M80.7228 109.535C74.7464 107.934 65.378 106.436 55.5452 109.843C44.5413 113.64 41.1897 120.722 28.9542 127.29C23.3816 130.287 14.5784 133.899 1.91895 134.925" stroke="black" stroke-width="1.25" stroke-linecap="round" stroke-linejoin="round"/>
<path d="M80.0365 153.85C76.4224 147.425 76.6041 142.828 76.9877 139.646C78.3203 128.768 86.9013 126.838 86.9416 116.534C86.9618 110.028 81.6921 108.16 77.9366 100.791C73.6764 92.4582 72.6669 79.1577 75.8974 68.0329C77.7549 61.6495 55.5049 50.6273 61.4005 45.0239C63.9648 42.5813 93.443 51.2841 89.5261 55.2455C86.134 58.6938 69.1739 54.5066 71.4757 50.2784C74.9888 43.8129 86.3561 45.7217 92.4133 41.3703C96.8754 38.1478 104.245 23.349 116.279 12.9836C119.449 10.2538 121.225 0.996776 116.662 1.44834C112.099 1.8999 114.3 14.3178 120.438 17.0271C127.101 19.9623 134.349 12.9221 135.621 14.9746C137.075 17.294 130.089 26.2841 123.466 25.8941C120.276 25.7094 117.914 23.4311 116.642 24.5189C115.087 25.8531 117.187 30.3892 116.501 30.6971C115.572 31.1076 111.796 23.1848 110.544 23.5542C108.687 24.1084 114.643 37.491 111.049 39.2973C107.031 41.3087 101.479 35.2743 99.8636 26.0173C98.3493 17.2735 98.8945 12.2242 98.3897 12.0805C97.7032 11.8753 81.1671 33.1601 97.5215 51.8794C104.043 59.3506 136.005 73.78 134.834 69.4286C132.734 61.6289 114.118 56.0871 120.579 46.748C125.708 39.3178 163.444 19.1823 170.733 26.592C172.954 28.8498 161.304 35.8079 152.965 50.5862C150.28 55.3687 145.494 64.8925 144.465 77.3925C143.536 88.8457 133.844 97.179 131.462 98.7389C127.02 101.633 120.781 105.718 115.552 103.398C110.787 101.284 108.747 94.6544 109.596 89.5025C111.433 78.4598 126.495 74.7036 125.405 72.0764C123.931 68.505 91.848 75.4836 92.6758 82.9138C92.9988 85.849 98.6926 86.0747 102.024 83.7964C106.789 80.5534 108.586 72.5895 105.093 67.9713C99.9848 61.2595 85.5889 64.2972 82.7622 69.6544C81.2075 72.5895 86.3561 83.7143 78.6433 93.5049C69.2547 105.43 82.6209 117.273 84.115 125.053C85.9725 134.843 83.8525 141.452 87.3253 152.187C88.8598 156.949 91.1615 159.843 94.6343 159.412C97.259 159.084 99.9646 148.759 95.4823 149.293C91 149.827 94.9573 161.752 103.215 161.342C111.473 160.931 114.34 145.496 109.333 145.599C104.326 145.701 107.536 155.492 110.484 157.524C114.906 160.582 120.337 157.483 120.115 150.525C119.953 145.106 115.632 141.822 116.178 137.08C116.783 131.785 120.135 124.17 134.915 110.028C141.396 103.809 149.896 95.0649 149.533 83.858C149.331 77.844 148.26 71.5633 151.794 63.1068C153.005 60.1922 154.439 57.9959 155.489 56.5592" stroke="black" stroke-width="1.25" stroke-linecap="round" stroke-linejoin="round"/>
<path d="M50.1143 103.419C50.1143 103.419 53.9909 101.879 56.1512 98.3079" stroke="black" stroke-width="1.25" stroke-linecap="round" stroke-linejoin="round"/>
<path d="M38.7266 85.0895C38.8679 84.3095 39.8169 79.1166 43.754 77.5361C44.3597 77.2898 45.8135 76.7151 47.0653 77.1872C52.86 79.445 50.1141 103.439 50.1141 103.439" fill="#006BE6"/>
<path d="M38.7266 85.0895C38.8679 84.3095 39.8169 79.1166 43.754 77.5361C44.3597 77.2898 45.8135 76.7151 47.0653 77.1872C52.86 79.445 50.1141 103.439 50.1141 103.439" stroke="black" stroke-width="1.25" stroke-linecap="round" stroke-linejoin="round"/>
<path d="M14.9622 239.543C14.9824 245.188 14.0536 253.111 8.7031 259.125C5.39184 262.819 0.586481 265.59 0.788387 265.919C1.01048 266.288 6.42156 261.567 13.246 261.957C15.79 262.101 17.8898 262.922 19.3839 263.702" stroke="black" stroke-width="1.25" stroke-linecap="round" stroke-linejoin="round"/>
<path d="M21.7058 269.511C21.1607 264.133 21.7058 259.843 22.2308 257.011C23.0788 252.618 24.8555 243.464 31.3367 240.488C32.104 240.139 34.7086 238.928 35.9402 240.016C38.5044 242.253 34.3047 253.029 33.6384 254.712C33.6384 254.712 32.9722 256.436 33.0731 256.477C33.1943 256.539 34.1634 253.809 36.0007 251.428C38.2621 248.513 41.9166 245.988 42.9665 246.809C44.2183 247.795 42.0579 253.768 41.1897 256.169C40.4831 258.119 39.5947 260.13 40.3619 262.286C40.685 263.168 41.1695 263.805 41.5532 264.215" stroke="black" stroke-width="1.25" stroke-linecap="round" stroke-linejoin="round"/>
<path d="M59.9874 248.082C62.0064 245.64 62.6323 242.91 61.643 241.535C60.371 239.79 56.7165 240.57 54.7378 241.535C47.1663 245.229 44.9656 260.767 49.246 263.661C52.0121 265.529 56.7771 263.784 60.1489 259.576C62.1074 257.134 62.5112 254.383 65.3985 252.721C67.7406 251.366 69.376 251.982 70.4865 252.413" stroke="black" stroke-width="1.25" stroke-linecap="round" stroke-linejoin="round"/>
<path d="M76.0187 254.876C73.5756 257.113 71.1528 258.878 70.1029 258.181C68.8308 257.339 69.7192 252.249 69.3154 253.049C68.952 253.768 68.9116 256.19 67.2156 257.503C66.2666 258.222 65.0552 258.653 64.0659 258.345C63.8842 258.283 63.1573 258.037 62.7939 257.318C62.4304 256.6 62.5516 255.697 63.0765 254.938" stroke="black" stroke-width="1.25" stroke-linecap="round" stroke-linejoin="round"/>
<path d="M44.8848 110.151C44.8848 110.151 45.3693 113.066 46.7019 112.327C48.0345 111.588 48.0749 108.447 48.0749 108.447C48.0749 108.447 49.5286 109.207 51.2246 107.462C51.79 106.887 52.0928 106.292 52.2341 105.759C52.4764 104.855 52.3149 104.096 52.2341 103.747" stroke="black" stroke-width="1.25" stroke-linecap="round" stroke-linejoin="round"/>
<path d="M50.1139 103.419C47.9737 94.1208 43.5721 89.8104 41.2906 87.4295C37.9591 83.9607 32.9519 80.7587 31.478 81.9492C30.6098 82.647 31.8212 84.1659 31.478 88.5584C31.2155 91.8835 31.054 93.9566 29.6204 95.8654C28.8936 96.8507 27.8638 97.7127 28.1061 98.6569C28.3282 99.4984 29.3176 99.4779 29.4993 100.258C29.8021 101.469 27.46 102.146 27.137 103.973C26.8139 105.82 28.9945 106.395 29.4993 109.269C29.9031 111.649 28.6311 112.512 29.3378 113.887C30.2059 115.59 33.1538 116.104 35.3344 115.816C40.5637 115.159 44.8643 110.131 44.8643 110.131" fill="#006BE6"/>
<path d="M50.1139 103.419C47.9737 94.1208 43.5721 89.8104 41.2906 87.4295C37.9591 83.9607 32.9519 80.7587 31.478 81.9492C30.6098 82.647 31.8212 84.1659 31.478 88.5584C31.2155 91.8835 31.054 93.9566 29.6204 95.8654C28.8936 96.8507 27.8638 97.7127 28.1061 98.6569C28.3282 99.4984 29.3176 99.4779 29.4993 100.258C29.8021 101.469 27.46 102.146 27.137 103.973C26.8139 105.82 28.9945 106.395 29.4993 109.269C29.9031 111.649 28.6311 112.512 29.3378 113.887C30.2059 115.59 33.1538 116.104 35.3344 115.816C40.5637 115.159 44.8643 110.131 44.8643 110.131" stroke="black" stroke-width="1.25" stroke-linecap="round" stroke-linejoin="round"/>
<path d="M57.7261 102.433C55.5051 102.351 52.9611 102.68 50.1143 103.419" stroke="black" stroke-width="1.25" stroke-linecap="round" stroke-linejoin="round"/>
</g>
<defs>
<clipPath id="clip0_248_1215">
<rect width="173.099" height="271" fill="white"/>
</clipPath>
</defs>
</svg>
