<svg width="93" height="38" viewBox="0 0 93 38" fill="none" xmlns="http://www.w3.org/2000/svg">
<path d="M17.9889 1C18.0131 7.78084 16.9004 17.2987 10.4899 24.5234C6.52275 28.9617 0.765479 32.2905 1.00738 32.685C1.27347 33.1289 7.75645 27.4576 15.9327 27.9261C18.9807 28.0987 21.4965 29.085 23.2866 30.022" stroke="#FFF1E3" stroke-width="2" stroke-linecap="round" stroke-linejoin="round"/>
<path d="M26.068 36.9998C25.4149 30.5395 26.068 25.386 26.697 21.9833C27.713 16.7066 29.8417 5.70926 37.6068 2.1339C38.526 1.71472 41.6465 0.259917 43.1221 1.56677C46.1943 4.25445 41.1627 17.1997 40.3644 19.2216C40.3644 19.2216 39.5662 21.2929 39.6871 21.3422C39.8323 21.4162 40.9934 18.1367 43.1947 15.2764C45.904 11.775 50.2824 8.74215 51.5403 9.72845C53.0401 10.912 50.4518 18.0874 49.4116 20.9723C48.5649 23.3148 47.5006 25.7312 48.4198 28.3203C48.8068 29.3806 49.3874 30.145 49.847 30.6381" stroke="#FFF1E3" stroke-width="2" stroke-linecap="round" stroke-linejoin="round"/>
<path d="M71.9331 11.2576C74.3521 8.32336 75.102 5.04391 73.9167 3.39185C72.3927 1.29595 68.0143 2.23294 65.6436 3.39185C56.5723 7.83022 53.9356 26.496 59.0639 29.9728C62.378 32.2166 68.0868 30.1207 72.1266 25.0659C74.4731 22.1316 74.9569 18.8275 78.4161 16.8302C81.2221 15.2028 83.1815 15.9426 84.512 16.4604" stroke="#FFF1E3" stroke-width="2" stroke-linecap="round" stroke-linejoin="round"/>
<path d="M91.1408 19.4193C88.2138 22.107 85.3109 24.2275 84.053 23.3892C82.5291 22.3782 83.5934 16.2631 83.1096 17.2248C82.6742 18.0878 82.6258 20.9974 80.5938 22.5755C79.4569 23.4385 78.0055 23.9563 76.8202 23.5864C76.6025 23.5124 75.7316 23.2166 75.2962 22.3535C74.8608 21.4905 75.0059 20.4056 75.6348 19.4933" stroke="#FFF1E3" stroke-width="2" stroke-linecap="round" stroke-linejoin="round"/>
</svg>
