<svg width="219" height="367" viewBox="0 0 219 367" fill="none" xmlns="http://www.w3.org/2000/svg">
<g clip-path="url(#clip0_657_1454)">
<path d="M98.7404 345.093C107.174 307.837 134.809 319.777 134.809 300.688C134.809 290.695 121.761 282.675 106.457 279.933C91.3575 277.243 82.2827 271.759 76.2585 260.101C72.2594 252.388 71.6954 241.165 77.0532 234.221C82.1545 227.636 89.563 225.92 98.279 225.663C103.38 225.51 109.43 221.974 105.918 217.515C102.893 213.697 96.1 213.492 91.46 219.411C89.0503 222.486 87.8711 225.433 87.6404 226.611C86.2561 233.504 90.3834 239.192 92.0496 241.524C93.8697 244.035 96.9972 248.391 103.021 249.98C109.405 251.671 114.711 249.108 116.121 248.365" stroke="#3C211D" stroke-width="1.5" stroke-linecap="round" stroke-linejoin="round"/>
<path d="M103.02 242.446C103.558 242.088 105.096 241.191 107.198 241.319C110.146 241.498 111.889 243.523 112.171 243.881" stroke="#3C211D" stroke-width="1.5" stroke-linecap="round" stroke-linejoin="round"/>
<path d="M99.2798 244.292C91.3843 249.135 87.3596 251.543 82.6171 260.383C80.6432 264.047 78.618 268.147 76.5672 272.964C74.1319 278.653 70.7993 288.927 74.5933 296.896C81.7199 311.835 91.8201 307.094 112.764 311.809C122.274 313.961 131.324 316.882 137.373 315.986C143.423 315.089 148.32 314.115 149.678 306.992C150.934 300.432 145.5 298.408 145.91 296.281C146.371 293.898 148.602 293.591 149.114 290.977C149.524 288.979 148.781 286.468 147.012 285.187C143.834 282.88 138.373 285.34 138.194 287.134C138.066 288.543 141.039 290.004 142.321 290.491C143.91 291.105 145.32 291.157 146.218 291.131" stroke="#3C211D" stroke-width="1.5" stroke-linecap="round" stroke-linejoin="round"/>
<path d="M139.138 285.775C146.316 280.394 146.444 277.242 146.137 275.884C145.598 273.553 142.753 271.554 142.035 271.042C139.523 269.248 138.062 269.478 137.011 267.736C134.396 263.38 138.318 260.613 139.882 262.073C142.266 264.328 135.421 269.069 131.884 267.659C129.218 266.609 127.603 265.225 127.936 262.176" stroke="#3C211D" stroke-width="1.5" stroke-linecap="round" stroke-linejoin="round"/>
<path d="M145.55 284.494C148.831 274.885 143.883 272.553 141.91 271.016C139.038 268.735 143.294 266.583 144.319 264.866C145.857 262.278 145.088 257.794 142.858 255.693C140.987 253.925 130.323 251.798 128.502 245.008C127.938 242.933 130.553 238.603 132.578 236.911M132.578 236.911C133.117 236.476 134.245 235.579 134.245 235.579C134.245 235.579 133.014 236.578 132.578 236.911ZM132.578 236.911C130.297 238.679 126.836 240.242 123.965 240.396C120.556 240.576 118.095 238.91 114.147 236.194C111.788 234.58 108.507 231.966 105.303 227.892" stroke="#3C211D" stroke-width="1.5" stroke-linecap="round" stroke-linejoin="round"/>
<path d="M104.431 173.931C98.1508 173.034 88.6402 172.573 78.3093 176.057C63.6717 180.977 59.0061 189.894 44.548 197.837C37.3701 201.783 26.2702 206.293 10.2227 207.369" stroke="#3C211D" stroke-width="1.5" stroke-linecap="round" stroke-linejoin="round"/>
<path d="M101.58 220.411C96.9909 211.34 97.2216 204.832 97.7087 200.348C99.4006 184.974 110.296 182.232 110.347 167.678C110.372 158.48 103.682 155.841 98.9136 145.438C93.5046 133.651 92.2228 114.869 96.3244 99.1365C98.6828 90.1172 70.433 74.5127 77.9185 66.6208C81.1741 63.1873 118.601 75.4608 113.628 81.0722C109.321 85.9406 88.557 80.3292 90.7103 74.0515C93.3508 66.2877 105.938 64.6991 115.781 57.7296C130.342 47.4291 133.521 34.8737 148.005 21.191C152.055 17.3731 154.747 0.308144 148.953 0.948722C143.16 1.5893 145.031 23.2408 152.824 27.0843C161.284 31.2353 170.487 21.2935 172.102 24.1633C173.947 27.443 165.078 40.1265 156.669 39.5884C152.619 39.3322 149.62 36.1037 148.005 37.6667C146.031 39.5628 148.697 45.9686 147.825 46.4041C146.646 46.9935 141.852 35.7706 140.263 36.3086C137.904 37.103 145.467 55.9872 140.904 58.5495C138.52 59.8819 130.829 50.427 126.702 39.7678C122.241 28.2886 123.523 19.7305 122.754 19.6792C121.242 19.628 108.655 51.9644 123.754 76.3063C139.212 101.238 179.51 101.776 179.382 101.519C175.537 94.14 154.798 86.6325 151.286 74.4615C150.542 71.8992 149.979 69.9262 150.671 67.5432C153.003 59.5232 165.231 61.983 182.227 52.5537C190.892 47.7622 194.301 43.4575 206.683 38.3585C212.246 36.0524 216.476 34.3613 217.758 35.8218C220.526 39.0247 204.145 51.3238 194.122 74.4871C188.918 86.5043 185.329 85.0951 183.33 112.384C182.15 128.552 169.846 140.364 166.821 142.542C161.181 146.642 153.26 152.381 146.62 149.127C140.57 146.129 137.981 136.777 139.058 129.5C141.391 113.895 160.515 108.566 159.13 104.876C157.259 99.854 116.525 109.693 117.576 120.199C117.986 124.35 125.215 124.683 129.445 121.454C135.495 116.868 137.776 105.619 133.341 99.1109C126.856 89.6304 108.578 93.9094 104.989 101.494C103.015 105.645 109.552 121.377 99.7595 135.188C87.8392 152.023 104.81 168.78 106.707 179.773C109.065 193.609 106.373 202.961 110.783 218.13C112.731 224.844 115.653 228.969 120.062 228.354C123.395 227.893 126.83 213.288 121.139 214.056C115.448 214.825 120.473 231.685 130.957 231.07C141.442 230.455 145.082 208.675 138.725 208.829C132.367 208.983 136.443 222.819 140.186 225.689C145.8 229.994 152.696 225.638 152.414 215.799C152.209 208.137 146.723 203.5 147.415 196.786C148.184 189.304 152.439 178.543 171.204 158.557C179.433 149.768 190.226 137.417 189.764 121.557C189.508 113.05 188.149 104.184 192.635 92.2439C194.173 88.1442 196.019 84.9926 197.326 82.994" stroke="#3C211D" stroke-width="1.5" stroke-linecap="round" stroke-linejoin="round"/>
<path d="M71.4375 168.062C71.4375 168.062 76.3594 166.141 79.1024 161.682" stroke="#3C211D" stroke-width="1.5" stroke-linecap="round" stroke-linejoin="round"/>
<path d="M56.9551 145.181C57.1345 144.207 58.3394 137.725 63.3382 135.752C64.1072 135.444 65.953 134.727 67.5423 135.316C74.8996 138.135 71.4132 168.088 71.4132 168.088" fill="#006BE6"/>
<path d="M56.9551 145.181C57.1345 144.207 58.3394 137.725 63.3382 135.752C64.1072 135.444 65.953 134.727 67.5423 135.316C74.8996 138.135 71.4132 168.088 71.4132 168.088" stroke="#3C211D" stroke-width="1.5" stroke-linecap="round" stroke-linejoin="round"/>
<path d="M18.9626 328.643C18.9882 335.689 17.809 345.58 11.0157 353.088C6.81159 357.7 0.710456 361.159 0.966806 361.569C1.24879 362.03 8.11898 356.137 16.7836 356.624C20.0136 356.803 22.6797 357.828 24.5767 358.801" stroke="#3C211D" stroke-width="1.5" stroke-linecap="round" stroke-linejoin="round"/>
<path d="M27.5237 366.053C26.8315 359.339 27.5237 353.984 28.1902 350.448C29.2669 344.965 31.5227 333.537 39.7516 329.822C40.7257 329.386 44.0326 327.874 45.5964 329.232C48.852 332.025 43.5199 345.477 42.674 347.578C42.674 347.578 41.828 349.731 41.9562 349.782C42.11 349.859 43.3405 346.451 45.6733 343.479C48.5444 339.84 53.1843 336.689 54.5173 337.713C56.1067 338.943 53.3638 346.4 52.2615 349.398C51.3642 351.832 50.2363 354.343 51.2104 357.033C51.6206 358.135 52.2358 358.929 52.7229 359.442" stroke="#3C211D" stroke-width="1.5" stroke-linecap="round" stroke-linejoin="round"/>
<path d="M76.1328 339.276C78.6963 336.227 79.491 332.819 78.2349 331.103C76.6199 328.925 71.9799 329.898 69.4677 331.103C59.8546 335.715 57.0603 355.112 62.495 358.724C66.007 361.056 72.0568 358.878 76.3379 353.625C78.8245 350.576 79.3372 347.143 83.003 345.067C85.9767 343.376 88.0531 344.145 89.463 344.683" stroke="#3C211D" stroke-width="1.5" stroke-linecap="round" stroke-linejoin="round"/>
<path d="M96.4819 347.784C93.3801 350.577 90.3039 352.78 88.9709 351.909C87.3559 350.858 88.4838 344.504 87.9711 345.503C87.5097 346.4 87.4584 349.424 85.3051 351.063C84.1002 351.96 82.5621 352.498 81.306 352.114C81.0753 352.037 80.1524 351.73 79.691 350.833C79.2296 349.936 79.3834 348.809 80.0499 347.861" stroke="#3C211D" stroke-width="1.5" stroke-linecap="round" stroke-linejoin="round"/>
<path d="M64.7773 176.467C64.7773 176.467 65.3926 180.105 67.0845 179.183C68.7764 178.26 68.8277 174.34 68.8277 174.34C68.8277 174.34 70.6734 175.288 72.8267 173.11C73.5445 172.392 73.929 171.649 74.1085 170.983C74.4161 169.856 74.211 168.908 74.1085 168.472" stroke="#3C211D" stroke-width="1.5" stroke-linecap="round" stroke-linejoin="round"/>
<path d="M71.4405 168.063C68.7232 156.456 63.1347 151.075 60.238 148.103C56.0082 143.772 49.6507 139.775 47.7793 141.261C46.677 142.132 48.2151 144.028 47.7793 149.512C47.4461 153.663 47.241 156.251 45.4209 158.634C44.4981 159.864 43.1907 160.94 43.4983 162.118C43.7803 163.169 45.0364 163.143 45.2671 164.117C45.6516 165.629 42.678 166.474 42.2678 168.755C41.8576 171.061 44.6262 171.778 45.2671 175.366C45.7798 178.338 44.1648 179.414 45.062 181.131C46.1643 183.257 49.907 183.898 52.6756 183.539C59.3151 182.719 64.7754 176.442 64.7754 176.442" fill="#006BE6"/>
<path d="M71.4405 168.063C68.7232 156.456 63.1347 151.075 60.238 148.103C56.0082 143.772 49.6507 139.775 47.7793 141.261C46.677 142.132 48.2151 144.028 47.7793 149.512C47.4461 153.663 47.241 156.251 45.4209 158.634C44.4981 159.864 43.1907 160.94 43.4983 162.118C43.7803 163.169 45.0364 163.143 45.2671 164.117C45.6516 165.629 42.678 166.474 42.2678 168.755C41.8576 171.061 44.6262 171.778 45.2671 175.366C45.7798 178.338 44.1648 179.414 45.062 181.131C46.1643 183.257 49.907 183.898 52.6756 183.539C59.3151 182.719 64.7754 176.442 64.7754 176.442" stroke="#3C211D" stroke-width="1.5" stroke-linecap="round" stroke-linejoin="round"/>
<path d="M81.0785 166.832C78.2586 166.73 75.0286 167.14 71.4141 168.062" stroke="#3C211D" stroke-width="1.5" stroke-linecap="round" stroke-linejoin="round"/>
</g>
<defs>
<clipPath id="clip0_657_1454">
<rect width="219" height="367" fill="white"/>
</clipPath>
</defs>
</svg>
