<svg width="168" height="411" viewBox="0 0 168 411" fill="none" xmlns="http://www.w3.org/2000/svg">
<path d="M92.5742 27.6983C92.022 27.1336 91.6035 26.0269 91.0017 25.3014C88.4637 22.272 87.6223 21.0196 85.2073 18.4434C81.7151 14.2781 68.6989 5.5121 69.8883 3.31951C69.8883 3.31945 69.8883 3.31939 69.8884 3.31933C69.9027 3.29704 69.9186 3.27538 69.9359 3.25427C70.2636 2.85031 71.7613 3.15473 72.2592 2.7887C72.7564 2.42298 74.7058 -0.814577 76.5567 0.194065C79.2991 1.6725 84.1813 6.70611 85.4541 7.79398C86.315 8.48354 87.5617 9.1143 88.6393 10.0104C92.1136 12.9357 93.4636 14.6614 96.9702 17.1192C97.7115 18.6707 98.403 20.2232 99.0464 21.7748C100.571 23.2513 101.953 26.1404 102.739 27.1809C103.378 28.017 104.051 28.2984 104.687 29.1936C105.402 30.1982 106.097 31.9926 107.304 33.843C109.255 36.8724 110.449 37.0033 111.615 38.888C112.824 40.8606 113.891 44.2847 115.365 46.8167C115.613 47.1096 115.86 47.4042 116.106 47.7003C116.234 47.3596 116.362 47.0175 116.488 46.6741C117.181 47.9993 116.948 48.788 117.44 50.055C118.014 51.548 118.753 52.1449 119.118 53.1629C119.417 53.9974 119.44 55.256 119.819 56.3323C120.366 57.9048 120.79 57.3893 121.16 58.2184C121.347 58.5344 123.418 64.8695 123.469 65.2479C124.156 68.0242 123.445 68.4412 123.832 70.6615C124.884 76.8265 126.285 83.1328 126.886 88.9125C127.157 91.4934 127.213 94.2065 127.12 96.7768C125.094 92.7925 123.631 101.663 126.708 98.3402C126.269 101.191 127.057 103.232 126.798 105.945C126.624 107.689 126.132 108.87 125.955 111.354C125.651 115.752 126.237 120.737 123.871 121.687C123.554 126.862 121.916 131.085 123.455 133.301C123.313 134.646 121.451 137.745 120.949 139.151C120.557 140.502 117.212 150.814 116.593 152.44C116.052 154.102 115.045 157.052 114.718 158.506C114.307 160.326 115.768 162.284 112.384 164.545C111.167 168.231 110.572 169.5 108.912 172.678C108.609 173.252 108.258 173.178 108.107 173.523C107.793 174.238 107.505 175.524 106.938 176.832C106.015 178.959 104.773 179.812 105.901 180.071C105.413 181.523 104.909 182.966 104.392 184.397C103.957 184.77 103.522 185.139 103.086 185.506C102.931 186.319 102.753 187.164 102.573 188C101.6 186.394 99.6828 191.88 101.398 190.706C99.6478 193.153 97.9268 195.416 96.0417 197.807C94.7046 196.504 92.366 203.129 93.4963 203.202C93.3078 203.48 93.1187 203.757 92.9291 204.033C90.9049 206.125 89.5519 208.717 87.1118 211.337C84.6563 213.942 84.7028 213.549 83.3403 213.876C82.8299 214.572 82.3161 215.259 81.7989 215.938C80.5621 220.854 78.3263 217.52 74.1193 224.212C71.4391 224.801 67.3743 229.413 64.4436 232.009C64.1061 232.315 64.2707 232.55 63.7885 232.995C62.6106 234.119 59.0838 235.855 59.6594 236.558C58.3568 237.014 57.0618 237.418 55.6622 237.816C54.7117 238.475 53.7497 239.099 52.775 239.687C52.8908 239.95 53.0068 240.213 53.1228 240.476C50.7188 240.462 47.2482 241.946 45.4393 242.069C45.0808 242.097 44.9201 241.738 43.8343 241.83C42.5953 241.943 40.1023 242.349 38.5619 242.239C37.9701 242.692 37.3547 243.128 36.7151 243.546C33.7871 243.65 32.9106 242.277 31.3229 241.866C30.9828 241.902 25.8129 240.295 25.5682 240.082C23.3869 239.167 23.1328 240.687 17.6462 236.354C16.69 235.537 16.0905 234.545 15.3212 233.791C13.9782 232.631 9.58513 228.534 8.72591 228.442C8.13044 226.324 4.98415 221.737 4.08172 219.495C4.01861 219.349 3.96556 219.217 3.92343 219.099C3.72516 218.525 4.14464 218.137 3.51089 216.479C2.9601 215.096 1.3276 212.154 0.926827 210.333C0.457249 208.311 0.830827 207.542 0.709793 206.688C0.608392 205.887 0.12092 205.203 0.0385077 204.126C-0.222834 200.411 0.900748 197.324 1.977 194.572C3.48771 190.713 5.08481 187.14 7.67053 184.455C8.39507 183.983 9.22319 183.697 9.98322 183.213C19.6149 177.254 31.5547 176.669 41.467 177.26C46.3896 177.406 57.2101 180.7 54.6632 177.69C56.3567 177.364 67.6695 180.933 69.6439 181.649C71.7534 182.263 73.5792 182.341 75.2646 182.88C80.2503 184.508 83.6211 186.1 89.6302 188.274C91.1731 188.837 93.0146 189.084 93.9031 189.515C94.9722 190.033 95.8882 191.071 97.2477 191.798C100.451 193.468 106.469 196.676 109.366 198.65C109.894 199.004 109.832 199.518 110.515 200.131C113.176 202.513 116.418 204.793 116.719 203.171C119.948 206.524 123.695 208.501 126.965 211.269C133.994 216.885 144.644 229.528 149.29 235.887C152.317 239.87 152.943 239.402 155.912 246.174C156.551 247.691 157.12 249.235 157.813 251.116C159.42 255.501 159.704 259.808 162.22 262.739C163.433 267.773 164.626 271.628 164.119 275.655C164.505 276.039 164.89 276.428 165.272 276.823C165.393 277.448 165.512 278.092 165.617 278.686C165.36 278.922 165.102 279.157 164.844 279.391C165.471 283.675 167.174 289.351 167.271 293.192C167.757 299.466 165.888 315.72 164.105 321.635C163.277 324.806 163.864 324.95 162.226 326.425C162.163 327.115 162.094 327.808 162.019 328.505C162.191 328.993 162.361 329.485 162.528 329.98C161.601 333.826 159.702 338.733 158.562 342.146C156.539 348.509 153.06 359.086 149.687 364.874C148.825 366.397 147.336 368.121 146.555 369.682C145.409 371.956 145.985 372.952 144.435 375.89C142.037 380.505 135.926 388.664 133.057 393.236C132.206 394.614 132.145 395.361 131.623 396.232C129.428 399.884 127.391 402.82 125.379 406.63C121.956 409.851 121.199 408.831 119.387 409.284C118.014 409.633 114.319 411.08 113.393 410.983C112.746 410.916 112.924 409.484 112.151 409.491C115.084 404.743 116.825 403.23 120.028 400.169C124.483 393.724 128.861 386.895 132.878 379.953C133.531 379.5 134.181 379.045 134.829 378.59C134.83 378.591 134.83 378.591 134.831 378.591C136.668 376.158 136.511 374.638 137.1 373.152C143.597 358.307 156.056 330.177 157.859 312.821C158.54 309.321 158.69 297.057 159.008 294.667C159.134 294.022 159.646 293.827 159.644 293.143C159.09 286.698 158.053 280.826 156.39 274.651C154.475 262.019 148.39 249.778 140.969 239.307C120.71 210.792 87.7673 192.644 54.2922 186.467C47.5975 185.267 39.444 185.033 33.0159 185.236C30.4018 185.328 29.2677 184.568 25.891 185.793C25.8141 185.58 25.7368 185.367 25.6591 185.154C22.8298 185.998 21.0346 186.985 18.1724 188.209C15.5449 189.063 10.2786 193.138 9.48885 194.953C8.92081 195.828 8.74045 195.285 8.30185 196.194C7.4599 197.797 7.39342 201.529 7.75149 204.017C7.85479 205.093 8.00073 206.658 8.36606 208.326C8.69077 209.867 9.09223 211.196 9.50675 212.107C10.0267 213.247 10.6492 214.442 11.376 215.693C14.6559 221.295 18.5296 225.947 22.9799 229.734C24.4735 231.033 26.2218 232.689 26.8436 232.982C27.9337 233.512 28.4713 233.163 29.2018 233.398C32.8153 234.712 38.9051 235.781 42.9649 234.868C56.1681 232.281 68.1593 221.364 77.4657 210.446C83.5194 203.592 91.7748 190.601 96.0174 183.107C96.9465 181.52 97.2287 182.225 97.9326 180.85C98.7082 179.321 98.7673 178.308 99.091 177.572C101.45 172.436 105.723 160.993 107.723 156.133C108.123 155.211 108.783 154.664 108.972 154.091C109.068 153.801 108.993 153.051 109.256 152.13C111.527 144.05 113.234 138.144 114.934 130.085C118.192 114.632 118.733 96.2145 116.735 79.9287C116.317 76.378 116.72 73.8074 116.62 73.3081C116.39 72.2203 115.675 71.6451 115.045 69.4944C113.017 62.3568 110.382 52.6976 107.015 46.5008C105.413 43.4321 102.432 39.5904 100.511 36.8807C99.0412 34.6691 95.4954 29.2592 94.4926 28.603C93.8894 28.1628 93.1761 28.3096 92.5742 27.6983ZM125.23 113.953C124.259 113.344 124.55 118.812 125.32 116.855C125.499 116.411 125.49 114.11 125.23 113.953ZM23.6837 179.847C23.5737 179.567 23.4628 179.287 23.3513 179.007C22.6622 179.28 21.9894 179.564 21.3342 179.86C21.7641 179.934 22.1937 180.013 22.623 180.097C22.9734 180.01 23.3269 179.927 23.6837 179.847Z" fill="#815E57"/>
</svg>
